<svg width="442" height="259" viewBox="0 0 442 259" fill="none" xmlns="http://www.w3.org/2000/svg">
<path d="M1.72 22V7.8H3.88V22H1.72ZM11.9688 22V11.36H13.9088L13.9888 14.2L13.7288 14.06C13.8488 13.3667 14.0754 12.8067 14.4088 12.38C14.7421 11.9533 15.1488 11.64 15.6288 11.44C16.1088 11.2267 16.6288 11.12 17.1888 11.12C17.9888 11.12 18.6488 11.3 19.1688 11.66C19.7021 12.0067 20.1021 12.4867 20.3688 13.1C20.6488 13.7 20.7888 14.3867 20.7888 15.16V22H18.6688V15.8C18.6688 15.1733 18.6021 14.6467 18.4688 14.22C18.3354 13.7933 18.1154 13.4667 17.8088 13.24C17.5021 13.0133 17.1021 12.9 16.6088 12.9C15.8621 12.9 15.2554 13.1467 14.7888 13.64C14.3221 14.1333 14.0888 14.8533 14.0888 15.8V22H11.9688ZM27.9308 22.24C26.8908 22.24 25.9908 22.0133 25.2308 21.56C24.4841 21.1067 23.9041 20.46 23.4908 19.62C23.0908 18.78 22.8908 17.8 22.8908 16.68C22.8908 15.56 23.0908 14.5867 23.4908 13.76C23.9041 12.92 24.4841 12.2733 25.2308 11.82C25.9774 11.3533 26.8574 11.12 27.8708 11.12C28.8308 11.12 29.6774 11.3467 30.4108 11.8C31.1441 12.24 31.7108 12.88 32.1108 13.72C32.5241 14.56 32.7308 15.5733 32.7308 16.76V17.3H25.0908C25.1441 18.34 25.4174 19.12 25.9108 19.64C26.4174 20.16 27.0974 20.42 27.9508 20.42C28.5774 20.42 29.0974 20.2733 29.5108 19.98C29.9241 19.6867 30.2108 19.2933 30.3708 18.8L32.5708 18.94C32.2908 19.9267 31.7374 20.7267 30.9108 21.34C30.0974 21.94 29.1041 22.24 27.9308 22.24ZM25.0908 15.7H30.4908C30.4241 14.7533 30.1508 14.0533 29.6708 13.6C29.2041 13.1467 28.6041 12.92 27.8708 12.92C27.1108 12.92 26.4841 13.16 25.9908 13.64C25.5108 14.1067 25.2108 14.7933 25.0908 15.7ZM39.2589 22.24C38.2189 22.24 37.3189 22.0133 36.5589 21.56C35.8122 21.1067 35.2322 20.46 34.8189 19.62C34.4189 18.78 34.2189 17.8 34.2189 16.68C34.2189 15.56 34.4189 14.5867 34.8189 13.76C35.2322 12.92 35.8122 12.2733 36.5589 11.82C37.3056 11.3533 38.1856 11.12 39.1989 11.12C40.1589 11.12 41.0056 11.3467 41.7389 11.8C42.4722 12.24 43.0389 12.88 43.4389 13.72C43.8522 14.56 44.0589 15.5733 44.0589 16.76V17.3H36.4189C36.4722 18.34 36.7456 19.12 37.2389 19.64C37.7456 20.16 38.4256 20.42 39.2789 20.42C39.9056 20.42 40.4256 20.2733 40.8389 19.98C41.2522 19.6867 41.5389 19.2933 41.6989 18.8L43.8989 18.94C43.6189 19.9267 43.0656 20.7267 42.2389 21.34C41.4256 21.94 40.4322 22.24 39.2589 22.24ZM36.4189 15.7H41.8189C41.7522 14.7533 41.4789 14.0533 40.9989 13.6C40.5322 13.1467 39.9322 12.92 39.1989 12.92C38.4389 12.92 37.8122 13.16 37.3189 13.64C36.8389 14.1067 36.5389 14.7933 36.4189 15.7ZM49.987 22.24C49.0804 22.24 48.287 22.0133 47.607 21.56C46.9404 21.1067 46.427 20.4667 46.067 19.64C45.7204 18.8 45.547 17.8133 45.547 16.68C45.547 15.5467 45.727 14.5667 46.087 13.74C46.447 12.9 46.9604 12.2533 47.627 11.8C48.2937 11.3467 49.0804 11.12 49.987 11.12C50.7204 11.12 51.3737 11.2733 51.947 11.58C52.5204 11.8867 52.9537 12.3133 53.247 12.86V7.8H55.367V22H53.387L53.327 20.4C53.0337 20.9733 52.587 21.4267 51.987 21.76C51.4004 22.08 50.7337 22.24 49.987 22.24ZM50.547 20.4C51.1204 20.4 51.607 20.2533 52.007 19.96C52.407 19.6667 52.7137 19.24 52.927 18.68C53.1404 18.12 53.247 17.4533 53.247 16.68C53.247 15.88 53.1404 15.2067 52.927 14.66C52.7137 14.1 52.407 13.68 52.007 13.4C51.607 13.1067 51.1204 12.96 50.547 12.96C49.6937 12.96 49.0137 13.2933 48.507 13.96C48.0004 14.6133 47.747 15.52 47.747 16.68C47.747 17.8267 48.0004 18.7333 48.507 19.4C49.0137 20.0667 49.6937 20.4 50.547 20.4ZM65.5183 22V11.88H62.5183V10.14H63.7383C64.2716 10.14 64.7049 10.0733 65.0383 9.94C65.3716 9.79333 65.6116 9.55333 65.7583 9.22C65.9049 8.87333 65.9783 8.4 65.9783 7.8H67.6783V22H65.5183ZM76.2433 22.32C75.1899 22.32 74.2899 22.1533 73.5433 21.82C72.7966 21.4733 72.2099 20.9933 71.7833 20.38C71.3566 19.7667 71.1099 19.06 71.0433 18.26L73.2633 18.12C73.3699 18.8667 73.6833 19.4267 74.2033 19.8C74.7366 20.16 75.4166 20.34 76.2433 20.34C77.1766 20.34 77.9099 20.08 78.4433 19.56C78.9899 19.04 79.2633 18.3133 79.2633 17.38C79.2633 16.7667 79.1366 16.24 78.8833 15.8C78.6433 15.3467 78.2966 15 77.8433 14.76C77.3899 14.5067 76.8499 14.38 76.2233 14.38C75.5966 14.38 75.0366 14.5133 74.5433 14.78C74.0499 15.0467 73.6966 15.4133 73.4833 15.88H71.2433L72.2033 7.8H80.5233V9.78H74.1233L73.5233 14.64L73.1833 14.34C73.4099 13.94 73.6966 13.6133 74.0433 13.36C74.3899 13.0933 74.7899 12.8933 75.2433 12.76C75.7099 12.6133 76.2033 12.54 76.7233 12.54C77.6833 12.54 78.5166 12.7467 79.2233 13.16C79.9433 13.5733 80.5033 14.1467 80.9033 14.88C81.3033 15.6133 81.5033 16.4467 81.5033 17.38C81.5033 18.3533 81.2833 19.2133 80.8433 19.96C80.4033 20.7067 79.7899 21.2867 79.0033 21.7C78.2166 22.1133 77.2966 22.32 76.2433 22.32ZM89.2591 22V7.8H91.4191V22H89.2591ZM94.8203 22V11.36H96.7603L96.8403 14.2L96.5803 14.06C96.7003 13.3667 96.927 12.8067 97.2603 12.38C97.5936 11.9533 98.0003 11.64 98.4803 11.44C98.9603 11.2267 99.4803 11.12 100.04 11.12C100.84 11.12 101.5 11.3 102.02 11.66C102.554 12.0067 102.954 12.4867 103.22 13.1C103.5 13.7 103.64 14.3867 103.64 15.16V22H101.52V15.8C101.52 15.1733 101.454 14.6467 101.32 14.22C101.187 13.7933 100.967 13.4667 100.66 13.24C100.354 13.0133 99.9536 12.9 99.4603 12.9C98.7136 12.9 98.107 13.1467 97.6403 13.64C97.1736 14.1333 96.9403 14.8533 96.9403 15.8V22H94.8203ZM109.955 22C108.942 22 108.195 21.7667 107.715 21.3C107.235 20.8333 106.995 20.1067 106.995 19.12V8.86H109.115V18.96C109.115 19.4533 109.222 19.7933 109.435 19.98C109.648 20.1667 109.975 20.26 110.415 20.26H111.935V22H109.955ZM105.375 13.1V11.36H111.935V13.1H105.375ZM118.165 22.24C117.125 22.24 116.225 22.0133 115.465 21.56C114.718 21.1067 114.138 20.46 113.725 19.62C113.325 18.78 113.125 17.8 113.125 16.68C113.125 15.56 113.325 14.5867 113.725 13.76C114.138 12.92 114.718 12.2733 115.465 11.82C116.212 11.3533 117.092 11.12 118.105 11.12C119.065 11.12 119.912 11.3467 120.645 11.8C121.378 12.24 121.945 12.88 122.345 13.72C122.758 14.56 122.965 15.5733 122.965 16.76V17.3H115.325C115.378 18.34 115.652 19.12 116.145 19.64C116.652 20.16 117.332 20.42 118.185 20.42C118.812 20.42 119.332 20.2733 119.745 19.98C120.158 19.6867 120.445 19.2933 120.605 18.8L122.805 18.94C122.525 19.9267 121.972 20.7267 121.145 21.34C120.332 21.94 119.338 22.24 118.165 22.24ZM115.325 15.7H120.725C120.658 14.7533 120.385 14.0533 119.905 13.6C119.438 13.1467 118.838 12.92 118.105 12.92C117.345 12.92 116.718 13.16 116.225 13.64C115.745 14.1067 115.445 14.7933 115.325 15.7ZM125.113 22V11.36H127.053L127.133 14.18L126.953 14.12C127.1 13.16 127.393 12.46 127.833 12.02C128.287 11.58 128.893 11.36 129.653 11.36H130.673V13.26H129.653C129.12 13.26 128.673 13.3467 128.313 13.52C127.953 13.6933 127.68 13.96 127.493 14.32C127.32 14.68 127.233 15.1467 127.233 15.72V22H125.113ZM135.316 22L131.436 11.36H133.696L136.596 19.84L139.496 11.36H141.776L137.876 22H135.316ZM143.492 22V11.36H145.612V22H143.492ZM143.452 9.82V7.7H145.652V9.82H143.452ZM152.794 22.24C151.754 22.24 150.854 22.0133 150.094 21.56C149.347 21.1067 148.767 20.46 148.354 19.62C147.954 18.78 147.754 17.8 147.754 16.68C147.754 15.56 147.954 14.5867 148.354 13.76C148.767 12.92 149.347 12.2733 150.094 11.82C150.841 11.3533 151.721 11.12 152.734 11.12C153.694 11.12 154.541 11.3467 155.274 11.8C156.007 12.24 156.574 12.88 156.974 13.72C157.387 14.56 157.594 15.5733 157.594 16.76V17.3H149.954C150.007 18.34 150.281 19.12 150.774 19.64C151.281 20.16 151.961 20.42 152.814 20.42C153.441 20.42 153.961 20.2733 154.374 19.98C154.787 19.6867 155.074 19.2933 155.234 18.8L157.434 18.94C157.154 19.9267 156.601 20.7267 155.774 21.34C154.961 21.94 153.967 22.24 152.794 22.24ZM149.954 15.7H155.354C155.287 14.7533 155.014 14.0533 154.534 13.6C154.067 13.1467 153.467 12.92 152.734 12.92C151.974 12.92 151.347 13.16 150.854 13.64C150.374 14.1067 150.074 14.7933 149.954 15.7ZM161.59 22L158.35 11.36H160.57L162.85 19.68L165.19 11.36H167.19L169.53 19.68L171.83 11.36H174.05L170.81 22H168.43L166.19 14.4L163.95 22H161.59ZM179.545 22.24C178.545 22.24 177.699 22.0867 177.005 21.78C176.325 21.4733 175.799 21.0533 175.425 20.52C175.052 19.9733 174.839 19.3467 174.785 18.64L176.965 18.54C177.072 19.1267 177.325 19.5933 177.725 19.94C178.125 20.2867 178.732 20.46 179.545 20.46C180.212 20.46 180.739 20.3533 181.125 20.14C181.512 19.9267 181.705 19.5867 181.705 19.12C181.705 18.8667 181.639 18.6533 181.505 18.48C181.385 18.2933 181.145 18.14 180.785 18.02C180.425 17.8867 179.892 17.76 179.185 17.64C178.132 17.44 177.305 17.2067 176.705 16.94C176.105 16.6733 175.679 16.3333 175.425 15.92C175.172 15.5067 175.045 15.0067 175.045 14.42C175.045 13.4467 175.405 12.6533 176.125 12.04C176.859 11.4267 177.912 11.12 179.285 11.12C180.205 11.12 180.979 11.28 181.605 11.6C182.232 11.9067 182.719 12.3267 183.065 12.86C183.425 13.38 183.652 13.9667 183.745 14.62L181.565 14.74C181.499 14.3667 181.365 14.0467 181.165 13.78C180.979 13.5 180.725 13.2867 180.405 13.14C180.085 12.98 179.705 12.9 179.265 12.9C178.585 12.9 178.079 13.0333 177.745 13.3C177.412 13.5667 177.245 13.9133 177.245 14.34C177.245 14.66 177.319 14.92 177.465 15.12C177.625 15.32 177.879 15.4867 178.225 15.62C178.572 15.74 179.032 15.8467 179.605 15.94C180.712 16.1267 181.579 16.36 182.205 16.64C182.832 16.9067 183.272 17.24 183.525 17.64C183.779 18.04 183.905 18.5267 183.905 19.1C183.905 19.7667 183.719 20.3333 183.345 20.8C182.972 21.2667 182.459 21.6267 181.805 21.88C181.152 22.12 180.399 22.24 179.545 22.24Z" fill="#181D27"/>
<rect y="42.083" width="442" height="5" rx="2.5" fill="#EAECF5"/>
<rect y="42.083" width="221" height="5" rx="2.5" fill="#444CE7"/>
<path d="M36 47.083L36 53.583C36 54.4114 35.3284 55.083 34.5 55.083C33.6716 55.083 33 54.4114 33 53.583L33 47.083L36 47.083Z" fill="#444CE7"/>
<path d="M34.9842 75.006C34.1842 75.006 33.4909 74.8727 32.9042 74.606C32.3282 74.3393 31.8695 73.966 31.5282 73.486C31.1975 73.006 31.0055 72.4513 30.9522 71.822L32.3922 71.726C32.4775 72.366 32.7495 72.8513 33.2082 73.182C33.6775 73.502 34.2695 73.662 34.9842 73.662C35.7842 73.662 36.4189 73.438 36.8882 72.99C37.3575 72.5313 37.5922 71.902 37.5922 71.102C37.5922 70.5687 37.4855 70.11 37.2722 69.726C37.0695 69.3313 36.7709 69.0273 36.3762 68.814C35.9815 68.6007 35.5069 68.494 34.9522 68.494C34.4295 68.494 33.9549 68.606 33.5282 68.83C33.1015 69.054 32.7975 69.3687 32.6162 69.774H31.1442L31.8962 63.39H38.2642V64.734H33.1602L32.6482 68.926L32.3922 68.67C32.5629 68.3393 32.7869 68.0673 33.0642 67.854C33.3522 67.63 33.6775 67.4647 34.0402 67.358C34.4135 67.2407 34.8029 67.182 35.2082 67.182C35.9655 67.182 36.6322 67.3527 37.2082 67.694C37.7842 68.0247 38.2322 68.4887 38.5522 69.086C38.8722 69.6727 39.0322 70.3447 39.0322 71.102C39.0322 71.8593 38.8615 72.5367 38.5202 73.134C38.1789 73.7207 37.7042 74.1793 37.0962 74.51C36.4882 74.8407 35.7842 75.006 34.9842 75.006Z" fill="#535862"/>
<path d="M129.25 47.083L129.25 53.583C129.25 54.4114 128.578 55.083 127.75 55.083C126.922 55.083 126.25 54.4114 126.25 53.583L126.25 47.083L129.25 47.083Z" fill="#444CE7"/>
<path d="M123.461 74.75V66.334H121.093V65.15H122.053C122.469 65.15 122.8 65.0967 123.045 64.99C123.301 64.8833 123.482 64.702 123.589 64.446C123.696 64.19 123.749 63.838 123.749 63.39H124.837V74.75H123.461ZM131.734 75.006C130.816 75.006 130.022 74.766 129.35 74.286C128.678 73.806 128.155 73.1233 127.782 72.238C127.419 71.3527 127.238 70.302 127.238 69.086C127.238 67.87 127.419 66.8193 127.782 65.934C128.155 65.038 128.678 64.35 129.35 63.87C130.022 63.3793 130.816 63.134 131.734 63.134C132.662 63.134 133.462 63.3793 134.134 63.87C134.806 64.35 135.323 65.0327 135.686 65.918C136.059 66.8033 136.246 67.8593 136.246 69.086C136.246 70.302 136.059 71.3527 135.686 72.238C135.323 73.1233 134.806 73.806 134.134 74.286C133.462 74.766 132.662 75.006 131.734 75.006ZM131.734 73.662C132.715 73.662 133.472 73.2673 134.006 72.478C134.539 71.678 134.806 70.5473 134.806 69.086C134.806 68.1047 134.683 67.2727 134.438 66.59C134.203 65.8967 133.856 65.374 133.398 65.022C132.95 64.6593 132.395 64.478 131.734 64.478C131.083 64.478 130.528 64.6593 130.07 65.022C129.622 65.374 129.275 65.8967 129.03 66.59C128.795 67.2727 128.678 68.1047 128.678 69.086C128.678 70.5473 128.944 71.678 129.478 72.478C130.011 73.2673 130.763 73.662 131.734 73.662Z" fill="#535862"/>
<path d="M222.5 47.083L222.5 53.583C222.5 54.4114 221.828 55.083 221 55.083C220.172 55.083 219.5 54.4114 219.5 53.583L219.5 47.083L222.5 47.083Z" fill="#444CE7"/>
<path d="M216.43 74.7529V66.3369H214.062V65.1529H215.022C215.438 65.1529 215.769 65.0996 216.014 64.9929C216.27 64.8863 216.451 64.7049 216.558 64.4489C216.665 64.1929 216.718 63.8409 216.718 63.3929H217.806V74.7529H216.43ZM224.555 75.0089C223.755 75.0089 223.061 74.8756 222.475 74.6089C221.899 74.3423 221.44 73.9689 221.099 73.4889C220.768 73.0089 220.576 72.4543 220.523 71.8249L221.963 71.7289C222.048 72.3689 222.32 72.8543 222.779 73.1849C223.248 73.5049 223.84 73.6649 224.555 73.6649C225.355 73.6649 225.989 73.4409 226.459 72.9929C226.928 72.5343 227.163 71.9049 227.163 71.1049C227.163 70.5716 227.056 70.1129 226.843 69.7289C226.64 69.3343 226.341 69.0303 225.947 68.8169C225.552 68.6036 225.077 68.4969 224.523 68.4969C224 68.4969 223.525 68.6089 223.099 68.8329C222.672 69.0569 222.368 69.3716 222.187 69.7769H220.715L221.467 63.3929H227.835V64.7369H222.731L222.219 68.9289L221.963 68.6729C222.133 68.3423 222.357 68.0703 222.635 67.8569C222.923 67.6329 223.248 67.4676 223.611 67.3609C223.984 67.2436 224.373 67.1849 224.779 67.1849C225.536 67.1849 226.203 67.3556 226.779 67.6969C227.355 68.0276 227.803 68.4916 228.123 69.0889C228.443 69.6756 228.602 70.3476 228.602 71.1049C228.602 71.8623 228.432 72.5396 228.091 73.1369C227.749 73.7236 227.275 74.1823 226.667 74.5129C226.059 74.8436 225.355 75.0089 224.555 75.0089Z" fill="#444CE7"/>
<circle cx="220.75" cy="44.083" r="5" fill="white" stroke="#444CE7" stroke-width="2"/>
<path d="M315.75 47.083L315.75 53.583C315.75 54.4114 315.078 55.083 314.25 55.083C313.422 55.083 312.75 54.4114 312.75 53.583L312.75 47.083L315.75 47.083Z" fill="#EAECF5"/>
<path d="M305.78 74.7529C305.78 73.9529 305.903 73.2329 306.148 72.5929C306.404 71.9423 306.847 71.3236 307.476 70.7369C308.116 70.1503 309.002 69.5583 310.132 68.9609C310.655 68.6836 311.076 68.4276 311.396 68.1929C311.716 67.9583 311.951 67.7076 312.1 67.4409C312.25 67.1743 312.324 66.8489 312.324 66.4649C312.324 66.0703 312.239 65.7289 312.068 65.4409C311.898 65.1423 311.642 64.9076 311.3 64.7369C310.97 64.5663 310.554 64.4809 310.052 64.4809C309.252 64.4809 308.618 64.6889 308.148 65.1049C307.69 65.5209 307.402 66.1129 307.284 66.8809L305.844 66.7849C305.972 65.6756 306.399 64.7903 307.124 64.1289C307.85 63.4676 308.826 63.1369 310.052 63.1369C310.831 63.1369 311.498 63.2756 312.052 63.5529C312.607 63.8303 313.028 64.2196 313.316 64.7209C313.615 65.2116 313.764 65.7823 313.764 66.4329C313.764 67.0089 313.668 67.5103 313.476 67.9369C313.284 68.3529 312.959 68.7423 312.5 69.1049C312.052 69.4676 311.434 69.8569 310.644 70.2729C309.62 70.8169 308.842 71.3663 308.308 71.9209C307.786 72.4756 307.508 72.9716 307.476 73.4089H313.764V74.7529H305.78ZM319.866 75.0089C318.949 75.0089 318.154 74.7689 317.482 74.2889C316.81 73.8089 316.288 73.1263 315.914 72.2409C315.552 71.3556 315.37 70.3049 315.37 69.0889C315.37 67.8729 315.552 66.8223 315.914 65.9369C316.288 65.0409 316.81 64.3529 317.482 63.8729C318.154 63.3823 318.949 63.1369 319.866 63.1369C320.794 63.1369 321.594 63.3823 322.266 63.8729C322.938 64.3529 323.456 65.0356 323.818 65.9209C324.192 66.8063 324.378 67.8623 324.378 69.0889C324.378 70.3049 324.192 71.3556 323.818 72.2409C323.456 73.1263 322.938 73.8089 322.266 74.2889C321.594 74.7689 320.794 75.0089 319.866 75.0089ZM319.866 73.6649C320.848 73.6649 321.605 73.2703 322.138 72.4809C322.672 71.6809 322.938 70.5503 322.938 69.0889C322.938 68.1076 322.816 67.2756 322.57 66.5929C322.336 65.8996 321.989 65.3769 321.53 65.0249C321.082 64.6623 320.528 64.4809 319.866 64.4809C319.216 64.4809 318.661 64.6623 318.202 65.0249C317.754 65.3769 317.408 65.8996 317.162 66.5929C316.928 67.2756 316.81 68.1076 316.81 69.0889C316.81 70.5503 317.077 71.6809 317.61 72.4809C318.144 73.2703 318.896 73.6649 319.866 73.6649Z" fill="#535862"/>
<path d="M409 47.083L409 53.583C409 54.4114 408.328 55.083 407.5 55.083C406.672 55.083 406 54.4114 406 53.583L406 47.083L409 47.083Z" fill="#EAECF5"/>
<path d="M396.918 73.8569V66.2089H398.166V73.8569H396.918ZM393.718 70.6569V69.4089H401.366V70.6569H393.718ZM402.96 74.7529C402.96 73.9529 403.083 73.2329 403.328 72.5929C403.584 71.9423 404.027 71.3236 404.656 70.7369C405.296 70.1503 406.181 69.5583 407.312 68.9609C407.835 68.6836 408.256 68.4276 408.576 68.1929C408.896 67.9583 409.131 67.7076 409.28 67.4409C409.429 67.1743 409.504 66.8489 409.504 66.4649C409.504 66.0703 409.419 65.7289 409.248 65.4409C409.077 65.1423 408.821 64.9076 408.48 64.7369C408.149 64.5663 407.733 64.4809 407.232 64.4809C406.432 64.4809 405.797 64.6889 405.328 65.1049C404.869 65.5209 404.581 66.1129 404.464 66.8809L403.024 66.7849C403.152 65.6756 403.579 64.7903 404.304 64.1289C405.029 63.4676 406.005 63.1369 407.232 63.1369C408.011 63.1369 408.677 63.2756 409.232 63.5529C409.787 63.8303 410.208 64.2196 410.496 64.7209C410.795 65.2116 410.944 65.7823 410.944 66.4329C410.944 67.0089 410.848 67.5103 410.656 67.9369C410.464 68.3529 410.139 68.7423 409.68 69.1049C409.232 69.4676 408.613 69.8569 407.824 70.2729C406.8 70.8169 406.021 71.3663 405.488 71.9209C404.965 72.4756 404.688 72.9716 404.656 73.4089H410.944V74.7529H402.96ZM416.898 75.0089C416.098 75.0089 415.405 74.8756 414.818 74.6089C414.242 74.3423 413.784 73.9689 413.442 73.4889C413.112 73.0089 412.92 72.4543 412.866 71.8249L414.306 71.7289C414.392 72.3689 414.664 72.8543 415.122 73.1849C415.592 73.5049 416.184 73.6649 416.898 73.6649C417.698 73.6649 418.333 73.4409 418.802 72.9929C419.272 72.5343 419.506 71.9049 419.506 71.1049C419.506 70.5716 419.4 70.1129 419.186 69.7289C418.984 69.3343 418.685 69.0303 418.29 68.8169C417.896 68.6036 417.421 68.4969 416.866 68.4969C416.344 68.4969 415.869 68.6089 415.442 68.8329C415.016 69.0569 414.712 69.3716 414.53 69.7769H413.058L413.81 63.3929H420.178V64.7369H415.074L414.562 68.9289L414.306 68.6729C414.477 68.3423 414.701 68.0703 414.978 67.8569C415.266 67.6329 415.592 67.4676 415.954 67.3609C416.328 67.2436 416.717 67.1849 417.122 67.1849C417.88 67.1849 418.546 67.3556 419.122 67.6969C419.698 68.0276 420.146 68.4916 420.466 69.0889C420.786 69.6756 420.946 70.3476 420.946 71.1049C420.946 71.8623 420.776 72.5396 420.434 73.1369C420.093 73.7236 419.618 74.1823 419.01 74.5129C418.402 74.8436 417.698 75.0089 416.898 75.0089Z" fill="#535862"/>
<path d="M1.72 139V124.8H3.88V139H1.72ZM11.9688 139V128.36H13.9088L13.9888 131.2L13.7288 131.06C13.8488 130.367 14.0754 129.807 14.4088 129.38C14.7421 128.953 15.1488 128.64 15.6288 128.44C16.1088 128.227 16.6288 128.12 17.1888 128.12C17.9888 128.12 18.6488 128.3 19.1688 128.66C19.7021 129.007 20.1021 129.487 20.3688 130.1C20.6488 130.7 20.7888 131.387 20.7888 132.16V139H18.6688V132.8C18.6688 132.173 18.6021 131.647 18.4688 131.22C18.3354 130.793 18.1154 130.467 17.8088 130.24C17.5021 130.013 17.1021 129.9 16.6088 129.9C15.8621 129.9 15.2554 130.147 14.7888 130.64C14.3221 131.133 14.0888 131.853 14.0888 132.8V139H11.9688ZM27.9308 139.24C26.8908 139.24 25.9908 139.013 25.2308 138.56C24.4841 138.107 23.9041 137.46 23.4908 136.62C23.0908 135.78 22.8908 134.8 22.8908 133.68C22.8908 132.56 23.0908 131.587 23.4908 130.76C23.9041 129.92 24.4841 129.273 25.2308 128.82C25.9774 128.353 26.8574 128.12 27.8708 128.12C28.8308 128.12 29.6774 128.347 30.4108 128.8C31.1441 129.24 31.7108 129.88 32.1108 130.72C32.5241 131.56 32.7308 132.573 32.7308 133.76V134.3H25.0908C25.1441 135.34 25.4174 136.12 25.9108 136.64C26.4174 137.16 27.0974 137.42 27.9508 137.42C28.5774 137.42 29.0974 137.273 29.5108 136.98C29.9241 136.687 30.2108 136.293 30.3708 135.8L32.5708 135.94C32.2908 136.927 31.7374 137.727 30.9108 138.34C30.0974 138.94 29.1041 139.24 27.9308 139.24ZM25.0908 132.7H30.4908C30.4241 131.753 30.1508 131.053 29.6708 130.6C29.2041 130.147 28.6041 129.92 27.8708 129.92C27.1108 129.92 26.4841 130.16 25.9908 130.64C25.5108 131.107 25.2108 131.793 25.0908 132.7ZM39.2589 139.24C38.2189 139.24 37.3189 139.013 36.5589 138.56C35.8122 138.107 35.2322 137.46 34.8189 136.62C34.4189 135.78 34.2189 134.8 34.2189 133.68C34.2189 132.56 34.4189 131.587 34.8189 130.76C35.2322 129.92 35.8122 129.273 36.5589 128.82C37.3056 128.353 38.1856 128.12 39.1989 128.12C40.1589 128.12 41.0056 128.347 41.7389 128.8C42.4722 129.24 43.0389 129.88 43.4389 130.72C43.8522 131.56 44.0589 132.573 44.0589 133.76V134.3H36.4189C36.4722 135.34 36.7456 136.12 37.2389 136.64C37.7456 137.16 38.4256 137.42 39.2789 137.42C39.9056 137.42 40.4256 137.273 40.8389 136.98C41.2522 136.687 41.5389 136.293 41.6989 135.8L43.8989 135.94C43.6189 136.927 43.0656 137.727 42.2389 138.34C41.4256 138.94 40.4322 139.24 39.2589 139.24ZM36.4189 132.7H41.8189C41.7522 131.753 41.4789 131.053 40.9989 130.6C40.5322 130.147 39.9322 129.92 39.1989 129.92C38.4389 129.92 37.8122 130.16 37.3189 130.64C36.8389 131.107 36.5389 131.793 36.4189 132.7ZM49.987 139.24C49.0804 139.24 48.287 139.013 47.607 138.56C46.9404 138.107 46.427 137.467 46.067 136.64C45.7204 135.8 45.547 134.813 45.547 133.68C45.547 132.547 45.727 131.567 46.087 130.74C46.447 129.9 46.9604 129.253 47.627 128.8C48.2937 128.347 49.0804 128.12 49.987 128.12C50.7204 128.12 51.3737 128.273 51.947 128.58C52.5204 128.887 52.9537 129.313 53.247 129.86V124.8H55.367V139H53.387L53.327 137.4C53.0337 137.973 52.587 138.427 51.987 138.76C51.4004 139.08 50.7337 139.24 49.987 139.24ZM50.547 137.4C51.1204 137.4 51.607 137.253 52.007 136.96C52.407 136.667 52.7137 136.24 52.927 135.68C53.1404 135.12 53.247 134.453 53.247 133.68C53.247 132.88 53.1404 132.207 52.927 131.66C52.7137 131.1 52.407 130.68 52.007 130.4C51.607 130.107 51.1204 129.96 50.547 129.96C49.6937 129.96 49.0137 130.293 48.507 130.96C48.0004 131.613 47.747 132.52 47.747 133.68C47.747 134.827 48.0004 135.733 48.507 136.4C49.0137 137.067 49.6937 137.4 50.547 137.4ZM62.9183 139C62.9183 137.933 63.0783 136.98 63.3983 136.14C63.7183 135.3 64.2649 134.52 65.0383 133.8C65.8116 133.08 66.8783 132.36 68.2383 131.64C68.8916 131.307 69.4116 131 69.7983 130.72C70.1983 130.427 70.4849 130.127 70.6583 129.82C70.8316 129.513 70.9183 129.14 70.9183 128.7C70.9183 128.247 70.8183 127.86 70.6183 127.54C70.4316 127.207 70.1516 126.947 69.7783 126.76C69.4049 126.56 68.9316 126.46 68.3583 126.46C67.4516 126.46 66.7316 126.707 66.1983 127.2C65.6783 127.68 65.3516 128.373 65.2183 129.28L62.9783 129.14C63.1383 127.713 63.6783 126.58 64.5983 125.74C65.5316 124.9 66.7849 124.48 68.3583 124.48C69.3716 124.48 70.2316 124.66 70.9383 125.02C71.6583 125.367 72.2049 125.853 72.5783 126.48C72.9649 127.107 73.1583 127.833 73.1583 128.66C73.1583 129.38 73.0383 130 72.7983 130.52C72.5583 131.04 72.1583 131.527 71.5983 131.98C71.0383 132.42 70.2783 132.893 69.3183 133.4C68.0916 134.053 67.1649 134.7 66.5383 135.34C65.9116 135.967 65.5783 136.527 65.5383 137.02H73.1583V139H62.9183ZM80.7159 139.32C79.6626 139.32 78.7626 139.153 78.0159 138.82C77.2693 138.473 76.6826 137.993 76.2559 137.38C75.8293 136.767 75.5826 136.06 75.5159 135.26L77.7359 135.12C77.8426 135.867 78.1559 136.427 78.6759 136.8C79.2093 137.16 79.8893 137.34 80.7159 137.34C81.6493 137.34 82.3826 137.08 82.9159 136.56C83.4626 136.04 83.7359 135.313 83.7359 134.38C83.7359 133.767 83.6093 133.24 83.3559 132.8C83.1159 132.347 82.7693 132 82.3159 131.76C81.8626 131.507 81.3226 131.38 80.6959 131.38C80.0693 131.38 79.5093 131.513 79.0159 131.78C78.5226 132.047 78.1693 132.413 77.9559 132.88H75.7159L76.6759 124.8H84.9959V126.78H78.5959L77.9959 131.64L77.6559 131.34C77.8826 130.94 78.1693 130.613 78.5159 130.36C78.8626 130.093 79.2626 129.893 79.7159 129.76C80.1826 129.613 80.6759 129.54 81.1959 129.54C82.1559 129.54 82.9893 129.747 83.6959 130.16C84.4159 130.573 84.9759 131.147 85.3759 131.88C85.7759 132.613 85.9759 133.447 85.9759 134.38C85.9759 135.353 85.7559 136.213 85.3159 136.96C84.8759 137.707 84.2626 138.287 83.4759 138.7C82.6893 139.113 81.7693 139.32 80.7159 139.32ZM93.8884 139.32C92.7151 139.32 91.6951 139.02 90.8284 138.42C89.9618 137.82 89.2951 136.967 88.8284 135.86C88.3618 134.753 88.1284 133.44 88.1284 131.92C88.1284 130.4 88.3618 129.087 88.8284 127.98C89.3084 126.86 89.9751 126 90.8284 125.4C91.6951 124.787 92.7151 124.48 93.8884 124.48C95.0751 124.48 96.0951 124.787 96.9484 125.4C97.8151 126 98.4818 126.853 98.9484 127.96C99.4284 129.067 99.6684 130.387 99.6684 131.92C99.6684 133.44 99.4351 134.753 98.9684 135.86C98.5018 136.967 97.8351 137.82 96.9684 138.42C96.1018 139.02 95.0751 139.32 93.8884 139.32ZM93.8884 137.34C95.0218 137.34 95.8951 136.873 96.5084 135.94C97.1218 135.007 97.4284 133.667 97.4284 131.92C97.4284 130.747 97.2884 129.753 97.0084 128.94C96.7418 128.127 96.3418 127.513 95.8084 127.1C95.2884 126.673 94.6484 126.46 93.8884 126.46C93.1418 126.46 92.5018 126.673 91.9684 127.1C91.4484 127.513 91.0484 128.127 90.7684 128.94C90.5018 129.753 90.3684 130.747 90.3684 131.92C90.3684 133.667 90.6751 135.007 91.2884 135.94C91.9018 136.873 92.7684 137.34 93.8884 137.34ZM112.348 139.32C111.214 139.32 110.228 139.113 109.388 138.7C108.561 138.287 107.908 137.713 107.428 136.98C106.948 136.247 106.668 135.393 106.588 134.42L108.808 134.28C108.901 134.947 109.094 135.513 109.388 135.98C109.681 136.433 110.074 136.78 110.568 137.02C111.074 137.247 111.681 137.36 112.388 137.36C113.001 137.36 113.521 137.287 113.948 137.14C114.388 136.98 114.721 136.747 114.948 136.44C115.174 136.133 115.288 135.76 115.288 135.32C115.288 134.92 115.188 134.567 114.988 134.26C114.801 133.94 114.434 133.653 113.888 133.4C113.354 133.133 112.568 132.873 111.528 132.62C110.394 132.34 109.488 132.033 108.808 131.7C108.128 131.367 107.634 130.953 107.328 130.46C107.034 129.953 106.888 129.333 106.888 128.6C106.888 127.787 107.081 127.073 107.468 126.46C107.868 125.833 108.434 125.347 109.168 125C109.901 124.653 110.781 124.48 111.808 124.48C112.888 124.48 113.808 124.68 114.568 125.08C115.341 125.48 115.948 126.027 116.388 126.72C116.841 127.413 117.121 128.207 117.228 129.1L115.008 129.22C114.941 128.673 114.774 128.193 114.508 127.78C114.241 127.353 113.881 127.027 113.428 126.8C112.974 126.56 112.421 126.44 111.768 126.44C110.941 126.44 110.288 126.633 109.808 127.02C109.341 127.393 109.108 127.893 109.108 128.52C109.108 128.92 109.201 129.26 109.388 129.54C109.588 129.807 109.934 130.04 110.428 130.24C110.934 130.44 111.648 130.653 112.568 130.88C113.794 131.16 114.768 131.507 115.488 131.92C116.221 132.32 116.741 132.793 117.048 133.34C117.354 133.887 117.508 134.507 117.508 135.2C117.508 136.04 117.288 136.773 116.848 137.4C116.421 138.013 115.821 138.487 115.048 138.82C114.274 139.153 113.374 139.32 112.348 139.32ZM123.594 139.24C122.527 139.24 121.674 138.887 121.034 138.18C120.407 137.46 120.094 136.467 120.094 135.2V128.36H122.214V134.66C122.214 135.62 122.38 136.327 122.714 136.78C123.047 137.233 123.554 137.46 124.234 137.46C125.007 137.46 125.607 137.213 126.034 136.72C126.474 136.213 126.694 135.507 126.694 134.6V128.36H128.814V139H126.834L126.794 136.22L127.094 136.34C126.907 137.273 126.514 137.993 125.914 138.5C125.314 138.993 124.54 139.24 123.594 139.24ZM131.813 139V128.36H133.753L133.833 131.18L133.653 131.12C133.799 130.16 134.093 129.46 134.533 129.02C134.986 128.58 135.593 128.36 136.353 128.36H137.373V130.26H136.353C135.819 130.26 135.373 130.347 135.013 130.52C134.653 130.693 134.379 130.96 134.193 131.32C134.019 131.68 133.933 132.147 133.933 132.72V139H131.813ZM142.015 139L138.135 128.36H140.395L143.295 136.84L146.195 128.36H148.475L144.575 139H142.015ZM154.22 139.24C153.18 139.24 152.28 139.013 151.52 138.56C150.773 138.107 150.193 137.46 149.78 136.62C149.38 135.78 149.18 134.8 149.18 133.68C149.18 132.56 149.38 131.587 149.78 130.76C150.193 129.92 150.773 129.273 151.52 128.82C152.267 128.353 153.147 128.12 154.16 128.12C155.12 128.12 155.967 128.347 156.7 128.8C157.433 129.24 158 129.88 158.4 130.72C158.813 131.56 159.02 132.573 159.02 133.76V134.3H151.38C151.433 135.34 151.707 136.12 152.2 136.64C152.707 137.16 153.387 137.42 154.24 137.42C154.867 137.42 155.387 137.273 155.8 136.98C156.213 136.687 156.5 136.293 156.66 135.8L158.86 135.94C158.58 136.927 158.027 137.727 157.2 138.34C156.387 138.94 155.393 139.24 154.22 139.24ZM151.38 132.7H156.78C156.713 131.753 156.44 131.053 155.96 130.6C155.493 130.147 154.893 129.92 154.16 129.92C153.4 129.92 152.773 130.16 152.28 130.64C151.8 131.107 151.5 131.793 151.38 132.7ZM161.436 142V140.26H162.736C163.096 140.26 163.363 140.207 163.536 140.1C163.709 139.993 163.843 139.813 163.936 139.56L164.276 138.68H163.616L159.776 128.36H162.016L164.936 136.72L167.716 128.36H169.976L165.736 140.24C165.523 140.853 165.203 141.3 164.776 141.58C164.363 141.86 163.783 142 163.036 142H161.436ZM176.974 139V124.8H182.634C183.647 124.8 184.521 124.973 185.254 125.32C185.987 125.667 186.554 126.16 186.954 126.8C187.354 127.44 187.554 128.2 187.554 129.08C187.554 129.72 187.407 130.293 187.114 130.8C186.834 131.307 186.454 131.713 185.974 132.02C185.507 132.313 185.007 132.48 184.474 132.52L184.374 132.34C185.267 132.34 185.961 132.547 186.454 132.96C186.947 133.36 187.234 133.993 187.314 134.86L187.694 139H185.514L185.174 135.14C185.134 134.567 184.941 134.147 184.594 133.88C184.247 133.6 183.681 133.46 182.894 133.46H179.134V139H176.974ZM179.134 131.48H182.674C183.487 131.48 184.127 131.28 184.594 130.88C185.074 130.467 185.314 129.887 185.314 129.14C185.314 128.38 185.074 127.8 184.594 127.4C184.114 126.987 183.414 126.78 182.494 126.78H179.134V131.48ZM194.454 139.24C193.414 139.24 192.514 139.013 191.754 138.56C191.008 138.107 190.428 137.46 190.014 136.62C189.614 135.78 189.414 134.8 189.414 133.68C189.414 132.56 189.614 131.587 190.014 130.76C190.428 129.92 191.008 129.273 191.754 128.82C192.501 128.353 193.381 128.12 194.394 128.12C195.354 128.12 196.201 128.347 196.934 128.8C197.668 129.24 198.234 129.88 198.634 130.72C199.048 131.56 199.254 132.573 199.254 133.76V134.3H191.614C191.668 135.34 191.941 136.12 192.434 136.64C192.941 137.16 193.621 137.42 194.474 137.42C195.101 137.42 195.621 137.273 196.034 136.98C196.448 136.687 196.734 136.293 196.894 135.8L199.094 135.94C198.814 136.927 198.261 137.727 197.434 138.34C196.621 138.94 195.628 139.24 194.454 139.24ZM191.614 132.7H197.014C196.948 131.753 196.674 131.053 196.194 130.6C195.728 130.147 195.128 129.92 194.394 129.92C193.634 129.92 193.008 130.16 192.514 130.64C192.034 131.107 191.734 131.793 191.614 132.7ZM205.502 139.24C204.502 139.24 203.656 139.087 202.962 138.78C202.282 138.473 201.756 138.053 201.382 137.52C201.009 136.973 200.796 136.347 200.742 135.64L202.922 135.54C203.029 136.127 203.282 136.593 203.682 136.94C204.082 137.287 204.689 137.46 205.502 137.46C206.169 137.46 206.696 137.353 207.082 137.14C207.469 136.927 207.662 136.587 207.662 136.12C207.662 135.867 207.596 135.653 207.462 135.48C207.342 135.293 207.102 135.14 206.742 135.02C206.382 134.887 205.849 134.76 205.142 134.64C204.089 134.44 203.262 134.207 202.662 133.94C202.062 133.673 201.636 133.333 201.382 132.92C201.129 132.507 201.002 132.007 201.002 131.42C201.002 130.447 201.362 129.653 202.082 129.04C202.816 128.427 203.869 128.12 205.242 128.12C206.162 128.12 206.936 128.28 207.562 128.6C208.189 128.907 208.676 129.327 209.022 129.86C209.382 130.38 209.609 130.967 209.702 131.62L207.522 131.74C207.456 131.367 207.322 131.047 207.122 130.78C206.936 130.5 206.682 130.287 206.362 130.14C206.042 129.98 205.662 129.9 205.222 129.9C204.542 129.9 204.036 130.033 203.702 130.3C203.369 130.567 203.202 130.913 203.202 131.34C203.202 131.66 203.276 131.92 203.422 132.12C203.582 132.32 203.836 132.487 204.182 132.62C204.529 132.74 204.989 132.847 205.562 132.94C206.669 133.127 207.536 133.36 208.162 133.64C208.789 133.907 209.229 134.24 209.482 134.64C209.736 135.04 209.862 135.527 209.862 136.1C209.862 136.767 209.676 137.333 209.302 137.8C208.929 138.267 208.416 138.627 207.762 138.88C207.109 139.12 206.356 139.24 205.502 139.24ZM212.008 142V128.36H214.008L214.068 130.64L213.828 130.52C214.094 129.733 214.534 129.14 215.148 128.74C215.761 128.327 216.468 128.12 217.268 128.12C218.308 128.12 219.161 128.38 219.828 128.9C220.508 129.407 221.008 130.08 221.328 130.92C221.661 131.76 221.828 132.68 221.828 133.68C221.828 134.68 221.661 135.6 221.328 136.44C221.008 137.28 220.508 137.96 219.828 138.48C219.161 138.987 218.308 139.24 217.268 139.24C216.734 139.24 216.234 139.147 215.768 138.96C215.301 138.773 214.901 138.513 214.568 138.18C214.248 137.833 214.021 137.427 213.888 136.96L214.128 136.72V142H212.008ZM216.888 137.4C217.741 137.4 218.408 137.073 218.888 136.42C219.381 135.767 219.628 134.853 219.628 133.68C219.628 132.507 219.381 131.593 218.888 130.94C218.408 130.287 217.741 129.96 216.888 129.96C216.328 129.96 215.841 130.1 215.428 130.38C215.014 130.647 214.694 131.06 214.468 131.62C214.241 132.18 214.128 132.867 214.128 133.68C214.128 134.493 214.234 135.18 214.448 135.74C214.674 136.3 214.994 136.72 215.408 137C215.834 137.267 216.328 137.4 216.888 137.4ZM228.36 139.24C227.347 139.24 226.46 139.013 225.7 138.56C224.94 138.107 224.354 137.46 223.94 136.62C223.527 135.78 223.32 134.8 223.32 133.68C223.32 132.547 223.527 131.567 223.94 130.74C224.354 129.913 224.94 129.273 225.7 128.82C226.46 128.353 227.347 128.12 228.36 128.12C229.374 128.12 230.26 128.353 231.02 128.82C231.78 129.273 232.367 129.913 232.78 130.74C233.194 131.567 233.4 132.547 233.4 133.68C233.4 134.8 233.194 135.78 232.78 136.62C232.367 137.46 231.78 138.107 231.02 138.56C230.26 139.013 229.374 139.24 228.36 139.24ZM228.36 137.4C229.267 137.4 229.967 137.073 230.46 136.42C230.954 135.753 231.2 134.84 231.2 133.68C231.2 132.52 230.954 131.613 230.46 130.96C229.967 130.293 229.267 129.96 228.36 129.96C227.467 129.96 226.767 130.293 226.26 130.96C225.767 131.613 225.52 132.52 225.52 133.68C225.52 134.84 225.767 135.753 226.26 136.42C226.767 137.073 227.467 137.4 228.36 137.4ZM235.543 139V128.36H237.483L237.563 131.2L237.303 131.06C237.423 130.367 237.65 129.807 237.983 129.38C238.316 128.953 238.723 128.64 239.203 128.44C239.683 128.227 240.203 128.12 240.763 128.12C241.563 128.12 242.223 128.3 242.743 128.66C243.276 129.007 243.676 129.487 243.943 130.1C244.223 130.7 244.363 131.387 244.363 132.16V139H242.243V132.8C242.243 132.173 242.176 131.647 242.043 131.22C241.91 130.793 241.69 130.467 241.383 130.24C241.076 130.013 240.676 129.9 240.183 129.9C239.436 129.9 238.83 130.147 238.363 130.64C237.896 131.133 237.663 131.853 237.663 132.8V139H235.543ZM251.225 139.24C250.225 139.24 249.378 139.087 248.685 138.78C248.005 138.473 247.478 138.053 247.105 137.52C246.732 136.973 246.518 136.347 246.465 135.64L248.645 135.54C248.752 136.127 249.005 136.593 249.405 136.94C249.805 137.287 250.412 137.46 251.225 137.46C251.892 137.46 252.418 137.353 252.805 137.14C253.192 136.927 253.385 136.587 253.385 136.12C253.385 135.867 253.318 135.653 253.185 135.48C253.065 135.293 252.825 135.14 252.465 135.02C252.105 134.887 251.572 134.76 250.865 134.64C249.812 134.44 248.985 134.207 248.385 133.94C247.785 133.673 247.358 133.333 247.105 132.92C246.852 132.507 246.725 132.007 246.725 131.42C246.725 130.447 247.085 129.653 247.805 129.04C248.538 128.427 249.592 128.12 250.965 128.12C251.885 128.12 252.658 128.28 253.285 128.6C253.912 128.907 254.398 129.327 254.745 129.86C255.105 130.38 255.332 130.967 255.425 131.62L253.245 131.74C253.178 131.367 253.045 131.047 252.845 130.78C252.658 130.5 252.405 130.287 252.085 130.14C251.765 129.98 251.385 129.9 250.945 129.9C250.265 129.9 249.758 130.033 249.425 130.3C249.092 130.567 248.925 130.913 248.925 131.34C248.925 131.66 248.998 131.92 249.145 132.12C249.305 132.32 249.558 132.487 249.905 132.62C250.252 132.74 250.712 132.847 251.285 132.94C252.392 133.127 253.258 133.36 253.885 133.64C254.512 133.907 254.952 134.24 255.205 134.64C255.458 135.04 255.585 135.527 255.585 136.1C255.585 136.767 255.398 137.333 255.025 137.8C254.652 138.267 254.138 138.627 253.485 138.88C252.832 139.12 252.078 139.24 251.225 139.24ZM262.11 139.24C261.07 139.24 260.17 139.013 259.41 138.56C258.664 138.107 258.084 137.46 257.67 136.62C257.27 135.78 257.07 134.8 257.07 133.68C257.07 132.56 257.27 131.587 257.67 130.76C258.084 129.92 258.664 129.273 259.41 128.82C260.157 128.353 261.037 128.12 262.05 128.12C263.01 128.12 263.857 128.347 264.59 128.8C265.324 129.24 265.89 129.88 266.29 130.72C266.704 131.56 266.91 132.573 266.91 133.76V134.3H259.27C259.324 135.34 259.597 136.12 260.09 136.64C260.597 137.16 261.277 137.42 262.13 137.42C262.757 137.42 263.277 137.273 263.69 136.98C264.104 136.687 264.39 136.293 264.55 135.8L266.75 135.94C266.47 136.927 265.917 137.727 265.09 138.34C264.277 138.94 263.284 139.24 262.11 139.24ZM259.27 132.7H264.67C264.604 131.753 264.33 131.053 263.85 130.6C263.384 130.147 262.784 129.92 262.05 129.92C261.29 129.92 260.664 130.16 260.17 130.64C259.69 131.107 259.39 131.793 259.27 132.7Z" fill="#181D27"/>
<rect y="159.583" width="442" height="5" rx="2.5" fill="#EAECF5"/>
<rect y="159.583" width="128" height="5" rx="2.5" fill="#444CE7"/>
<path d="M36 164.583L36 171.083C36 171.911 35.3284 172.583 34.5 172.583C33.6716 172.583 33 171.911 33 171.083L33 164.583L36 164.583Z" fill="#444CE7"/>
<path d="M25.4991 192.25C25.4991 191.45 25.6217 190.73 25.8671 190.09C26.1231 189.439 26.5657 188.821 27.1951 188.234C27.8351 187.647 28.7204 187.055 29.8511 186.458C30.3737 186.181 30.7951 185.925 31.1151 185.69C31.4351 185.455 31.6697 185.205 31.8191 184.938C31.9684 184.671 32.0431 184.346 32.0431 183.962C32.0431 183.567 31.9577 183.226 31.7871 182.938C31.6164 182.639 31.3604 182.405 31.0191 182.234C30.6884 182.063 30.2724 181.978 29.7711 181.978C28.9711 181.978 28.3364 182.186 27.8671 182.602C27.4084 183.018 27.1204 183.61 27.0031 184.378L25.5631 184.282C25.6911 183.173 26.1177 182.287 26.8431 181.626C27.5684 180.965 28.5444 180.634 29.7711 180.634C30.5497 180.634 31.2164 180.773 31.7711 181.05C32.3257 181.327 32.7471 181.717 33.0351 182.218C33.3337 182.709 33.4831 183.279 33.4831 183.93C33.4831 184.506 33.3871 185.007 33.1951 185.434C33.0031 185.85 32.6777 186.239 32.2191 186.602C31.7711 186.965 31.1524 187.354 30.3631 187.77C29.3391 188.314 28.5604 188.863 28.0271 189.418C27.5044 189.973 27.2271 190.469 27.1951 190.906H33.4831V192.25H25.4991ZM39.4373 192.506C38.6373 192.506 37.944 192.373 37.3573 192.106C36.7813 191.839 36.3226 191.466 35.9813 190.986C35.6506 190.506 35.4586 189.951 35.4053 189.322L36.8453 189.226C36.9306 189.866 37.2026 190.351 37.6613 190.682C38.1306 191.002 38.7226 191.162 39.4373 191.162C40.2373 191.162 40.872 190.938 41.3413 190.49C41.8106 190.031 42.0453 189.402 42.0453 188.602C42.0453 188.069 41.9386 187.61 41.7253 187.226C41.5226 186.831 41.224 186.527 40.8293 186.314C40.4346 186.101 39.96 185.994 39.4053 185.994C38.8826 185.994 38.408 186.106 37.9813 186.33C37.5546 186.554 37.2506 186.869 37.0693 187.274H35.5973L36.3493 180.89H42.7173V182.234H37.6133L37.1013 186.426L36.8453 186.17C37.016 185.839 37.24 185.567 37.5173 185.354C37.8053 185.13 38.1306 184.965 38.4933 184.858C38.8666 184.741 39.256 184.682 39.6613 184.682C40.4186 184.682 41.0853 184.853 41.6613 185.194C42.2373 185.525 42.6853 185.989 43.0053 186.586C43.3253 187.173 43.4853 187.845 43.4853 188.602C43.4853 189.359 43.3146 190.037 42.9733 190.634C42.632 191.221 42.1573 191.679 41.5493 192.01C40.9413 192.341 40.2373 192.506 39.4373 192.506Z" fill="#535862"/>
<path d="M129.25 164.583L129.25 171.083C129.25 171.911 128.578 172.583 127.75 172.583C126.922 172.583 126.25 171.911 126.25 171.083L126.25 164.583L129.25 164.583Z" fill="#444CE7"/>
<path d="M123.43 192.506C122.63 192.506 121.936 192.373 121.35 192.106C120.774 191.839 120.315 191.466 119.974 190.986C119.643 190.506 119.451 189.951 119.398 189.322L120.838 189.226C120.923 189.866 121.195 190.351 121.654 190.682C122.123 191.002 122.715 191.162 123.43 191.162C124.23 191.162 124.864 190.938 125.334 190.49C125.803 190.031 126.038 189.402 126.038 188.602C126.038 188.069 125.931 187.61 125.718 187.226C125.515 186.831 125.216 186.527 124.822 186.314C124.427 186.101 123.952 185.994 123.398 185.994C122.875 185.994 122.4 186.106 121.974 186.33C121.547 186.554 121.243 186.869 121.062 187.274H119.59L120.342 180.89H126.71V182.234H121.606L121.094 186.426L120.838 186.17C121.008 185.839 121.232 185.567 121.51 185.354C121.798 185.13 122.123 184.965 122.486 184.858C122.859 184.741 123.248 184.682 123.654 184.682C124.411 184.682 125.078 184.853 125.654 185.194C126.23 185.525 126.678 185.989 126.998 186.586C127.318 187.173 127.477 187.845 127.477 188.602C127.477 189.359 127.307 190.037 126.966 190.634C126.624 191.221 126.15 191.679 125.542 192.01C124.934 192.341 124.23 192.506 123.43 192.506ZM133.749 192.506C132.832 192.506 132.037 192.266 131.365 191.786C130.693 191.306 130.17 190.623 129.797 189.738C129.434 188.853 129.253 187.802 129.253 186.586C129.253 185.37 129.434 184.319 129.797 183.434C130.17 182.538 130.693 181.85 131.365 181.37C132.037 180.879 132.832 180.634 133.749 180.634C134.677 180.634 135.477 180.879 136.149 181.37C136.821 181.85 137.338 182.533 137.701 183.418C138.074 184.303 138.261 185.359 138.261 186.586C138.261 187.802 138.074 188.853 137.701 189.738C137.338 190.623 136.821 191.306 136.149 191.786C135.477 192.266 134.677 192.506 133.749 192.506ZM133.749 191.162C134.73 191.162 135.488 190.767 136.021 189.978C136.554 189.178 136.821 188.047 136.821 186.586C136.821 185.605 136.698 184.773 136.453 184.09C136.218 183.397 135.872 182.874 135.413 182.522C134.965 182.159 134.41 181.978 133.749 181.978C133.098 181.978 132.544 182.159 132.085 182.522C131.637 182.874 131.29 183.397 131.045 184.09C130.81 184.773 130.693 185.605 130.693 186.586C130.693 188.047 130.96 189.178 131.493 189.978C132.026 190.767 132.778 191.162 133.749 191.162Z" fill="#444CE7"/>
<circle cx="127.75" cy="161.583" r="5" fill="white" stroke="#444CE7" stroke-width="2"/>
<path d="M222.5 164.583L222.5 171.083C222.5 171.911 221.828 172.583 221 172.583C220.172 172.583 219.5 171.911 219.5 171.083L219.5 164.583L222.5 164.583Z" fill="#EAECF5"/>
<path d="M210.406 192.253V183.837H208.038V182.653H208.998C209.414 182.653 209.745 182.6 209.99 182.493C210.246 182.386 210.428 182.205 210.534 181.949C210.641 181.693 210.694 181.341 210.694 180.893H211.782V192.253H210.406ZM218.679 192.509C217.761 192.509 216.967 192.269 216.295 191.789C215.623 191.309 215.1 190.626 214.727 189.741C214.364 188.856 214.183 187.805 214.183 186.589C214.183 185.373 214.364 184.322 214.727 183.437C215.1 182.541 215.623 181.853 216.295 181.373C216.967 180.882 217.761 180.637 218.679 180.637C219.607 180.637 220.407 180.882 221.079 181.373C221.751 181.853 222.268 182.536 222.631 183.421C223.004 184.306 223.191 185.362 223.191 186.589C223.191 187.805 223.004 188.856 222.631 189.741C222.268 190.626 221.751 191.309 221.079 191.789C220.407 192.269 219.607 192.509 218.679 192.509ZM218.679 191.165C219.66 191.165 220.417 190.77 220.951 189.981C221.484 189.181 221.751 188.05 221.751 186.589C221.751 185.608 221.628 184.776 221.383 184.093C221.148 183.4 220.801 182.877 220.343 182.525C219.895 182.162 219.34 181.981 218.679 181.981C218.028 181.981 217.473 182.162 217.015 182.525C216.567 182.877 216.22 183.4 215.975 184.093C215.74 184.776 215.623 185.608 215.623 186.589C215.623 188.05 215.889 189.181 216.423 189.981C216.956 190.77 217.708 191.165 218.679 191.165ZM229.288 192.509C228.371 192.509 227.576 192.269 226.904 191.789C226.232 191.309 225.71 190.626 225.336 189.741C224.974 188.856 224.792 187.805 224.792 186.589C224.792 185.373 224.974 184.322 225.336 183.437C225.71 182.541 226.232 181.853 226.904 181.373C227.576 180.882 228.371 180.637 229.288 180.637C230.216 180.637 231.016 180.882 231.688 181.373C232.36 181.853 232.878 182.536 233.24 183.421C233.614 184.306 233.8 185.362 233.8 186.589C233.8 187.805 233.614 188.856 233.24 189.741C232.878 190.626 232.36 191.309 231.688 191.789C231.016 192.269 230.216 192.509 229.288 192.509ZM229.288 191.165C230.27 191.165 231.027 190.77 231.56 189.981C232.094 189.181 232.36 188.05 232.36 186.589C232.36 185.608 232.238 184.776 231.992 184.093C231.758 183.4 231.411 182.877 230.952 182.525C230.504 182.162 229.95 181.981 229.288 181.981C228.638 181.981 228.083 182.162 227.624 182.525C227.176 182.877 226.83 183.4 226.584 184.093C226.35 184.776 226.232 185.608 226.232 186.589C226.232 188.05 226.499 189.181 227.032 189.981C227.566 190.77 228.318 191.165 229.288 191.165Z" fill="#535862"/>
<path d="M315.75 164.583L315.75 171.083C315.75 171.911 315.078 172.583 314.25 172.583C313.422 172.583 312.75 171.911 312.75 171.083L312.75 164.583L315.75 164.583Z" fill="#EAECF5"/>
<path d="M300.694 192.253C300.694 191.453 300.817 190.733 301.062 190.093C301.318 189.442 301.761 188.824 302.39 188.237C303.03 187.65 303.916 187.058 305.046 186.461C305.569 186.184 305.99 185.928 306.31 185.693C306.63 185.458 306.865 185.208 307.014 184.941C307.164 184.674 307.238 184.349 307.238 183.965C307.238 183.57 307.153 183.229 306.982 182.941C306.812 182.642 306.556 182.408 306.214 182.237C305.884 182.066 305.468 181.981 304.966 181.981C304.166 181.981 303.532 182.189 303.062 182.605C302.604 183.021 302.316 183.613 302.198 184.381L300.758 184.285C300.886 183.176 301.313 182.29 302.038 181.629C302.764 180.968 303.74 180.637 304.966 180.637C305.745 180.637 306.412 180.776 306.966 181.053C307.521 181.33 307.942 181.72 308.23 182.221C308.529 182.712 308.678 183.282 308.678 183.933C308.678 184.509 308.582 185.01 308.39 185.437C308.198 185.853 307.873 186.242 307.414 186.605C306.966 186.968 306.348 187.357 305.558 187.773C304.534 188.317 303.756 188.866 303.222 189.421C302.7 189.976 302.422 190.472 302.39 190.909H308.678V192.253H300.694ZM314.633 192.509C313.833 192.509 313.139 192.376 312.553 192.109C311.977 191.842 311.518 191.469 311.177 190.989C310.846 190.509 310.654 189.954 310.601 189.325L312.041 189.229C312.126 189.869 312.398 190.354 312.857 190.685C313.326 191.005 313.918 191.165 314.633 191.165C315.433 191.165 316.067 190.941 316.537 190.493C317.006 190.034 317.241 189.405 317.241 188.605C317.241 188.072 317.134 187.613 316.921 187.229C316.718 186.834 316.419 186.53 316.025 186.317C315.63 186.104 315.155 185.997 314.601 185.997C314.078 185.997 313.603 186.109 313.177 186.333C312.75 186.557 312.446 186.872 312.265 187.277H310.793L311.545 180.893H317.913V182.237H312.809L312.297 186.429L312.041 186.173C312.211 185.842 312.435 185.57 312.713 185.357C313.001 185.133 313.326 184.968 313.689 184.861C314.062 184.744 314.451 184.685 314.857 184.685C315.614 184.685 316.281 184.856 316.857 185.197C317.433 185.528 317.881 185.992 318.201 186.589C318.521 187.176 318.681 187.848 318.681 188.605C318.681 189.362 318.51 190.04 318.169 190.637C317.827 191.224 317.353 191.682 316.745 192.013C316.137 192.344 315.433 192.509 314.633 192.509ZM324.952 192.509C324.035 192.509 323.24 192.269 322.568 191.789C321.896 191.309 321.374 190.626 321 189.741C320.638 188.856 320.456 187.805 320.456 186.589C320.456 185.373 320.638 184.322 321 183.437C321.374 182.541 321.896 181.853 322.568 181.373C323.24 180.882 324.035 180.637 324.952 180.637C325.88 180.637 326.68 180.882 327.352 181.373C328.024 181.853 328.542 182.536 328.904 183.421C329.278 184.306 329.464 185.362 329.464 186.589C329.464 187.805 329.278 188.856 328.904 189.741C328.542 190.626 328.024 191.309 327.352 191.789C326.68 192.269 325.88 192.509 324.952 192.509ZM324.952 191.165C325.934 191.165 326.691 190.77 327.224 189.981C327.758 189.181 328.024 188.05 328.024 186.589C328.024 185.608 327.902 184.776 327.656 184.093C327.422 183.4 327.075 182.877 326.616 182.525C326.168 182.162 325.614 181.981 324.952 181.981C324.302 181.981 323.747 182.162 323.288 182.525C322.84 182.877 322.494 183.4 322.248 184.093C322.014 184.776 321.896 185.608 321.896 186.589C321.896 188.05 322.163 189.181 322.696 189.981C323.23 190.77 323.982 191.165 324.952 191.165Z" fill="#535862"/>
<path d="M409 164.583L409 171.083C409 171.911 408.328 172.583 407.5 172.583C406.672 172.583 406 171.911 406 171.083L406 164.583L409 164.583Z" fill="#EAECF5"/>
<path d="M387.973 191.357V183.709H389.221V191.357H387.973ZM384.773 188.157V186.909H392.421V188.157H384.773ZM396.063 192.253V183.837H393.695V182.653H394.655C395.071 182.653 395.401 182.6 395.647 182.493C395.903 182.386 396.084 182.205 396.191 181.949C396.297 181.693 396.351 181.341 396.351 180.893H397.439V192.253H396.063ZM404.335 192.509C403.418 192.509 402.623 192.269 401.951 191.789C401.279 191.309 400.756 190.626 400.383 189.741C400.02 188.856 399.839 187.805 399.839 186.589C399.839 185.373 400.02 184.322 400.383 183.437C400.756 182.541 401.279 181.853 401.951 181.373C402.623 180.882 403.418 180.637 404.335 180.637C405.263 180.637 406.063 180.882 406.735 181.373C407.407 181.853 407.924 182.536 408.287 183.421C408.66 184.306 408.847 185.362 408.847 186.589C408.847 187.805 408.66 188.856 408.287 189.741C407.924 190.626 407.407 191.309 406.735 191.789C406.063 192.269 405.263 192.509 404.335 192.509ZM404.335 191.165C405.316 191.165 406.074 190.77 406.607 189.981C407.14 189.181 407.407 188.05 407.407 186.589C407.407 185.608 407.284 184.776 407.039 184.093C406.804 183.4 406.458 182.877 405.999 182.525C405.551 182.162 404.996 181.981 404.335 181.981C403.684 181.981 403.13 182.162 402.671 182.525C402.223 182.877 401.876 183.4 401.631 184.093C401.396 184.776 401.279 185.608 401.279 186.589C401.279 188.05 401.546 189.181 402.079 189.981C402.612 190.77 403.364 191.165 404.335 191.165ZM414.944 192.509C414.027 192.509 413.232 192.269 412.56 191.789C411.888 191.309 411.366 190.626 410.992 189.741C410.63 188.856 410.448 187.805 410.448 186.589C410.448 185.373 410.63 184.322 410.992 183.437C411.366 182.541 411.888 181.853 412.56 181.373C413.232 180.882 414.027 180.637 414.944 180.637C415.872 180.637 416.672 180.882 417.344 181.373C418.016 181.853 418.534 182.536 418.896 183.421C419.27 184.306 419.456 185.362 419.456 186.589C419.456 187.805 419.27 188.856 418.896 189.741C418.534 190.626 418.016 191.309 417.344 191.789C416.672 192.269 415.872 192.509 414.944 192.509ZM414.944 191.165C415.926 191.165 416.683 190.77 417.216 189.981C417.75 189.181 418.016 188.05 418.016 186.589C418.016 185.608 417.894 184.776 417.648 184.093C417.414 183.4 417.067 182.877 416.608 182.525C416.16 182.162 415.606 181.981 414.944 181.981C414.294 181.981 413.739 182.162 413.28 182.525C412.832 182.877 412.486 183.4 412.24 184.093C412.006 184.776 411.888 185.608 411.888 186.589C411.888 188.05 412.155 189.181 412.688 189.981C413.222 190.77 413.974 191.165 414.944 191.165ZM425.554 192.509C424.636 192.509 423.842 192.269 423.17 191.789C422.498 191.309 421.975 190.626 421.602 189.741C421.239 188.856 421.058 187.805 421.058 186.589C421.058 185.373 421.239 184.322 421.602 183.437C421.975 182.541 422.498 181.853 423.17 181.373C423.842 180.882 424.636 180.637 425.554 180.637C426.482 180.637 427.282 180.882 427.954 181.373C428.626 181.853 429.143 182.536 429.506 183.421C429.879 184.306 430.066 185.362 430.066 186.589C430.066 187.805 429.879 188.856 429.506 189.741C429.143 190.626 428.626 191.309 427.954 191.789C427.282 192.269 426.482 192.509 425.554 192.509ZM425.554 191.165C426.535 191.165 427.292 190.77 427.826 189.981C428.359 189.181 428.626 188.05 428.626 186.589C428.626 185.608 428.503 184.776 428.258 184.093C428.023 183.4 427.676 182.877 427.218 182.525C426.77 182.162 426.215 181.981 425.554 181.981C424.903 181.981 424.348 182.162 423.89 182.525C423.442 182.877 423.095 183.4 422.85 184.093C422.615 184.776 422.498 185.608 422.498 186.589C422.498 188.05 422.764 189.181 423.298 189.981C423.831 190.77 424.583 191.165 425.554 191.165Z" fill="#535862"/>
<path d="M1.72 139V124.8H3.88V139H1.72ZM11.9688 139V128.36H13.9088L13.9888 131.2L13.7288 131.06C13.8488 130.367 14.0754 129.807 14.4088 129.38C14.7421 128.953 15.1488 128.64 15.6288 128.44C16.1088 128.227 16.6288 128.12 17.1888 128.12C17.9888 128.12 18.6488 128.3 19.1688 128.66C19.7021 129.007 20.1021 129.487 20.3688 130.1C20.6488 130.7 20.7888 131.387 20.7888 132.16V139H18.6688V132.8C18.6688 132.173 18.6021 131.647 18.4688 131.22C18.3354 130.793 18.1154 130.467 17.8088 130.24C17.5021 130.013 17.1021 129.9 16.6088 129.9C15.8621 129.9 15.2554 130.147 14.7888 130.64C14.3221 131.133 14.0888 131.853 14.0888 132.8V139H11.9688ZM27.9308 139.24C26.8908 139.24 25.9908 139.013 25.2308 138.56C24.4841 138.107 23.9041 137.46 23.4908 136.62C23.0908 135.78 22.8908 134.8 22.8908 133.68C22.8908 132.56 23.0908 131.587 23.4908 130.76C23.9041 129.92 24.4841 129.273 25.2308 128.82C25.9774 128.353 26.8574 128.12 27.8708 128.12C28.8308 128.12 29.6774 128.347 30.4108 128.8C31.1441 129.24 31.7108 129.88 32.1108 130.72C32.5241 131.56 32.7308 132.573 32.7308 133.76V134.3H25.0908C25.1441 135.34 25.4174 136.12 25.9108 136.64C26.4174 137.16 27.0974 137.42 27.9508 137.42C28.5774 137.42 29.0974 137.273 29.5108 136.98C29.9241 136.687 30.2108 136.293 30.3708 135.8L32.5708 135.94C32.2908 136.927 31.7374 137.727 30.9108 138.34C30.0974 138.94 29.1041 139.24 27.9308 139.24ZM25.0908 132.7H30.4908C30.4241 131.753 30.1508 131.053 29.6708 130.6C29.2041 130.147 28.6041 129.92 27.8708 129.92C27.1108 129.92 26.4841 130.16 25.9908 130.64C25.5108 131.107 25.2108 131.793 25.0908 132.7ZM39.2589 139.24C38.2189 139.24 37.3189 139.013 36.5589 138.56C35.8122 138.107 35.2322 137.46 34.8189 136.62C34.4189 135.78 34.2189 134.8 34.2189 133.68C34.2189 132.56 34.4189 131.587 34.8189 130.76C35.2322 129.92 35.8122 129.273 36.5589 128.82C37.3056 128.353 38.1856 128.12 39.1989 128.12C40.1589 128.12 41.0056 128.347 41.7389 128.8C42.4722 129.24 43.0389 129.88 43.4389 130.72C43.8522 131.56 44.0589 132.573 44.0589 133.76V134.3H36.4189C36.4722 135.34 36.7456 136.12 37.2389 136.64C37.7456 137.16 38.4256 137.42 39.2789 137.42C39.9056 137.42 40.4256 137.273 40.8389 136.98C41.2522 136.687 41.5389 136.293 41.6989 135.8L43.8989 135.94C43.6189 136.927 43.0656 137.727 42.2389 138.34C41.4256 138.94 40.4322 139.24 39.2589 139.24ZM36.4189 132.7H41.8189C41.7522 131.753 41.4789 131.053 40.9989 130.6C40.5322 130.147 39.9322 129.92 39.1989 129.92C38.4389 129.92 37.8122 130.16 37.3189 130.64C36.8389 131.107 36.5389 131.793 36.4189 132.7ZM49.987 139.24C49.0804 139.24 48.287 139.013 47.607 138.56C46.9404 138.107 46.427 137.467 46.067 136.64C45.7204 135.8 45.547 134.813 45.547 133.68C45.547 132.547 45.727 131.567 46.087 130.74C46.447 129.9 46.9604 129.253 47.627 128.8C48.2937 128.347 49.0804 128.12 49.987 128.12C50.7204 128.12 51.3737 128.273 51.947 128.58C52.5204 128.887 52.9537 129.313 53.247 129.86V124.8H55.367V139H53.387L53.327 137.4C53.0337 137.973 52.587 138.427 51.987 138.76C51.4004 139.08 50.7337 139.24 49.987 139.24ZM50.547 137.4C51.1204 137.4 51.607 137.253 52.007 136.96C52.407 136.667 52.7137 136.24 52.927 135.68C53.1404 135.12 53.247 134.453 53.247 133.68C53.247 132.88 53.1404 132.207 52.927 131.66C52.7137 131.1 52.407 130.68 52.007 130.4C51.607 130.107 51.1204 129.96 50.547 129.96C49.6937 129.96 49.0137 130.293 48.507 130.96C48.0004 131.613 47.747 132.52 47.747 133.68C47.747 134.827 48.0004 135.733 48.507 136.4C49.0137 137.067 49.6937 137.4 50.547 137.4ZM62.9183 139C62.9183 137.933 63.0783 136.98 63.3983 136.14C63.7183 135.3 64.2649 134.52 65.0383 133.8C65.8116 133.08 66.8783 132.36 68.2383 131.64C68.8916 131.307 69.4116 131 69.7983 130.72C70.1983 130.427 70.4849 130.127 70.6583 129.82C70.8316 129.513 70.9183 129.14 70.9183 128.7C70.9183 128.247 70.8183 127.86 70.6183 127.54C70.4316 127.207 70.1516 126.947 69.7783 126.76C69.4049 126.56 68.9316 126.46 68.3583 126.46C67.4516 126.46 66.7316 126.707 66.1983 127.2C65.6783 127.68 65.3516 128.373 65.2183 129.28L62.9783 129.14C63.1383 127.713 63.6783 126.58 64.5983 125.74C65.5316 124.9 66.7849 124.48 68.3583 124.48C69.3716 124.48 70.2316 124.66 70.9383 125.02C71.6583 125.367 72.2049 125.853 72.5783 126.48C72.9649 127.107 73.1583 127.833 73.1583 128.66C73.1583 129.38 73.0383 130 72.7983 130.52C72.5583 131.04 72.1583 131.527 71.5983 131.98C71.0383 132.42 70.2783 132.893 69.3183 133.4C68.0916 134.053 67.1649 134.7 66.5383 135.34C65.9116 135.967 65.5783 136.527 65.5383 137.02H73.1583V139H62.9183ZM80.7159 139.32C79.6626 139.32 78.7626 139.153 78.0159 138.82C77.2693 138.473 76.6826 137.993 76.2559 137.38C75.8293 136.767 75.5826 136.06 75.5159 135.26L77.7359 135.12C77.8426 135.867 78.1559 136.427 78.6759 136.8C79.2093 137.16 79.8893 137.34 80.7159 137.34C81.6493 137.34 82.3826 137.08 82.9159 136.56C83.4626 136.04 83.7359 135.313 83.7359 134.38C83.7359 133.767 83.6093 133.24 83.3559 132.8C83.1159 132.347 82.7693 132 82.3159 131.76C81.8626 131.507 81.3226 131.38 80.6959 131.38C80.0693 131.38 79.5093 131.513 79.0159 131.78C78.5226 132.047 78.1693 132.413 77.9559 132.88H75.7159L76.6759 124.8H84.9959V126.78H78.5959L77.9959 131.64L77.6559 131.34C77.8826 130.94 78.1693 130.613 78.5159 130.36C78.8626 130.093 79.2626 129.893 79.7159 129.76C80.1826 129.613 80.6759 129.54 81.1959 129.54C82.1559 129.54 82.9893 129.747 83.6959 130.16C84.4159 130.573 84.9759 131.147 85.3759 131.88C85.7759 132.613 85.9759 133.447 85.9759 134.38C85.9759 135.353 85.7559 136.213 85.3159 136.96C84.8759 137.707 84.2626 138.287 83.4759 138.7C82.6893 139.113 81.7693 139.32 80.7159 139.32ZM93.8884 139.32C92.7151 139.32 91.6951 139.02 90.8284 138.42C89.9618 137.82 89.2951 136.967 88.8284 135.86C88.3618 134.753 88.1284 133.44 88.1284 131.92C88.1284 130.4 88.3618 129.087 88.8284 127.98C89.3084 126.86 89.9751 126 90.8284 125.4C91.6951 124.787 92.7151 124.48 93.8884 124.48C95.0751 124.48 96.0951 124.787 96.9484 125.4C97.8151 126 98.4818 126.853 98.9484 127.96C99.4284 129.067 99.6684 130.387 99.6684 131.92C99.6684 133.44 99.4351 134.753 98.9684 135.86C98.5018 136.967 97.8351 137.82 96.9684 138.42C96.1018 139.02 95.0751 139.32 93.8884 139.32ZM93.8884 137.34C95.0218 137.34 95.8951 136.873 96.5084 135.94C97.1218 135.007 97.4284 133.667 97.4284 131.92C97.4284 130.747 97.2884 129.753 97.0084 128.94C96.7418 128.127 96.3418 127.513 95.8084 127.1C95.2884 126.673 94.6484 126.46 93.8884 126.46C93.1418 126.46 92.5018 126.673 91.9684 127.1C91.4484 127.513 91.0484 128.127 90.7684 128.94C90.5018 129.753 90.3684 130.747 90.3684 131.92C90.3684 133.667 90.6751 135.007 91.2884 135.94C91.9018 136.873 92.7684 137.34 93.8884 137.34ZM112.348 139.32C111.214 139.32 110.228 139.113 109.388 138.7C108.561 138.287 107.908 137.713 107.428 136.98C106.948 136.247 106.668 135.393 106.588 134.42L108.808 134.28C108.901 134.947 109.094 135.513 109.388 135.98C109.681 136.433 110.074 136.78 110.568 137.02C111.074 137.247 111.681 137.36 112.388 137.36C113.001 137.36 113.521 137.287 113.948 137.14C114.388 136.98 114.721 136.747 114.948 136.44C115.174 136.133 115.288 135.76 115.288 135.32C115.288 134.92 115.188 134.567 114.988 134.26C114.801 133.94 114.434 133.653 113.888 133.4C113.354 133.133 112.568 132.873 111.528 132.62C110.394 132.34 109.488 132.033 108.808 131.7C108.128 131.367 107.634 130.953 107.328 130.46C107.034 129.953 106.888 129.333 106.888 128.6C106.888 127.787 107.081 127.073 107.468 126.46C107.868 125.833 108.434 125.347 109.168 125C109.901 124.653 110.781 124.48 111.808 124.48C112.888 124.48 113.808 124.68 114.568 125.08C115.341 125.48 115.948 126.027 116.388 126.72C116.841 127.413 117.121 128.207 117.228 129.1L115.008 129.22C114.941 128.673 114.774 128.193 114.508 127.78C114.241 127.353 113.881 127.027 113.428 126.8C112.974 126.56 112.421 126.44 111.768 126.44C110.941 126.44 110.288 126.633 109.808 127.02C109.341 127.393 109.108 127.893 109.108 128.52C109.108 128.92 109.201 129.26 109.388 129.54C109.588 129.807 109.934 130.04 110.428 130.24C110.934 130.44 111.648 130.653 112.568 130.88C113.794 131.16 114.768 131.507 115.488 131.92C116.221 132.32 116.741 132.793 117.048 133.34C117.354 133.887 117.508 134.507 117.508 135.2C117.508 136.04 117.288 136.773 116.848 137.4C116.421 138.013 115.821 138.487 115.048 138.82C114.274 139.153 113.374 139.32 112.348 139.32ZM123.594 139.24C122.527 139.24 121.674 138.887 121.034 138.18C120.407 137.46 120.094 136.467 120.094 135.2V128.36H122.214V134.66C122.214 135.62 122.38 136.327 122.714 136.78C123.047 137.233 123.554 137.46 124.234 137.46C125.007 137.46 125.607 137.213 126.034 136.72C126.474 136.213 126.694 135.507 126.694 134.6V128.36H128.814V139H126.834L126.794 136.22L127.094 136.34C126.907 137.273 126.514 137.993 125.914 138.5C125.314 138.993 124.54 139.24 123.594 139.24ZM131.813 139V128.36H133.753L133.833 131.18L133.653 131.12C133.799 130.16 134.093 129.46 134.533 129.02C134.986 128.58 135.593 128.36 136.353 128.36H137.373V130.26H136.353C135.819 130.26 135.373 130.347 135.013 130.52C134.653 130.693 134.379 130.96 134.193 131.32C134.019 131.68 133.933 132.147 133.933 132.72V139H131.813ZM142.015 139L138.135 128.36H140.395L143.295 136.84L146.195 128.36H148.475L144.575 139H142.015ZM154.22 139.24C153.18 139.24 152.28 139.013 151.52 138.56C150.773 138.107 150.193 137.46 149.78 136.62C149.38 135.78 149.18 134.8 149.18 133.68C149.18 132.56 149.38 131.587 149.78 130.76C150.193 129.92 150.773 129.273 151.52 128.82C152.267 128.353 153.147 128.12 154.16 128.12C155.12 128.12 155.967 128.347 156.7 128.8C157.433 129.24 158 129.88 158.4 130.72C158.813 131.56 159.02 132.573 159.02 133.76V134.3H151.38C151.433 135.34 151.707 136.12 152.2 136.64C152.707 137.16 153.387 137.42 154.24 137.42C154.867 137.42 155.387 137.273 155.8 136.98C156.213 136.687 156.5 136.293 156.66 135.8L158.86 135.94C158.58 136.927 158.027 137.727 157.2 138.34C156.387 138.94 155.393 139.24 154.22 139.24ZM151.38 132.7H156.78C156.713 131.753 156.44 131.053 155.96 130.6C155.493 130.147 154.893 129.92 154.16 129.92C153.4 129.92 152.773 130.16 152.28 130.64C151.8 131.107 151.5 131.793 151.38 132.7ZM161.436 142V140.26H162.736C163.096 140.26 163.363 140.207 163.536 140.1C163.709 139.993 163.843 139.813 163.936 139.56L164.276 138.68H163.616L159.776 128.36H162.016L164.936 136.72L167.716 128.36H169.976L165.736 140.24C165.523 140.853 165.203 141.3 164.776 141.58C164.363 141.86 163.783 142 163.036 142H161.436ZM176.974 139V124.8H182.634C183.647 124.8 184.521 124.973 185.254 125.32C185.987 125.667 186.554 126.16 186.954 126.8C187.354 127.44 187.554 128.2 187.554 129.08C187.554 129.72 187.407 130.293 187.114 130.8C186.834 131.307 186.454 131.713 185.974 132.02C185.507 132.313 185.007 132.48 184.474 132.52L184.374 132.34C185.267 132.34 185.961 132.547 186.454 132.96C186.947 133.36 187.234 133.993 187.314 134.86L187.694 139H185.514L185.174 135.14C185.134 134.567 184.941 134.147 184.594 133.88C184.247 133.6 183.681 133.46 182.894 133.46H179.134V139H176.974ZM179.134 131.48H182.674C183.487 131.48 184.127 131.28 184.594 130.88C185.074 130.467 185.314 129.887 185.314 129.14C185.314 128.38 185.074 127.8 184.594 127.4C184.114 126.987 183.414 126.78 182.494 126.78H179.134V131.48ZM194.454 139.24C193.414 139.24 192.514 139.013 191.754 138.56C191.008 138.107 190.428 137.46 190.014 136.62C189.614 135.78 189.414 134.8 189.414 133.68C189.414 132.56 189.614 131.587 190.014 130.76C190.428 129.92 191.008 129.273 191.754 128.82C192.501 128.353 193.381 128.12 194.394 128.12C195.354 128.12 196.201 128.347 196.934 128.8C197.668 129.24 198.234 129.88 198.634 130.72C199.048 131.56 199.254 132.573 199.254 133.76V134.3H191.614C191.668 135.34 191.941 136.12 192.434 136.64C192.941 137.16 193.621 137.42 194.474 137.42C195.101 137.42 195.621 137.273 196.034 136.98C196.448 136.687 196.734 136.293 196.894 135.8L199.094 135.94C198.814 136.927 198.261 137.727 197.434 138.34C196.621 138.94 195.628 139.24 194.454 139.24ZM191.614 132.7H197.014C196.948 131.753 196.674 131.053 196.194 130.6C195.728 130.147 195.128 129.92 194.394 129.92C193.634 129.92 193.008 130.16 192.514 130.64C192.034 131.107 191.734 131.793 191.614 132.7ZM205.502 139.24C204.502 139.24 203.656 139.087 202.962 138.78C202.282 138.473 201.756 138.053 201.382 137.52C201.009 136.973 200.796 136.347 200.742 135.64L202.922 135.54C203.029 136.127 203.282 136.593 203.682 136.94C204.082 137.287 204.689 137.46 205.502 137.46C206.169 137.46 206.696 137.353 207.082 137.14C207.469 136.927 207.662 136.587 207.662 136.12C207.662 135.867 207.596 135.653 207.462 135.48C207.342 135.293 207.102 135.14 206.742 135.02C206.382 134.887 205.849 134.76 205.142 134.64C204.089 134.44 203.262 134.207 202.662 133.94C202.062 133.673 201.636 133.333 201.382 132.92C201.129 132.507 201.002 132.007 201.002 131.42C201.002 130.447 201.362 129.653 202.082 129.04C202.816 128.427 203.869 128.12 205.242 128.12C206.162 128.12 206.936 128.28 207.562 128.6C208.189 128.907 208.676 129.327 209.022 129.86C209.382 130.38 209.609 130.967 209.702 131.62L207.522 131.74C207.456 131.367 207.322 131.047 207.122 130.78C206.936 130.5 206.682 130.287 206.362 130.14C206.042 129.98 205.662 129.9 205.222 129.9C204.542 129.9 204.036 130.033 203.702 130.3C203.369 130.567 203.202 130.913 203.202 131.34C203.202 131.66 203.276 131.92 203.422 132.12C203.582 132.32 203.836 132.487 204.182 132.62C204.529 132.74 204.989 132.847 205.562 132.94C206.669 133.127 207.536 133.36 208.162 133.64C208.789 133.907 209.229 134.24 209.482 134.64C209.736 135.04 209.862 135.527 209.862 136.1C209.862 136.767 209.676 137.333 209.302 137.8C208.929 138.267 208.416 138.627 207.762 138.88C207.109 139.12 206.356 139.24 205.502 139.24ZM212.008 142V128.36H214.008L214.068 130.64L213.828 130.52C214.094 129.733 214.534 129.14 215.148 128.74C215.761 128.327 216.468 128.12 217.268 128.12C218.308 128.12 219.161 128.38 219.828 128.9C220.508 129.407 221.008 130.08 221.328 130.92C221.661 131.76 221.828 132.68 221.828 133.68C221.828 134.68 221.661 135.6 221.328 136.44C221.008 137.28 220.508 137.96 219.828 138.48C219.161 138.987 218.308 139.24 217.268 139.24C216.734 139.24 216.234 139.147 215.768 138.96C215.301 138.773 214.901 138.513 214.568 138.18C214.248 137.833 214.021 137.427 213.888 136.96L214.128 136.72V142H212.008ZM216.888 137.4C217.741 137.4 218.408 137.073 218.888 136.42C219.381 135.767 219.628 134.853 219.628 133.68C219.628 132.507 219.381 131.593 218.888 130.94C218.408 130.287 217.741 129.96 216.888 129.96C216.328 129.96 215.841 130.1 215.428 130.38C215.014 130.647 214.694 131.06 214.468 131.62C214.241 132.18 214.128 132.867 214.128 133.68C214.128 134.493 214.234 135.18 214.448 135.74C214.674 136.3 214.994 136.72 215.408 137C215.834 137.267 216.328 137.4 216.888 137.4ZM228.36 139.24C227.347 139.24 226.46 139.013 225.7 138.56C224.94 138.107 224.354 137.46 223.94 136.62C223.527 135.78 223.32 134.8 223.32 133.68C223.32 132.547 223.527 131.567 223.94 130.74C224.354 129.913 224.94 129.273 225.7 128.82C226.46 128.353 227.347 128.12 228.36 128.12C229.374 128.12 230.26 128.353 231.02 128.82C231.78 129.273 232.367 129.913 232.78 130.74C233.194 131.567 233.4 132.547 233.4 133.68C233.4 134.8 233.194 135.78 232.78 136.62C232.367 137.46 231.78 138.107 231.02 138.56C230.26 139.013 229.374 139.24 228.36 139.24ZM228.36 137.4C229.267 137.4 229.967 137.073 230.46 136.42C230.954 135.753 231.2 134.84 231.2 133.68C231.2 132.52 230.954 131.613 230.46 130.96C229.967 130.293 229.267 129.96 228.36 129.96C227.467 129.96 226.767 130.293 226.26 130.96C225.767 131.613 225.52 132.52 225.52 133.68C225.52 134.84 225.767 135.753 226.26 136.42C226.767 137.073 227.467 137.4 228.36 137.4ZM235.543 139V128.36H237.483L237.563 131.2L237.303 131.06C237.423 130.367 237.65 129.807 237.983 129.38C238.316 128.953 238.723 128.64 239.203 128.44C239.683 128.227 240.203 128.12 240.763 128.12C241.563 128.12 242.223 128.3 242.743 128.66C243.276 129.007 243.676 129.487 243.943 130.1C244.223 130.7 244.363 131.387 244.363 132.16V139H242.243V132.8C242.243 132.173 242.176 131.647 242.043 131.22C241.91 130.793 241.69 130.467 241.383 130.24C241.076 130.013 240.676 129.9 240.183 129.9C239.436 129.9 238.83 130.147 238.363 130.64C237.896 131.133 237.663 131.853 237.663 132.8V139H235.543ZM251.225 139.24C250.225 139.24 249.378 139.087 248.685 138.78C248.005 138.473 247.478 138.053 247.105 137.52C246.732 136.973 246.518 136.347 246.465 135.64L248.645 135.54C248.752 136.127 249.005 136.593 249.405 136.94C249.805 137.287 250.412 137.46 251.225 137.46C251.892 137.46 252.418 137.353 252.805 137.14C253.192 136.927 253.385 136.587 253.385 136.12C253.385 135.867 253.318 135.653 253.185 135.48C253.065 135.293 252.825 135.14 252.465 135.02C252.105 134.887 251.572 134.76 250.865 134.64C249.812 134.44 248.985 134.207 248.385 133.94C247.785 133.673 247.358 133.333 247.105 132.92C246.852 132.507 246.725 132.007 246.725 131.42C246.725 130.447 247.085 129.653 247.805 129.04C248.538 128.427 249.592 128.12 250.965 128.12C251.885 128.12 252.658 128.28 253.285 128.6C253.912 128.907 254.398 129.327 254.745 129.86C255.105 130.38 255.332 130.967 255.425 131.62L253.245 131.74C253.178 131.367 253.045 131.047 252.845 130.78C252.658 130.5 252.405 130.287 252.085 130.14C251.765 129.98 251.385 129.9 250.945 129.9C250.265 129.9 249.758 130.033 249.425 130.3C249.092 130.567 248.925 130.913 248.925 131.34C248.925 131.66 248.998 131.92 249.145 132.12C249.305 132.32 249.558 132.487 249.905 132.62C250.252 132.74 250.712 132.847 251.285 132.94C252.392 133.127 253.258 133.36 253.885 133.64C254.512 133.907 254.952 134.24 255.205 134.64C255.458 135.04 255.585 135.527 255.585 136.1C255.585 136.767 255.398 137.333 255.025 137.8C254.652 138.267 254.138 138.627 253.485 138.88C252.832 139.12 252.078 139.24 251.225 139.24ZM262.11 139.24C261.07 139.24 260.17 139.013 259.41 138.56C258.664 138.107 258.084 137.46 257.67 136.62C257.27 135.78 257.07 134.8 257.07 133.68C257.07 132.56 257.27 131.587 257.67 130.76C258.084 129.92 258.664 129.273 259.41 128.82C260.157 128.353 261.037 128.12 262.05 128.12C263.01 128.12 263.857 128.347 264.59 128.8C265.324 129.24 265.89 129.88 266.29 130.72C266.704 131.56 266.91 132.573 266.91 133.76V134.3H259.27C259.324 135.34 259.597 136.12 260.09 136.64C260.597 137.16 261.277 137.42 262.13 137.42C262.757 137.42 263.277 137.273 263.69 136.98C264.104 136.687 264.39 136.293 264.55 135.8L266.75 135.94C266.47 136.927 265.917 137.727 265.09 138.34C264.277 138.94 263.284 139.24 262.11 139.24ZM259.27 132.7H264.67C264.604 131.753 264.33 131.053 263.85 130.6C263.384 130.147 262.784 129.92 262.05 129.92C261.29 129.92 260.664 130.16 260.17 130.64C259.69 131.107 259.39 131.793 259.27 132.7Z" fill="#181D27"/>
<circle cx="11" cy="246.5" r="11" fill="#444CE7"/>
<path d="M15.6654 243.4L9.2487 249.817L6.33203 246.9" stroke="white" stroke-width="2" stroke-linecap="round" stroke-linejoin="round"/>
<path d="M35.376 252.5V241.14H39.904C41.1093 241.14 42.064 241.449 42.768 242.068C43.4827 242.687 43.84 243.519 43.84 244.564C43.84 245.225 43.648 245.796 43.264 246.276C42.8907 246.745 42.4373 247.06 41.904 247.22C42.4267 247.305 42.832 247.508 43.12 247.828C43.4187 248.148 43.5947 248.601 43.648 249.188L43.952 252.5H42.208L41.936 249.412C41.904 248.953 41.7493 248.617 41.472 248.404C41.1947 248.18 40.7413 248.068 40.112 248.068H37.104V252.5H35.376ZM37.104 246.484H39.936C40.5867 246.484 41.0987 246.324 41.472 246.004C41.856 245.684 42.048 245.22 42.048 244.612C42.048 244.004 41.8507 243.54 41.456 243.22C41.072 242.889 40.5173 242.724 39.792 242.724H37.104V246.484ZM49.3602 252.692C48.5283 252.692 47.8083 252.511 47.2003 252.148C46.6029 251.775 46.1389 251.257 45.8083 250.596C45.4883 249.924 45.3283 249.14 45.3283 248.244C45.3283 247.348 45.4883 246.569 45.8083 245.908C46.1389 245.236 46.6029 244.719 47.2003 244.356C47.7976 243.983 48.5016 243.796 49.3123 243.796C50.0803 243.796 50.7576 243.977 51.3443 244.34C51.9309 244.692 52.3843 245.204 52.7043 245.876C53.0349 246.548 53.2003 247.359 53.2003 248.308V248.74H47.0883C47.1309 249.572 47.3496 250.196 47.7443 250.612C48.1496 251.028 48.6936 251.236 49.3763 251.236C49.8776 251.236 50.2883 251.124 50.6083 250.9C50.9389 250.665 51.1736 250.345 51.3123 249.94L53.0723 250.052C52.8483 250.852 52.4056 251.492 51.7443 251.972C51.0936 252.452 50.2989 252.692 49.3602 252.692ZM47.0883 247.46H51.4083C51.3549 246.703 51.1363 246.143 50.7523 245.78C50.3683 245.417 49.8883 245.236 49.3123 245.236C48.7043 245.236 48.2029 245.428 47.8083 245.812C47.4243 246.185 47.1843 246.735 47.0883 247.46ZM58.4227 252.692C57.6121 252.692 56.9028 252.511 56.2948 252.148C55.6868 251.775 55.2174 251.257 54.8868 250.596C54.5561 249.924 54.3908 249.14 54.3908 248.244C54.3908 247.348 54.5561 246.569 54.8868 245.908C55.2174 245.236 55.6868 244.719 56.2948 244.356C56.9028 243.983 57.6121 243.796 58.4227 243.796C59.4574 243.796 60.3161 244.068 60.9988 244.612C61.6814 245.145 62.0921 245.903 62.2308 246.884L60.4548 246.98C60.3694 246.425 60.1454 246.004 59.7828 245.716C59.4201 245.417 58.9668 245.268 58.4227 245.268C57.7081 245.268 57.1481 245.535 56.7428 246.068C56.3481 246.591 56.1508 247.316 56.1508 248.244C56.1508 249.183 56.3481 249.913 56.7428 250.436C57.1481 250.959 57.7081 251.22 58.4227 251.22C58.9668 251.22 59.4201 251.071 59.7828 250.772C60.1454 250.463 60.3694 249.999 60.4548 249.38L62.2308 249.476C62.0921 250.457 61.6814 251.241 60.9988 251.828C60.3268 252.404 59.4681 252.692 58.4227 252.692ZM63.7781 252.5V243.988H65.3301L65.3781 245.604C65.5381 245.049 65.7835 244.644 66.1141 244.388C66.4555 244.121 66.8875 243.988 67.4101 243.988H68.2261V245.508H67.4101C66.7595 245.508 66.2741 245.668 65.9541 245.988C65.6341 246.308 65.4741 246.804 65.4741 247.476V252.5H63.7781ZM72.5938 252.692C71.7298 252.692 71.0471 252.409 70.5458 251.844C70.0444 251.279 69.7938 250.484 69.7938 249.46V243.988H71.4898V249.028C71.4898 249.796 71.6231 250.361 71.8898 250.724C72.1564 251.087 72.5618 251.268 73.1058 251.268C73.7244 251.268 74.2044 251.071 74.5458 250.676C74.8978 250.271 75.0738 249.705 75.0738 248.98V243.988H76.7698V252.5H75.1858L75.1698 251.108C74.7111 252.164 73.8524 252.692 72.5938 252.692ZM78.9656 252.5V243.988H80.6616V252.5H78.9656ZM78.9336 242.756V241.06H80.6936V242.756H78.9336ZM85.7453 252.5C84.9346 252.5 84.3373 252.319 83.9533 251.956C83.5693 251.583 83.3773 250.996 83.3773 250.196V245.38H82.0813V243.988H83.3773V241.988H85.0733V243.988H87.3293V245.38H85.0733V250.068C85.0733 250.463 85.1586 250.735 85.3293 250.884C85.4999 251.033 85.7613 251.108 86.1133 251.108H87.3293V252.5H85.7453ZM92.9344 254.9V243.988H94.5344L94.5664 245.284C94.8117 244.793 95.1584 244.425 95.6064 244.18C96.065 243.924 96.577 243.796 97.1424 243.796C97.9744 243.796 98.657 244.004 99.1904 244.42C99.7344 244.825 100.134 245.364 100.39 246.036C100.657 246.708 100.79 247.444 100.79 248.244C100.79 249.044 100.657 249.78 100.39 250.452C100.134 251.124 99.7344 251.668 99.1904 252.084C98.657 252.489 97.9744 252.692 97.1424 252.692C96.5984 252.692 96.1024 252.575 95.6544 252.34C95.2064 252.095 94.865 251.764 94.6304 251.348V254.9H92.9344ZM96.8384 251.22C97.521 251.22 98.0544 250.959 98.4384 250.436C98.833 249.913 99.0304 249.183 99.0304 248.244C99.0304 247.305 98.833 246.575 98.4384 246.052C98.0544 245.529 97.521 245.268 96.8384 245.268C96.1557 245.268 95.617 245.519 95.2224 246.02C94.8277 246.521 94.6304 247.263 94.6304 248.244C94.6304 249.225 94.8277 249.967 95.2224 250.468C95.617 250.969 96.1557 251.22 96.8384 251.22ZM105.068 252.692C104.183 252.692 103.474 252.489 102.94 252.084C102.418 251.679 102.156 251.108 102.156 250.372C102.156 249.647 102.375 249.076 102.812 248.66C103.26 248.244 103.948 247.945 104.876 247.764L107.804 247.204C107.804 245.892 107.191 245.236 105.964 245.236C105.42 245.236 104.994 245.359 104.684 245.604C104.375 245.849 104.162 246.201 104.044 246.66L102.3 246.548C102.46 245.695 102.855 245.023 103.484 244.532C104.124 244.041 104.951 243.796 105.964 243.796C107.116 243.796 107.991 244.105 108.588 244.724C109.196 245.332 109.5 246.191 109.5 247.3V250.612C109.5 250.815 109.532 250.959 109.596 251.044C109.671 251.119 109.788 251.156 109.948 251.156H110.252V252.5C110.103 252.532 109.895 252.548 109.628 252.548C109.148 252.548 108.764 252.447 108.476 252.244C108.188 252.041 108.012 251.689 107.948 251.188C107.735 251.636 107.367 251.999 106.844 252.276C106.322 252.553 105.73 252.692 105.068 252.692ZM105.34 251.348C106.108 251.348 106.711 251.129 107.148 250.692C107.586 250.255 107.804 249.7 107.804 249.028V248.484L105.308 248.964C104.796 249.06 104.434 249.215 104.22 249.428C104.018 249.631 103.916 249.892 103.916 250.212C103.916 250.575 104.039 250.857 104.284 251.06C104.54 251.252 104.892 251.348 105.34 251.348ZM111.684 252.5V243.988H113.236L113.284 245.604C113.444 245.049 113.69 244.644 114.02 244.388C114.362 244.121 114.794 243.988 115.316 243.988H116.132V245.508H115.316C114.666 245.508 114.18 245.668 113.86 245.988C113.54 246.308 113.38 246.804 113.38 247.476V252.5H111.684ZM120.542 252.5C119.731 252.5 119.134 252.319 118.75 251.956C118.366 251.583 118.174 250.996 118.174 250.196V245.38H116.878V243.988H118.174V241.988H119.87V243.988H122.126V245.38H119.87V250.068C119.87 250.463 119.955 250.735 120.126 250.884C120.297 251.033 120.558 251.108 120.91 251.108H122.126V252.5H120.542ZM123.747 252.5V243.988H125.443V252.5H123.747ZM123.715 242.756V241.06H125.475V242.756H123.715ZM131.188 252.692C130.378 252.692 129.668 252.511 129.06 252.148C128.452 251.775 127.983 251.257 127.652 250.596C127.322 249.924 127.156 249.14 127.156 248.244C127.156 247.348 127.322 246.569 127.652 245.908C127.983 245.236 128.452 244.719 129.06 244.356C129.668 243.983 130.378 243.796 131.188 243.796C132.223 243.796 133.082 244.068 133.764 244.612C134.447 245.145 134.858 245.903 134.996 246.884L133.22 246.98C133.135 246.425 132.911 246.004 132.548 245.716C132.186 245.417 131.732 245.268 131.188 245.268C130.474 245.268 129.914 245.535 129.508 246.068C129.114 246.591 128.916 247.316 128.916 248.244C128.916 249.183 129.114 249.913 129.508 250.436C129.914 250.959 130.474 251.22 131.188 251.22C131.732 251.22 132.186 251.071 132.548 250.772C132.911 250.463 133.135 249.999 133.22 249.38L134.996 249.476C134.858 250.457 134.447 251.241 133.764 251.828C133.092 252.404 132.234 252.692 131.188 252.692ZM136.544 252.5V243.988H138.24V252.5H136.544ZM136.512 242.756V241.06H138.272V242.756H136.512ZM140.778 254.9V243.988H142.378L142.41 245.284C142.655 244.793 143.002 244.425 143.45 244.18C143.909 243.924 144.421 243.796 144.986 243.796C145.818 243.796 146.501 244.004 147.034 244.42C147.578 244.825 147.978 245.364 148.234 246.036C148.501 246.708 148.634 247.444 148.634 248.244C148.634 249.044 148.501 249.78 148.234 250.452C147.978 251.124 147.578 251.668 147.034 252.084C146.501 252.489 145.818 252.692 144.986 252.692C144.442 252.692 143.946 252.575 143.498 252.34C143.05 252.095 142.709 251.764 142.474 251.348V254.9H140.778ZM144.682 251.22C145.365 251.22 145.898 250.959 146.282 250.436C146.677 249.913 146.874 249.183 146.874 248.244C146.874 247.305 146.677 246.575 146.282 246.052C145.898 245.529 145.365 245.268 144.682 245.268C143.999 245.268 143.461 245.519 143.066 246.02C142.671 246.521 142.474 247.263 142.474 248.244C142.474 249.225 142.671 249.967 143.066 250.468C143.461 250.969 143.999 251.22 144.682 251.22ZM152.912 252.692C152.027 252.692 151.317 252.489 150.784 252.084C150.261 251.679 150 251.108 150 250.372C150 249.647 150.219 249.076 150.656 248.66C151.104 248.244 151.792 247.945 152.72 247.764L155.648 247.204C155.648 245.892 155.035 245.236 153.808 245.236C153.264 245.236 152.837 245.359 152.528 245.604C152.219 245.849 152.005 246.201 151.888 246.66L150.144 246.548C150.304 245.695 150.699 245.023 151.328 244.532C151.968 244.041 152.795 243.796 153.808 243.796C154.96 243.796 155.835 244.105 156.432 244.724C157.04 245.332 157.344 246.191 157.344 247.3V250.612C157.344 250.815 157.376 250.959 157.44 251.044C157.515 251.119 157.632 251.156 157.792 251.156H158.096V252.5C157.947 252.532 157.739 252.548 157.472 252.548C156.992 252.548 156.608 252.447 156.32 252.244C156.032 252.041 155.856 251.689 155.792 251.188C155.579 251.636 155.211 251.999 154.688 252.276C154.165 252.553 153.573 252.692 152.912 252.692ZM153.184 251.348C153.952 251.348 154.555 251.129 154.992 250.692C155.429 250.255 155.648 249.7 155.648 249.028V248.484L153.152 248.964C152.64 249.06 152.277 249.215 152.064 249.428C151.861 249.631 151.76 249.892 151.76 250.212C151.76 250.575 151.883 250.857 152.128 251.06C152.384 251.252 152.736 251.348 153.184 251.348ZM159.528 252.5V243.988H161.08L161.112 245.476C161.336 244.889 161.677 244.463 162.136 244.196C162.595 243.929 163.117 243.796 163.704 243.796C164.333 243.796 164.861 243.94 165.288 244.228C165.715 244.505 166.035 244.889 166.248 245.38C166.472 245.86 166.584 246.409 166.584 247.028V252.5H164.888V247.54C164.888 246.793 164.76 246.223 164.504 245.828C164.259 245.423 163.837 245.22 163.24 245.22C162.632 245.22 162.141 245.423 161.768 245.828C161.405 246.223 161.224 246.793 161.224 247.54V252.5H159.528ZM171.636 252.5C170.825 252.5 170.228 252.319 169.844 251.956C169.46 251.583 169.268 250.996 169.268 250.196V245.38H167.972V243.988H169.268V241.988H170.964V243.988H173.22V245.38H170.964V250.068C170.964 250.463 171.049 250.735 171.22 250.884C171.391 251.033 171.652 251.108 172.004 251.108H173.22V252.5H171.636ZM177.98 252.692C176.785 252.692 175.868 252.425 175.228 251.892C174.588 251.348 174.236 250.655 174.172 249.812L175.916 249.732C175.991 250.201 176.188 250.575 176.508 250.852C176.839 251.129 177.329 251.268 177.98 251.268C178.513 251.268 178.935 251.183 179.244 251.012C179.553 250.841 179.708 250.569 179.708 250.196C179.708 249.993 179.655 249.823 179.548 249.684C179.452 249.535 179.26 249.412 178.972 249.316C178.684 249.209 178.257 249.108 177.692 249.012C176.849 248.863 176.183 248.676 175.692 248.452C175.212 248.228 174.871 247.956 174.668 247.636C174.476 247.305 174.38 246.905 174.38 246.436C174.38 245.668 174.668 245.039 175.244 244.548C175.831 244.047 176.673 243.796 177.772 243.796C178.508 243.796 179.121 243.924 179.612 244.18C180.113 244.425 180.508 244.761 180.796 245.188C181.084 245.604 181.265 246.073 181.34 246.596L179.596 246.692C179.521 246.255 179.329 245.903 179.02 245.636C178.711 245.359 178.289 245.22 177.756 245.22C177.212 245.22 176.807 245.327 176.54 245.54C176.273 245.753 176.14 246.031 176.14 246.372C176.14 246.745 176.279 247.028 176.556 247.22C176.844 247.401 177.335 247.545 178.028 247.652C178.913 247.801 179.607 247.983 180.108 248.196C180.609 248.409 180.961 248.681 181.164 249.012C181.367 249.332 181.468 249.721 181.468 250.18C181.468 250.713 181.319 251.167 181.02 251.54C180.721 251.913 180.311 252.201 179.788 252.404C179.265 252.596 178.663 252.692 177.98 252.692ZM188.095 252.5V245.476H186.911V244.1H188.095V243.444C188.095 242.74 188.293 242.18 188.687 241.764C189.082 241.348 189.701 241.14 190.543 241.14H192.047V242.532H190.767C190.117 242.532 189.791 242.868 189.791 243.54V244.1H191.919V245.476H189.791V252.5H188.095ZM196.657 252.692C195.846 252.692 195.137 252.511 194.529 252.148C193.921 251.775 193.452 251.257 193.121 250.596C192.79 249.935 192.625 249.151 192.625 248.244C192.625 247.337 192.79 246.553 193.121 245.892C193.452 245.231 193.921 244.719 194.529 244.356C195.137 243.983 195.846 243.796 196.657 243.796C197.468 243.796 198.177 243.983 198.785 244.356C199.393 244.719 199.862 245.231 200.193 245.892C200.524 246.553 200.689 247.337 200.689 248.244C200.689 249.151 200.524 249.935 200.193 250.596C199.862 251.257 199.393 251.775 198.785 252.148C198.177 252.511 197.468 252.692 196.657 252.692ZM196.657 251.22C197.382 251.22 197.942 250.959 198.337 250.436C198.732 249.913 198.929 249.183 198.929 248.244C198.929 247.316 198.732 246.591 198.337 246.068C197.942 245.535 197.382 245.268 196.657 245.268C195.942 245.268 195.382 245.535 194.977 246.068C194.582 246.591 194.385 247.316 194.385 248.244C194.385 249.183 194.582 249.913 194.977 250.436C195.382 250.959 195.942 251.22 196.657 251.22ZM202.403 252.5V243.988H203.955L204.003 245.604C204.163 245.049 204.408 244.644 204.739 244.388C205.08 244.121 205.512 243.988 206.035 243.988H206.851V245.508H206.035C205.384 245.508 204.899 245.668 204.579 245.988C204.259 246.308 204.099 246.804 204.099 247.476V252.5H202.403ZM212.591 252.5V243.988H214.143L214.175 245.444C214.388 244.932 214.703 244.532 215.119 244.244C215.535 243.945 216.009 243.796 216.543 243.796C217.172 243.796 217.7 243.951 218.127 244.26C218.564 244.569 218.873 245.001 219.055 245.556C219.247 244.991 219.551 244.559 219.967 244.26C220.393 243.951 220.911 243.796 221.519 243.796C222.415 243.796 223.108 244.079 223.599 244.644C224.089 245.199 224.335 245.993 224.335 247.028V252.5H222.639V247.444C222.639 245.961 222.1 245.22 221.023 245.22C220.489 245.22 220.063 245.423 219.743 245.828C219.423 246.233 219.263 246.793 219.263 247.508V252.5H217.647V247.508C217.647 246.793 217.524 246.233 217.279 245.828C217.044 245.423 216.639 245.22 216.063 245.22C215.519 245.22 215.087 245.423 214.767 245.828C214.447 246.233 214.287 246.793 214.287 247.508V252.5H212.591ZM230.063 252.692C229.231 252.692 228.511 252.511 227.903 252.148C227.306 251.775 226.842 251.257 226.511 250.596C226.191 249.924 226.031 249.14 226.031 248.244C226.031 247.348 226.191 246.569 226.511 245.908C226.842 245.236 227.306 244.719 227.903 244.356C228.501 243.983 229.205 243.796 230.015 243.796C230.783 243.796 231.461 243.977 232.047 244.34C232.634 244.692 233.087 245.204 233.407 245.876C233.738 246.548 233.903 247.359 233.903 248.308V248.74H227.791C227.834 249.572 228.053 250.196 228.447 250.612C228.853 251.028 229.397 251.236 230.079 251.236C230.581 251.236 230.991 251.124 231.311 250.9C231.642 250.665 231.877 250.345 232.015 249.94L233.775 250.052C233.551 250.852 233.109 251.492 232.447 251.972C231.797 252.452 231.002 252.692 230.063 252.692ZM227.791 247.46H232.111C232.058 246.703 231.839 246.143 231.455 245.78C231.071 245.417 230.591 245.236 230.015 245.236C229.407 245.236 228.906 245.428 228.511 245.812C228.127 246.185 227.887 246.735 227.791 247.46Z" fill="#181D27"/>
</svg>
