<svg width="94" height="17" viewBox="0 0 94 17" fill="none" xmlns="http://www.w3.org/2000/svg">
<path d="M40.4937 3.62826C40.8241 2.34006 41.9053 1.63642 43.3535 1.79441V3.64163C42.8578 3.68902 42.3828 3.74493 42.0621 4.19579C42.616 4.57617 42.9939 5.06958 43.1506 5.71732C43.543 7.32878 42.6816 8.67287 40.9845 9.07513C39.8364 9.34735 38.6823 9.33034 37.5367 9.06419C37.3144 9.01315 37.2403 9.08607 37.1723 9.26228C37.0034 9.69857 37.1528 10.1033 37.6023 10.2381C37.9401 10.339 38.3057 10.3645 38.6605 10.3852C39.5777 10.4387 40.4998 10.4387 41.4145 10.5225C42.0426 10.5809 42.6294 10.8239 43.1178 11.2456C44.3581 12.3187 44.1674 14.5062 42.7509 15.4748C42.0888 15.9281 41.3404 16.1395 40.5569 16.2368C39.3213 16.3899 38.0919 16.3717 36.8965 15.984C35.9052 15.6631 35.107 15.1017 34.8045 14.042C34.5215 13.0503 34.6952 12.1461 35.4253 11.3829C35.4496 11.3574 35.469 11.3283 35.4897 11.3027C34.4838 10.1349 34.9296 8.83086 35.8882 8.1576C35.8384 8.07739 35.7898 7.99353 35.7375 7.91211C35.005 6.76975 35.2224 5.18503 36.2283 4.38051C36.7459 3.96611 37.3545 3.75951 37.9984 3.66472C38.4066 3.60517 38.822 3.56871 39.2351 3.56385C39.6469 3.55777 40.0588 3.60395 40.4925 3.62826H40.4937ZM39.274 14.6618C39.2776 14.6472 39.2825 14.6326 39.2861 14.6192C39.5704 14.5949 39.8559 14.5876 40.1365 14.5414C40.6589 14.4552 41.1691 14.3166 41.5129 13.8694C41.9892 13.2496 41.745 12.4961 40.9869 12.3418C40.5058 12.2434 40.0029 12.2531 39.5084 12.2239C38.7577 12.1789 38.0057 12.1401 37.2549 12.1085C37.1881 12.106 37.0836 12.168 37.0556 12.2276C36.7021 12.998 36.673 14.0213 37.8477 14.3871C38.3069 14.5305 38.7965 14.573 39.2728 14.663L39.274 14.6618ZM39.1926 7.61437C39.5254 7.57548 39.7551 7.55603 39.981 7.51957C40.0976 7.50135 40.2131 7.46003 40.3224 7.41506C40.7573 7.2352 41.0003 6.86576 40.9833 6.39787C40.9663 5.93121 40.7585 5.58242 40.3042 5.42444C39.6214 5.18867 38.9289 5.18624 38.2486 5.43173C37.7979 5.59458 37.5707 5.94458 37.5671 6.40273C37.5622 6.87426 37.787 7.24735 38.2438 7.40412C38.5779 7.51958 38.9375 7.55968 39.1926 7.61315V7.61437Z" fill="#96ADBE"/>
<path d="M0 0.843262C1.8976 0.895519 3.78306 0.850553 5.64787 1.02434C8.20392 1.26253 10.1428 3.33093 10.4295 5.88909C10.5644 7.09829 10.4951 8.2844 10.0323 9.41947C9.28879 11.2436 7.90264 12.3106 6.00017 12.7153C5.48993 12.8235 4.96147 12.8781 4.4403 12.8854C2.96789 12.9073 1.49427 12.8927 0 12.8927V0.843262ZM2.42364 10.7393C3.39795 10.6979 4.36255 10.7368 5.30042 10.5995C6.59545 10.4111 7.41184 9.59326 7.76657 8.3318C7.96338 7.6318 8.01076 6.91479 7.89899 6.19899C7.83218 5.76756 7.73499 5.32763 7.56977 4.92538C7.21624 4.06618 6.55779 3.5193 5.66487 3.26288C4.60066 2.95784 3.51458 3.13892 2.42364 3.08059V10.7393Z" fill="#96ADBE"/>
<path d="M58.5131 9.66251V12.8757H56.1016V0.895508C56.1902 0.895508 56.2704 0.895508 56.3506 0.895508C57.953 0.895508 59.5566 0.895508 61.159 0.895508C61.8831 0.895508 62.5889 0.998806 63.2631 1.27832C64.3164 1.7146 65.0502 2.46321 65.4231 3.54238C65.7912 4.60939 65.818 5.69828 65.4997 6.77623C65.015 8.41686 63.8438 9.29185 62.2014 9.56772C61.696 9.65279 61.1748 9.64793 60.6597 9.65887C59.9599 9.67345 59.2602 9.66251 58.5131 9.66251ZM58.5288 7.40939C59.4619 7.40939 60.373 7.4495 61.2793 7.39845C62.2779 7.34255 62.8999 6.82727 63.0809 5.97779C63.1489 5.65818 63.1696 5.3179 63.1453 4.99099C63.0651 3.89603 62.4638 3.26773 61.3753 3.15835C60.8371 3.10488 60.2916 3.12311 59.7498 3.1146C59.3477 3.10853 58.9455 3.1146 58.5288 3.1146V7.41061V7.40939Z" fill="#96ADBE"/>
<path d="M13.188 9.08616C13.301 9.84814 13.6558 10.3744 14.2911 10.6976C14.9739 11.0452 15.7064 11.0658 16.4487 11.0039C17.2007 10.9407 17.909 10.7219 18.6257 10.3695C18.8651 10.9419 19.0995 11.5033 19.3389 12.0745C18.7023 12.4634 18.0305 12.7028 17.3173 12.8195C16.1341 13.0139 14.9532 13.0516 13.7894 12.698C11.9999 12.1547 11.0863 10.8787 10.8324 9.08251C10.6867 8.0471 10.7559 7.02262 11.1374 6.03703C11.729 4.50699 12.8843 3.69276 14.4758 3.45943C15.4295 3.31967 16.3722 3.37922 17.2675 3.76446C18.5589 4.31863 19.2514 5.36012 19.5539 6.68963C19.73 7.46741 19.7738 8.25734 19.6486 9.08494H13.1868L13.188 9.08616ZM17.4072 7.50387C17.3999 6.7504 17.259 6.05283 16.5823 5.64449C15.783 5.16081 14.9216 5.17297 14.1138 5.62748C13.4067 6.02609 13.2184 6.72244 13.2014 7.50265H17.4072V7.50387Z" fill="#96ADBE"/>
<path d="M75.6305 9.24837H69.1772C69.244 9.79038 69.4541 10.2218 69.8441 10.5597C70.3568 11.0044 70.98 11.1466 71.636 11.1758C72.6006 11.2183 73.5215 11.03 74.3974 10.6228C74.4557 10.5961 74.5152 10.5718 74.6124 10.5305C74.8469 11.0895 75.0801 11.6437 75.3231 12.2234C74.8505 12.5223 74.3452 12.7314 73.8082 12.859C72.4621 13.1774 71.1112 13.2466 69.77 12.848C68.1956 12.3814 67.2577 11.3083 66.9066 9.7199C66.643 8.52528 66.6831 7.33796 67.124 6.1883C67.7108 4.65584 68.8722 3.84525 70.4637 3.61313C71.4174 3.47459 72.3601 3.53535 73.2554 3.91938C74.5371 4.4699 75.2284 5.50167 75.5333 6.81903C75.7155 7.6041 75.7605 8.40375 75.6305 9.24959V9.24837ZM73.3939 7.65393C73.3781 6.88952 73.2372 6.18223 72.5399 5.77875C71.7332 5.31209 70.8731 5.32303 70.0713 5.79577C69.3861 6.19924 69.2002 6.88709 69.1869 7.65514H73.3951L73.3939 7.65393Z" fill="#96ADBE"/>
<path d="M85.6881 9.25024H79.2372C79.3065 9.82385 79.5409 10.2723 79.9686 10.6138C80.4727 11.016 81.0716 11.1485 81.6973 11.1752C82.6619 11.2166 83.5828 11.0282 84.4574 10.6211C84.5158 10.5943 84.5753 10.5712 84.67 10.5311C84.9057 11.0914 85.1378 11.6455 85.3807 12.2228C84.9069 12.5242 84.4004 12.7332 83.8634 12.8596C82.5173 13.1768 81.1664 13.2461 79.8252 12.8475C78.2508 12.3796 77.3141 11.3065 76.9642 9.7169C76.7018 8.52229 76.7419 7.33496 77.1829 6.18531C77.7709 4.65284 78.9323 3.84347 80.5238 3.61257C81.4774 3.47402 82.4189 3.53479 83.3155 3.92125C84.5972 4.47298 85.2872 5.50597 85.5909 6.82333C85.7719 7.6084 85.8181 8.40683 85.6869 9.25267L85.6881 9.25024ZM83.4516 7.65701C83.4345 6.84277 83.2705 6.11118 82.5137 5.72958C81.6803 5.31031 80.8129 5.32611 80.0257 5.86569C79.4122 6.28618 79.2554 6.93878 79.2445 7.65701H83.4516Z" fill="#96ADBE"/>
<path d="M47.504 5.17788C47.9001 4.59211 48.352 4.12059 48.9825 3.8435C50.184 3.31486 52.1508 3.42545 53.0814 4.71729C53.5686 5.39298 53.786 6.1659 53.7994 6.97406C53.8298 8.92701 53.8091 10.88 53.8091 12.8548H51.4511C51.4511 12.7418 51.4511 12.6433 51.4511 12.5449C51.4511 10.914 51.4511 9.28308 51.4511 7.65218C51.4511 7.4869 51.4523 7.32041 51.4402 7.15513C51.377 6.34819 50.9226 5.82684 50.1743 5.69923C48.6824 5.44402 47.7142 6.2218 47.6911 7.73482C47.6668 9.32805 47.6826 10.9225 47.6814 12.5169C47.6814 12.6251 47.6814 12.7333 47.6814 12.8596H45.3477V3.74871C45.9672 3.74871 46.5819 3.74264 47.1954 3.75965C47.2477 3.76087 47.3242 3.91521 47.3388 4.00635C47.4032 4.39524 47.4506 4.78777 47.5028 5.17788H47.504Z" fill="#96ADBE"/>
<path d="M21.5781 12.0911C21.894 11.4956 22.1953 10.9281 22.5136 10.3265C22.6241 10.3897 22.7201 10.4529 22.8221 10.5028C23.7673 10.9682 24.7635 11.1165 25.8022 10.9585C26.2626 10.8892 26.5214 10.6765 26.5615 10.3849C26.6016 10.0944 26.4145 9.82706 25.9577 9.65693C25.3211 9.41995 24.6626 9.24009 24.0224 9.01283C23.7126 8.90224 23.4089 8.76005 23.1234 8.59599C22.1078 8.01387 21.7531 7.09755 21.877 5.97585C21.9948 4.9137 22.584 4.19183 23.5802 3.82846C24.727 3.4104 25.9018 3.48332 27.0644 3.74825C27.5698 3.86249 28.0545 4.07273 28.5781 4.25016C28.3121 4.88818 28.0703 5.4703 27.8334 6.03662C27.2952 5.91387 26.7838 5.76196 26.2602 5.68783C25.8277 5.62707 25.3818 5.64651 24.9421 5.65259C24.8109 5.6538 24.6711 5.71214 24.5521 5.77533C24.1633 5.98071 24.116 6.44859 24.4756 6.70016C24.6821 6.84477 24.9287 6.94078 25.1692 7.02828C25.8423 7.27255 26.5335 7.47307 27.1944 7.74529C27.8638 8.01995 28.4263 8.45016 28.7276 9.14408C29.3848 10.6595 28.6656 12.2698 27.0729 12.8227C25.9455 13.214 24.7914 13.1776 23.6361 12.9698C22.8938 12.8373 22.2086 12.5614 21.5781 12.0911Z" fill="#96ADBE"/>
<path d="M89.7412 12.8607H87.4062V3.76552H89.3464C89.4132 4.2334 89.48 4.69399 89.5578 5.23722C89.6464 5.09017 89.6975 5.00145 89.7509 4.91517C90.4154 3.83965 91.5513 3.34625 92.7528 3.60024C92.9727 3.64642 93.0772 3.71812 93.0687 3.97455C93.0456 4.63444 93.0614 5.29434 93.0614 5.94572C92.7212 5.89468 92.4054 5.82784 92.0871 5.80232C90.8406 5.70024 89.989 6.3735 89.8056 7.60822C89.7619 7.89867 89.7461 8.19399 89.7448 8.48808C89.7388 9.8419 89.7424 11.1957 89.7424 12.5495C89.7424 12.648 89.7424 12.7464 89.7424 12.8607H89.7412Z" fill="#96ADBE"/>
<path d="M30.6367 12.8652V3.78711H32.9571V12.8652H30.6367Z" fill="#96ADBE"/>
<path d="M32.9571 0.673828V2.75803H30.6367V0.673828H32.9571Z" fill="#96ADBE"/>
</svg>
