<svg width="119" height="21" viewBox="0 0 119 21" fill="none" xmlns="http://www.w3.org/2000/svg">
<path d="M51.7426 4.55269C52.1648 2.90667 53.5464 2.00757 55.3967 2.20944V4.56977C54.7634 4.63034 54.1564 4.70177 53.7466 5.27788C54.4545 5.76392 54.9372 6.39438 55.1375 7.22205C55.6389 9.28113 54.5383 10.9986 52.3697 11.5126C50.9028 11.8604 49.4281 11.8387 47.9642 11.4986C47.6802 11.4334 47.5855 11.5266 47.4985 11.7517C47.2828 12.3092 47.4737 12.8263 48.0481 12.9987C48.4796 13.1276 48.9469 13.1602 49.4001 13.1866C50.5721 13.2549 51.7503 13.2549 52.9192 13.362C53.7218 13.4366 54.4716 13.7471 55.0956 14.286C56.6805 15.6572 56.4368 18.4523 54.6268 19.6899C53.7808 20.2691 52.8245 20.5393 51.8233 20.6636C50.2446 20.8592 48.6737 20.8359 47.1462 20.3406C45.8795 19.9306 44.8596 19.2132 44.4731 17.8591C44.1114 16.592 44.3334 15.4366 45.2663 14.4615C45.2974 14.4288 45.3222 14.3916 45.3486 14.359C44.0633 12.8667 44.633 11.2005 45.8577 10.3402C45.7941 10.2377 45.732 10.1305 45.6653 10.0265C44.7292 8.56682 45.0071 6.5419 46.2924 5.51391C46.9537 4.98439 47.7314 4.7204 48.5541 4.59928C49.0757 4.52319 49.6066 4.4766 50.1344 4.47039C50.6606 4.46263 51.1869 4.52164 51.741 4.55269H51.7426ZM50.1841 18.6511C50.1887 18.6324 50.1949 18.6138 50.1996 18.5967C50.5628 18.5656 50.9276 18.5563 51.2862 18.4973C51.9537 18.3871 52.6057 18.21 53.045 17.6386C53.6535 16.8466 53.3415 15.8839 52.3728 15.6867C51.7581 15.5609 51.1154 15.5733 50.4836 15.536C49.5243 15.4786 48.5634 15.4289 47.6041 15.3885C47.5187 15.3854 47.3852 15.4646 47.3495 15.5407C46.8978 16.5252 46.8605 17.8327 48.3616 18.3001C48.9484 18.4833 49.574 18.5377 50.1825 18.6526L50.1841 18.6511ZM50.08 9.64605C50.5054 9.59636 50.7988 9.57152 51.0875 9.52493C51.2365 9.50164 51.384 9.44884 51.5237 9.39139C52.0794 9.16156 52.3899 8.6895 52.3682 8.09165C52.3464 7.49535 52.081 7.04968 51.5004 6.84781C50.628 6.54656 49.7432 6.54345 48.8739 6.85713C48.298 7.06521 48.0077 7.51243 48.0031 8.09786C47.9968 8.70037 48.284 9.17709 48.8677 9.37741C49.2946 9.52493 49.7541 9.57617 50.08 9.6445V9.64605Z" fill="black"/>
<path d="M0 0.993652C2.42472 1.06043 4.83391 1.00297 7.21672 1.22503C10.4828 1.52939 12.9603 4.17234 13.3266 7.4411C13.4989 8.98619 13.4105 10.5018 12.819 11.9521C11.869 14.283 10.0978 15.6464 7.66689 16.1635C7.01491 16.3017 6.33966 16.3716 5.67371 16.3809C3.79231 16.4088 1.90935 16.3902 0 16.3902V0.993652ZM3.09687 13.6385C4.34183 13.5857 5.57437 13.6354 6.77275 13.46C8.42752 13.2193 9.47068 12.1742 9.92396 10.5623C10.1754 9.66789 10.236 8.75171 10.0932 7.83708C10.0078 7.28582 9.8836 6.72368 9.67248 6.20969C9.22076 5.11182 8.3794 4.41304 7.23845 4.08538C5.87862 3.69562 4.49085 3.92699 3.09687 3.85246V13.6385Z" fill="black"/>
<path d="M74.7649 12.2631V16.3688H71.6836V1.06079C71.7969 1.06079 71.8994 1.06079 72.0018 1.06079C74.0493 1.06079 76.0984 1.06079 78.1459 1.06079C79.0711 1.06079 79.973 1.19278 80.8345 1.54994C82.1804 2.10741 83.1179 3.06397 83.5945 4.44291C84.0649 5.80631 84.099 7.19767 83.6923 8.57505C83.0729 10.6714 81.5765 11.7895 79.4778 12.142C78.832 12.2507 78.1661 12.2444 77.5079 12.2584C76.6138 12.2771 75.7196 12.2631 74.7649 12.2631ZM74.7851 9.38409C75.9773 9.38409 77.1415 9.43533 78.2996 9.37011C79.5756 9.29868 80.3704 8.64027 80.6016 7.55482C80.6886 7.14642 80.715 6.71163 80.6839 6.29391C80.5815 4.89479 79.8131 4.09196 78.4222 3.9522C77.7345 3.88388 77.0375 3.90717 76.3452 3.8963C75.8314 3.88854 75.3176 3.8963 74.7851 3.8963V9.38564V9.38409Z" fill="black"/>
<path d="M16.8503 11.5269C16.9947 12.5005 17.4479 13.1729 18.2598 13.586C19.1322 14.0301 20.0683 14.0565 21.0167 13.9773C21.9776 13.8965 22.8826 13.617 23.7985 13.1667C24.1043 13.8981 24.4039 14.6155 24.7097 15.3454C23.8963 15.8423 23.0378 16.1482 22.1266 16.2973C20.6147 16.5457 19.1058 16.5939 17.6187 16.142C15.3321 15.4479 14.1648 13.8174 13.8404 11.5222C13.6541 10.1992 13.7426 8.89015 14.23 7.63078C14.986 5.67574 16.4622 4.63533 18.4958 4.33718C19.7143 4.1586 20.9189 4.23469 22.063 4.72695C23.7131 5.43505 24.5979 6.76584 24.9844 8.46467C25.2095 9.45849 25.2654 10.4678 25.1055 11.5253H16.8488L16.8503 11.5269ZM22.2415 9.50508C22.2322 8.54231 22.0521 7.65097 21.1875 7.12921C20.166 6.51117 19.0655 6.5267 18.0332 7.10747C17.1297 7.61681 16.8891 8.50659 16.8674 9.50352H22.2415V9.50508Z" fill="black"/>
<path d="M96.6385 11.7341H88.3926C88.478 12.4267 88.7465 12.978 89.2448 13.4097C89.8999 13.978 90.6962 14.1597 91.5345 14.197C92.767 14.2513 93.9437 14.0106 95.0629 13.4904C95.1374 13.4563 95.2135 13.4252 95.3377 13.3724C95.6373 14.0867 95.9353 14.7948 96.2458 15.5355C95.6419 15.9175 94.9961 16.1846 94.31 16.3477C92.5901 16.7545 90.8639 16.843 89.1501 16.3337C87.1383 15.7374 85.9399 14.3662 85.4913 12.3366C85.1545 10.8102 85.2057 9.29305 85.7692 7.82405C86.519 5.8659 88.003 4.83015 90.0365 4.53355C91.2551 4.35653 92.4597 4.43417 93.6037 4.92487C95.2414 5.62832 96.1247 6.94669 96.5143 8.62998C96.7472 9.63313 96.8046 10.6549 96.6385 11.7357V11.7341ZM93.7807 9.69679C93.7605 8.72005 93.5804 7.81629 92.6894 7.30074C91.6587 6.70444 90.5596 6.71842 89.5351 7.32248C88.6596 7.83803 88.4221 8.71694 88.405 9.69835H93.7822L93.7807 9.69679Z" fill="black"/>
<path d="M109.493 11.7359H101.25C101.338 12.4689 101.638 13.0419 102.184 13.4782C102.829 13.9922 103.594 14.1615 104.393 14.1956C105.626 14.2484 106.803 14.0077 107.92 13.4875C107.995 13.4534 108.071 13.4239 108.192 13.3726C108.493 14.0885 108.79 14.7966 109.1 15.5342C108.495 15.9193 107.847 16.1864 107.161 16.3479C105.441 16.7532 103.715 16.8417 102.001 16.3324C99.9895 15.7345 98.7926 14.3634 98.3456 12.3322C98.0103 10.8058 98.0615 9.28863 98.625 7.81963C99.3763 5.86148 100.86 4.82728 102.894 4.53223C104.112 4.35521 105.315 4.43285 106.461 4.92666C108.099 5.63166 108.98 6.95158 109.369 8.63487C109.6 9.63802 109.659 10.6582 109.491 11.739L109.493 11.7359ZM106.635 9.70013C106.613 8.65972 106.404 7.7249 105.437 7.23731C104.372 6.70157 103.263 6.72176 102.257 7.41123C101.473 7.94851 101.273 8.7824 101.259 9.70013H106.635Z" fill="black"/>
<path d="M60.6968 6.53293C61.2028 5.78445 61.7803 5.18194 62.5859 4.82789C64.1212 4.1524 66.6344 4.29371 67.8234 5.94439C68.4459 6.80778 68.7238 7.7954 68.7409 8.82804C68.7797 11.3235 68.7533 13.8189 68.7533 16.3423H65.7402C65.7402 16.1979 65.7402 16.0721 65.7402 15.9463C65.7402 13.8624 65.7402 11.7785 65.7402 9.69454C65.7402 9.48335 65.7418 9.27061 65.7263 9.05942C65.6455 8.02832 65.065 7.36215 64.1088 7.1991C62.2025 6.873 60.9653 7.86683 60.9358 9.80013C60.9048 11.8359 60.925 13.8733 60.9234 15.9106C60.9234 16.0488 60.9234 16.187 60.9234 16.3485H57.9414V4.70677C58.7331 4.70677 59.5186 4.69901 60.3025 4.72075C60.3692 4.7223 60.467 4.91951 60.4856 5.03597C60.5679 5.53289 60.6285 6.03446 60.6952 6.53293H60.6968Z" fill="black"/>
<path d="M27.5703 15.3663C27.9739 14.6054 28.3589 13.8802 28.7656 13.1116C28.9069 13.1923 29.0295 13.2731 29.1599 13.3367C30.3676 13.9315 31.6405 14.1209 32.9677 13.919C33.556 13.8305 33.8867 13.5588 33.9379 13.1861C33.9891 12.815 33.7501 12.4733 33.1664 12.2559C32.353 11.9531 31.5116 11.7233 30.6936 11.4329C30.2977 11.2916 29.9097 11.1099 29.5449 10.9003C28.2471 10.1565 27.7938 8.98563 27.9522 7.55234C28.1028 6.19515 28.8556 5.27275 30.1285 4.80845C31.5939 4.27427 33.095 4.36744 34.5806 4.70596C35.2263 4.85193 35.8457 5.12057 36.5148 5.34729C36.1748 6.16254 35.8659 6.90635 35.5632 7.62998C34.8755 7.47315 34.222 7.27904 33.5529 7.18431C33.0003 7.10667 32.4306 7.13152 31.8687 7.13928C31.701 7.14083 31.5225 7.21537 31.3704 7.29612C30.8736 7.55855 30.8131 8.1564 31.2726 8.47784C31.5365 8.66263 31.8516 8.78531 32.159 8.89711C33.0189 9.20924 33.9022 9.46546 34.7467 9.8133C35.602 10.1642 36.3207 10.714 36.7057 11.6006C37.5455 13.537 36.6265 15.5946 34.5914 16.3011C33.1509 16.8011 31.6762 16.7546 30.1999 16.489C29.2515 16.3198 28.376 15.9673 27.5703 15.3663Z" fill="black"/>
<path d="M114.671 16.3501H111.688V4.72857H114.167C114.252 5.32642 114.337 5.91495 114.437 6.60907C114.55 6.42118 114.615 6.30782 114.683 6.19757C115.533 4.82329 116.984 4.19283 118.519 4.51738C118.8 4.57639 118.934 4.66801 118.923 4.99566C118.893 5.83886 118.914 6.68206 118.914 7.51439C118.479 7.44917 118.075 7.36376 117.669 7.33115C116.076 7.20071 114.988 8.06099 114.753 9.63869C114.697 10.0098 114.677 10.3872 114.676 10.763C114.668 12.4928 114.673 14.2227 114.673 15.9526C114.673 16.0784 114.673 16.2042 114.673 16.3501H114.671Z" fill="black"/>
<path d="M39.1484 16.3557V4.75586H42.1134V16.3557H39.1484Z" fill="black"/>
<path d="M42.1134 0.777588V3.44073H39.1484V0.777588H42.1134Z" fill="black"/>
</svg>
