<svg width="384" height="260" viewBox="0 0 384 260" fill="none" xmlns="http://www.w3.org/2000/svg">
<g clip-path="url(#clip0_2720_2603)">
<mask id="path-1-inside-1_2720_2603" fill="white">
<path d="M0 0H383.333V260H0V0Z"/>
</mask>
<path d="M0 0H383.333V260H0V0Z" fill="url(#paint0_linear_2720_2603)"/>
<mask id="mask0_2720_2603" style="mask-type:alpha" maskUnits="userSpaceOnUse" x="-48" y="-150" width="480" height="480">
<rect width="480" height="480" transform="translate(-48 -150)" fill="url(#paint1_radial_2720_2603)"/>
</mask>
<g mask="url(#mask0_2720_2603)">
<path d="M-36.5 -140C-36.5 -139.172 -37.1716 -138.5 -38 -138.5C-38.8284 -138.5 -39.5 -139.172 -39.5 -140C-39.5 -140.828 -38.8284 -141.5 -38 -141.5C-37.1716 -141.5 -36.5 -140.828 -36.5 -140Z" fill="#D5D7DA"/>
<path d="M-13.5 -140C-13.5 -139.172 -14.1716 -138.5 -15 -138.5C-15.8284 -138.5 -16.5 -139.172 -16.5 -140C-16.5 -140.828 -15.8284 -141.5 -15 -141.5C-14.1716 -141.5 -13.5 -140.828 -13.5 -140Z" fill="#D5D7DA"/>
<path d="M9.5 -140C9.5 -139.172 8.82843 -138.5 8 -138.5C7.17157 -138.5 6.5 -139.172 6.5 -140C6.5 -140.828 7.17157 -141.5 8 -141.5C8.82843 -141.5 9.5 -140.828 9.5 -140Z" fill="#D5D7DA"/>
<path d="M32.5 -140C32.5 -139.172 31.8284 -138.5 31 -138.5C30.1716 -138.5 29.5 -139.172 29.5 -140C29.5 -140.828 30.1716 -141.5 31 -141.5C31.8284 -141.5 32.5 -140.828 32.5 -140Z" fill="#D5D7DA"/>
<path d="M55.5 -140C55.5 -139.172 54.8284 -138.5 54 -138.5C53.1716 -138.5 52.5 -139.172 52.5 -140C52.5 -140.828 53.1716 -141.5 54 -141.5C54.8284 -141.5 55.5 -140.828 55.5 -140Z" fill="#D5D7DA"/>
<path d="M78.5 -140C78.5 -139.172 77.8284 -138.5 77 -138.5C76.1716 -138.5 75.5 -139.172 75.5 -140C75.5 -140.828 76.1716 -141.5 77 -141.5C77.8284 -141.5 78.5 -140.828 78.5 -140Z" fill="#D5D7DA"/>
<path d="M101.5 -140C101.5 -139.172 100.828 -138.5 100 -138.5C99.1716 -138.5 98.5 -139.172 98.5 -140C98.5 -140.828 99.1716 -141.5 100 -141.5C100.828 -141.5 101.5 -140.828 101.5 -140Z" fill="#D5D7DA"/>
<path d="M124.5 -140C124.5 -139.172 123.828 -138.5 123 -138.5C122.172 -138.5 121.5 -139.172 121.5 -140C121.5 -140.828 122.172 -141.5 123 -141.5C123.828 -141.5 124.5 -140.828 124.5 -140Z" fill="#D5D7DA"/>
<path d="M147.5 -140C147.5 -139.172 146.828 -138.5 146 -138.5C145.172 -138.5 144.5 -139.172 144.5 -140C144.5 -140.828 145.172 -141.5 146 -141.5C146.828 -141.5 147.5 -140.828 147.5 -140Z" fill="#D5D7DA"/>
<path d="M170.5 -140C170.5 -139.172 169.828 -138.5 169 -138.5C168.172 -138.5 167.5 -139.172 167.5 -140C167.5 -140.828 168.172 -141.5 169 -141.5C169.828 -141.5 170.5 -140.828 170.5 -140Z" fill="#D5D7DA"/>
<path d="M193.5 -140C193.5 -139.172 192.828 -138.5 192 -138.5C191.172 -138.5 190.5 -139.172 190.5 -140C190.5 -140.828 191.172 -141.5 192 -141.5C192.828 -141.5 193.5 -140.828 193.5 -140Z" fill="#D5D7DA"/>
<path d="M216.5 -140C216.5 -139.172 215.828 -138.5 215 -138.5C214.172 -138.5 213.5 -139.172 213.5 -140C213.5 -140.828 214.172 -141.5 215 -141.5C215.828 -141.5 216.5 -140.828 216.5 -140Z" fill="#D5D7DA"/>
<path d="M239.5 -140C239.5 -139.172 238.828 -138.5 238 -138.5C237.172 -138.5 236.5 -139.172 236.5 -140C236.5 -140.828 237.172 -141.5 238 -141.5C238.828 -141.5 239.5 -140.828 239.5 -140Z" fill="#D5D7DA"/>
<path d="M262.5 -140C262.5 -139.172 261.828 -138.5 261 -138.5C260.172 -138.5 259.5 -139.172 259.5 -140C259.5 -140.828 260.172 -141.5 261 -141.5C261.828 -141.5 262.5 -140.828 262.5 -140Z" fill="#D5D7DA"/>
<path d="M285.5 -140C285.5 -139.172 284.828 -138.5 284 -138.5C283.172 -138.5 282.5 -139.172 282.5 -140C282.5 -140.828 283.172 -141.5 284 -141.5C284.828 -141.5 285.5 -140.828 285.5 -140Z" fill="#D5D7DA"/>
<path d="M308.5 -140C308.5 -139.172 307.828 -138.5 307 -138.5C306.172 -138.5 305.5 -139.172 305.5 -140C305.5 -140.828 306.172 -141.5 307 -141.5C307.828 -141.5 308.5 -140.828 308.5 -140Z" fill="#D5D7DA"/>
<path d="M331.5 -140C331.5 -139.172 330.828 -138.5 330 -138.5C329.172 -138.5 328.5 -139.172 328.5 -140C328.5 -140.828 329.172 -141.5 330 -141.5C330.828 -141.5 331.5 -140.828 331.5 -140Z" fill="#D5D7DA"/>
<path d="M354.5 -140C354.5 -139.172 353.828 -138.5 353 -138.5C352.172 -138.5 351.5 -139.172 351.5 -140C351.5 -140.828 352.172 -141.5 353 -141.5C353.828 -141.5 354.5 -140.828 354.5 -140Z" fill="#D5D7DA"/>
<path d="M377.5 -140C377.5 -139.172 376.828 -138.5 376 -138.5C375.172 -138.5 374.5 -139.172 374.5 -140C374.5 -140.828 375.172 -141.5 376 -141.5C376.828 -141.5 377.5 -140.828 377.5 -140Z" fill="#D5D7DA"/>
<path d="M400.5 -140C400.5 -139.172 399.828 -138.5 399 -138.5C398.172 -138.5 397.5 -139.172 397.5 -140C397.5 -140.828 398.172 -141.5 399 -141.5C399.828 -141.5 400.5 -140.828 400.5 -140Z" fill="#D5D7DA"/>
<path d="M423.5 -140C423.5 -139.172 422.828 -138.5 422 -138.5C421.172 -138.5 420.5 -139.172 420.5 -140C420.5 -140.828 421.172 -141.5 422 -141.5C422.828 -141.5 423.5 -140.828 423.5 -140Z" fill="#D5D7DA"/>
<path d="M-36.5 -117C-36.5 -116.172 -37.1716 -115.5 -38 -115.5C-38.8284 -115.5 -39.5 -116.172 -39.5 -117C-39.5 -117.828 -38.8284 -118.5 -38 -118.5C-37.1716 -118.5 -36.5 -117.828 -36.5 -117Z" fill="#D5D7DA"/>
<path d="M-13.5 -117C-13.5 -116.172 -14.1716 -115.5 -15 -115.5C-15.8284 -115.5 -16.5 -116.172 -16.5 -117C-16.5 -117.828 -15.8284 -118.5 -15 -118.5C-14.1716 -118.5 -13.5 -117.828 -13.5 -117Z" fill="#D5D7DA"/>
<path d="M9.5 -117C9.5 -116.172 8.82843 -115.5 8 -115.5C7.17157 -115.5 6.5 -116.172 6.5 -117C6.5 -117.828 7.17157 -118.5 8 -118.5C8.82843 -118.5 9.5 -117.828 9.5 -117Z" fill="#D5D7DA"/>
<path d="M32.5 -117C32.5 -116.172 31.8284 -115.5 31 -115.5C30.1716 -115.5 29.5 -116.172 29.5 -117C29.5 -117.828 30.1716 -118.5 31 -118.5C31.8284 -118.5 32.5 -117.828 32.5 -117Z" fill="#D5D7DA"/>
<path d="M55.5 -117C55.5 -116.172 54.8284 -115.5 54 -115.5C53.1716 -115.5 52.5 -116.172 52.5 -117C52.5 -117.828 53.1716 -118.5 54 -118.5C54.8284 -118.5 55.5 -117.828 55.5 -117Z" fill="#D5D7DA"/>
<path d="M78.5 -117C78.5 -116.172 77.8284 -115.5 77 -115.5C76.1716 -115.5 75.5 -116.172 75.5 -117C75.5 -117.828 76.1716 -118.5 77 -118.5C77.8284 -118.5 78.5 -117.828 78.5 -117Z" fill="#D5D7DA"/>
<path d="M101.5 -117C101.5 -116.172 100.828 -115.5 100 -115.5C99.1716 -115.5 98.5 -116.172 98.5 -117C98.5 -117.828 99.1716 -118.5 100 -118.5C100.828 -118.5 101.5 -117.828 101.5 -117Z" fill="#D5D7DA"/>
<path d="M124.5 -117C124.5 -116.172 123.828 -115.5 123 -115.5C122.172 -115.5 121.5 -116.172 121.5 -117C121.5 -117.828 122.172 -118.5 123 -118.5C123.828 -118.5 124.5 -117.828 124.5 -117Z" fill="#D5D7DA"/>
<path d="M147.5 -117C147.5 -116.172 146.828 -115.5 146 -115.5C145.172 -115.5 144.5 -116.172 144.5 -117C144.5 -117.828 145.172 -118.5 146 -118.5C146.828 -118.5 147.5 -117.828 147.5 -117Z" fill="#D5D7DA"/>
<path d="M170.5 -117C170.5 -116.172 169.828 -115.5 169 -115.5C168.172 -115.5 167.5 -116.172 167.5 -117C167.5 -117.828 168.172 -118.5 169 -118.5C169.828 -118.5 170.5 -117.828 170.5 -117Z" fill="#D5D7DA"/>
<path d="M193.5 -117C193.5 -116.172 192.828 -115.5 192 -115.5C191.172 -115.5 190.5 -116.172 190.5 -117C190.5 -117.828 191.172 -118.5 192 -118.5C192.828 -118.5 193.5 -117.828 193.5 -117Z" fill="#D5D7DA"/>
<path d="M216.5 -117C216.5 -116.172 215.828 -115.5 215 -115.5C214.172 -115.5 213.5 -116.172 213.5 -117C213.5 -117.828 214.172 -118.5 215 -118.5C215.828 -118.5 216.5 -117.828 216.5 -117Z" fill="#D5D7DA"/>
<path d="M239.5 -117C239.5 -116.172 238.828 -115.5 238 -115.5C237.172 -115.5 236.5 -116.172 236.5 -117C236.5 -117.828 237.172 -118.5 238 -118.5C238.828 -118.5 239.5 -117.828 239.5 -117Z" fill="#D5D7DA"/>
<path d="M262.5 -117C262.5 -116.172 261.828 -115.5 261 -115.5C260.172 -115.5 259.5 -116.172 259.5 -117C259.5 -117.828 260.172 -118.5 261 -118.5C261.828 -118.5 262.5 -117.828 262.5 -117Z" fill="#D5D7DA"/>
<path d="M285.5 -117C285.5 -116.172 284.828 -115.5 284 -115.5C283.172 -115.5 282.5 -116.172 282.5 -117C282.5 -117.828 283.172 -118.5 284 -118.5C284.828 -118.5 285.5 -117.828 285.5 -117Z" fill="#D5D7DA"/>
<path d="M308.5 -117C308.5 -116.172 307.828 -115.5 307 -115.5C306.172 -115.5 305.5 -116.172 305.5 -117C305.5 -117.828 306.172 -118.5 307 -118.5C307.828 -118.5 308.5 -117.828 308.5 -117Z" fill="#D5D7DA"/>
<path d="M331.5 -117C331.5 -116.172 330.828 -115.5 330 -115.5C329.172 -115.5 328.5 -116.172 328.5 -117C328.5 -117.828 329.172 -118.5 330 -118.5C330.828 -118.5 331.5 -117.828 331.5 -117Z" fill="#D5D7DA"/>
<path d="M354.5 -117C354.5 -116.172 353.828 -115.5 353 -115.5C352.172 -115.5 351.5 -116.172 351.5 -117C351.5 -117.828 352.172 -118.5 353 -118.5C353.828 -118.5 354.5 -117.828 354.5 -117Z" fill="#D5D7DA"/>
<path d="M377.5 -117C377.5 -116.172 376.828 -115.5 376 -115.5C375.172 -115.5 374.5 -116.172 374.5 -117C374.5 -117.828 375.172 -118.5 376 -118.5C376.828 -118.5 377.5 -117.828 377.5 -117Z" fill="#D5D7DA"/>
<path d="M400.5 -117C400.5 -116.172 399.828 -115.5 399 -115.5C398.172 -115.5 397.5 -116.172 397.5 -117C397.5 -117.828 398.172 -118.5 399 -118.5C399.828 -118.5 400.5 -117.828 400.5 -117Z" fill="#D5D7DA"/>
<path d="M423.5 -117C423.5 -116.172 422.828 -115.5 422 -115.5C421.172 -115.5 420.5 -116.172 420.5 -117C420.5 -117.828 421.172 -118.5 422 -118.5C422.828 -118.5 423.5 -117.828 423.5 -117Z" fill="#D5D7DA"/>
<path d="M-36.5 -94C-36.5 -93.1716 -37.1716 -92.5 -38 -92.5C-38.8284 -92.5 -39.5 -93.1716 -39.5 -94C-39.5 -94.8284 -38.8284 -95.5 -38 -95.5C-37.1716 -95.5 -36.5 -94.8284 -36.5 -94Z" fill="#D5D7DA"/>
<path d="M-13.5 -94C-13.5 -93.1716 -14.1716 -92.5 -15 -92.5C-15.8284 -92.5 -16.5 -93.1716 -16.5 -94C-16.5 -94.8284 -15.8284 -95.5 -15 -95.5C-14.1716 -95.5 -13.5 -94.8284 -13.5 -94Z" fill="#D5D7DA"/>
<path d="M9.5 -94C9.5 -93.1716 8.82843 -92.5 8 -92.5C7.17157 -92.5 6.5 -93.1716 6.5 -94C6.5 -94.8284 7.17157 -95.5 8 -95.5C8.82843 -95.5 9.5 -94.8284 9.5 -94Z" fill="#D5D7DA"/>
<path d="M32.5 -94C32.5 -93.1716 31.8284 -92.5 31 -92.5C30.1716 -92.5 29.5 -93.1716 29.5 -94C29.5 -94.8284 30.1716 -95.5 31 -95.5C31.8284 -95.5 32.5 -94.8284 32.5 -94Z" fill="#D5D7DA"/>
<path d="M55.5 -94C55.5 -93.1716 54.8284 -92.5 54 -92.5C53.1716 -92.5 52.5 -93.1716 52.5 -94C52.5 -94.8284 53.1716 -95.5 54 -95.5C54.8284 -95.5 55.5 -94.8284 55.5 -94Z" fill="#D5D7DA"/>
<path d="M78.5 -94C78.5 -93.1716 77.8284 -92.5 77 -92.5C76.1716 -92.5 75.5 -93.1716 75.5 -94C75.5 -94.8284 76.1716 -95.5 77 -95.5C77.8284 -95.5 78.5 -94.8284 78.5 -94Z" fill="#D5D7DA"/>
<path d="M101.5 -94C101.5 -93.1716 100.828 -92.5 100 -92.5C99.1716 -92.5 98.5 -93.1716 98.5 -94C98.5 -94.8284 99.1716 -95.5 100 -95.5C100.828 -95.5 101.5 -94.8284 101.5 -94Z" fill="#D5D7DA"/>
<path d="M124.5 -94C124.5 -93.1716 123.828 -92.5 123 -92.5C122.172 -92.5 121.5 -93.1716 121.5 -94C121.5 -94.8284 122.172 -95.5 123 -95.5C123.828 -95.5 124.5 -94.8284 124.5 -94Z" fill="#D5D7DA"/>
<path d="M147.5 -94C147.5 -93.1716 146.828 -92.5 146 -92.5C145.172 -92.5 144.5 -93.1716 144.5 -94C144.5 -94.8284 145.172 -95.5 146 -95.5C146.828 -95.5 147.5 -94.8284 147.5 -94Z" fill="#D5D7DA"/>
<path d="M170.5 -94C170.5 -93.1716 169.828 -92.5 169 -92.5C168.172 -92.5 167.5 -93.1716 167.5 -94C167.5 -94.8284 168.172 -95.5 169 -95.5C169.828 -95.5 170.5 -94.8284 170.5 -94Z" fill="#D5D7DA"/>
<path d="M193.5 -94C193.5 -93.1716 192.828 -92.5 192 -92.5C191.172 -92.5 190.5 -93.1716 190.5 -94C190.5 -94.8284 191.172 -95.5 192 -95.5C192.828 -95.5 193.5 -94.8284 193.5 -94Z" fill="#D5D7DA"/>
<path d="M216.5 -94C216.5 -93.1716 215.828 -92.5 215 -92.5C214.172 -92.5 213.5 -93.1716 213.5 -94C213.5 -94.8284 214.172 -95.5 215 -95.5C215.828 -95.5 216.5 -94.8284 216.5 -94Z" fill="#D5D7DA"/>
<path d="M239.5 -94C239.5 -93.1716 238.828 -92.5 238 -92.5C237.172 -92.5 236.5 -93.1716 236.5 -94C236.5 -94.8284 237.172 -95.5 238 -95.5C238.828 -95.5 239.5 -94.8284 239.5 -94Z" fill="#D5D7DA"/>
<path d="M262.5 -94C262.5 -93.1716 261.828 -92.5 261 -92.5C260.172 -92.5 259.5 -93.1716 259.5 -94C259.5 -94.8284 260.172 -95.5 261 -95.5C261.828 -95.5 262.5 -94.8284 262.5 -94Z" fill="#D5D7DA"/>
<path d="M285.5 -94C285.5 -93.1716 284.828 -92.5 284 -92.5C283.172 -92.5 282.5 -93.1716 282.5 -94C282.5 -94.8284 283.172 -95.5 284 -95.5C284.828 -95.5 285.5 -94.8284 285.5 -94Z" fill="#D5D7DA"/>
<path d="M308.5 -94C308.5 -93.1716 307.828 -92.5 307 -92.5C306.172 -92.5 305.5 -93.1716 305.5 -94C305.5 -94.8284 306.172 -95.5 307 -95.5C307.828 -95.5 308.5 -94.8284 308.5 -94Z" fill="#D5D7DA"/>
<path d="M331.5 -94C331.5 -93.1716 330.828 -92.5 330 -92.5C329.172 -92.5 328.5 -93.1716 328.5 -94C328.5 -94.8284 329.172 -95.5 330 -95.5C330.828 -95.5 331.5 -94.8284 331.5 -94Z" fill="#D5D7DA"/>
<path d="M354.5 -94C354.5 -93.1716 353.828 -92.5 353 -92.5C352.172 -92.5 351.5 -93.1716 351.5 -94C351.5 -94.8284 352.172 -95.5 353 -95.5C353.828 -95.5 354.5 -94.8284 354.5 -94Z" fill="#D5D7DA"/>
<path d="M377.5 -94C377.5 -93.1716 376.828 -92.5 376 -92.5C375.172 -92.5 374.5 -93.1716 374.5 -94C374.5 -94.8284 375.172 -95.5 376 -95.5C376.828 -95.5 377.5 -94.8284 377.5 -94Z" fill="#D5D7DA"/>
<path d="M400.5 -94C400.5 -93.1716 399.828 -92.5 399 -92.5C398.172 -92.5 397.5 -93.1716 397.5 -94C397.5 -94.8284 398.172 -95.5 399 -95.5C399.828 -95.5 400.5 -94.8284 400.5 -94Z" fill="#D5D7DA"/>
<path d="M423.5 -94C423.5 -93.1716 422.828 -92.5 422 -92.5C421.172 -92.5 420.5 -93.1716 420.5 -94C420.5 -94.8284 421.172 -95.5 422 -95.5C422.828 -95.5 423.5 -94.8284 423.5 -94Z" fill="#D5D7DA"/>
<path d="M-36.5 -71C-36.5 -70.1716 -37.1716 -69.5 -38 -69.5C-38.8284 -69.5 -39.5 -70.1716 -39.5 -71C-39.5 -71.8284 -38.8284 -72.5 -38 -72.5C-37.1716 -72.5 -36.5 -71.8284 -36.5 -71Z" fill="#D5D7DA"/>
<path d="M-13.5 -71C-13.5 -70.1716 -14.1716 -69.5 -15 -69.5C-15.8284 -69.5 -16.5 -70.1716 -16.5 -71C-16.5 -71.8284 -15.8284 -72.5 -15 -72.5C-14.1716 -72.5 -13.5 -71.8284 -13.5 -71Z" fill="#D5D7DA"/>
<path d="M9.5 -71C9.5 -70.1716 8.82843 -69.5 8 -69.5C7.17157 -69.5 6.5 -70.1716 6.5 -71C6.5 -71.8284 7.17157 -72.5 8 -72.5C8.82843 -72.5 9.5 -71.8284 9.5 -71Z" fill="#D5D7DA"/>
<path d="M32.5 -71C32.5 -70.1716 31.8284 -69.5 31 -69.5C30.1716 -69.5 29.5 -70.1716 29.5 -71C29.5 -71.8284 30.1716 -72.5 31 -72.5C31.8284 -72.5 32.5 -71.8284 32.5 -71Z" fill="#D5D7DA"/>
<path d="M55.5 -71C55.5 -70.1716 54.8284 -69.5 54 -69.5C53.1716 -69.5 52.5 -70.1716 52.5 -71C52.5 -71.8284 53.1716 -72.5 54 -72.5C54.8284 -72.5 55.5 -71.8284 55.5 -71Z" fill="#D5D7DA"/>
<path d="M78.5 -71C78.5 -70.1716 77.8284 -69.5 77 -69.5C76.1716 -69.5 75.5 -70.1716 75.5 -71C75.5 -71.8284 76.1716 -72.5 77 -72.5C77.8284 -72.5 78.5 -71.8284 78.5 -71Z" fill="#D5D7DA"/>
<path d="M101.5 -71C101.5 -70.1716 100.828 -69.5 100 -69.5C99.1716 -69.5 98.5 -70.1716 98.5 -71C98.5 -71.8284 99.1716 -72.5 100 -72.5C100.828 -72.5 101.5 -71.8284 101.5 -71Z" fill="#D5D7DA"/>
<path d="M124.5 -71C124.5 -70.1716 123.828 -69.5 123 -69.5C122.172 -69.5 121.5 -70.1716 121.5 -71C121.5 -71.8284 122.172 -72.5 123 -72.5C123.828 -72.5 124.5 -71.8284 124.5 -71Z" fill="#D5D7DA"/>
<path d="M147.5 -71C147.5 -70.1716 146.828 -69.5 146 -69.5C145.172 -69.5 144.5 -70.1716 144.5 -71C144.5 -71.8284 145.172 -72.5 146 -72.5C146.828 -72.5 147.5 -71.8284 147.5 -71Z" fill="#D5D7DA"/>
<path d="M170.5 -71C170.5 -70.1716 169.828 -69.5 169 -69.5C168.172 -69.5 167.5 -70.1716 167.5 -71C167.5 -71.8284 168.172 -72.5 169 -72.5C169.828 -72.5 170.5 -71.8284 170.5 -71Z" fill="#D5D7DA"/>
<path d="M193.5 -71C193.5 -70.1716 192.828 -69.5 192 -69.5C191.172 -69.5 190.5 -70.1716 190.5 -71C190.5 -71.8284 191.172 -72.5 192 -72.5C192.828 -72.5 193.5 -71.8284 193.5 -71Z" fill="#D5D7DA"/>
<path d="M216.5 -71C216.5 -70.1716 215.828 -69.5 215 -69.5C214.172 -69.5 213.5 -70.1716 213.5 -71C213.5 -71.8284 214.172 -72.5 215 -72.5C215.828 -72.5 216.5 -71.8284 216.5 -71Z" fill="#D5D7DA"/>
<path d="M239.5 -71C239.5 -70.1716 238.828 -69.5 238 -69.5C237.172 -69.5 236.5 -70.1716 236.5 -71C236.5 -71.8284 237.172 -72.5 238 -72.5C238.828 -72.5 239.5 -71.8284 239.5 -71Z" fill="#D5D7DA"/>
<path d="M262.5 -71C262.5 -70.1716 261.828 -69.5 261 -69.5C260.172 -69.5 259.5 -70.1716 259.5 -71C259.5 -71.8284 260.172 -72.5 261 -72.5C261.828 -72.5 262.5 -71.8284 262.5 -71Z" fill="#D5D7DA"/>
<path d="M285.5 -71C285.5 -70.1716 284.828 -69.5 284 -69.5C283.172 -69.5 282.5 -70.1716 282.5 -71C282.5 -71.8284 283.172 -72.5 284 -72.5C284.828 -72.5 285.5 -71.8284 285.5 -71Z" fill="#D5D7DA"/>
<path d="M308.5 -71C308.5 -70.1716 307.828 -69.5 307 -69.5C306.172 -69.5 305.5 -70.1716 305.5 -71C305.5 -71.8284 306.172 -72.5 307 -72.5C307.828 -72.5 308.5 -71.8284 308.5 -71Z" fill="#D5D7DA"/>
<path d="M331.5 -71C331.5 -70.1716 330.828 -69.5 330 -69.5C329.172 -69.5 328.5 -70.1716 328.5 -71C328.5 -71.8284 329.172 -72.5 330 -72.5C330.828 -72.5 331.5 -71.8284 331.5 -71Z" fill="#D5D7DA"/>
<path d="M354.5 -71C354.5 -70.1716 353.828 -69.5 353 -69.5C352.172 -69.5 351.5 -70.1716 351.5 -71C351.5 -71.8284 352.172 -72.5 353 -72.5C353.828 -72.5 354.5 -71.8284 354.5 -71Z" fill="#D5D7DA"/>
<path d="M377.5 -71C377.5 -70.1716 376.828 -69.5 376 -69.5C375.172 -69.5 374.5 -70.1716 374.5 -71C374.5 -71.8284 375.172 -72.5 376 -72.5C376.828 -72.5 377.5 -71.8284 377.5 -71Z" fill="#D5D7DA"/>
<path d="M400.5 -71C400.5 -70.1716 399.828 -69.5 399 -69.5C398.172 -69.5 397.5 -70.1716 397.5 -71C397.5 -71.8284 398.172 -72.5 399 -72.5C399.828 -72.5 400.5 -71.8284 400.5 -71Z" fill="#D5D7DA"/>
<path d="M423.5 -71C423.5 -70.1716 422.828 -69.5 422 -69.5C421.172 -69.5 420.5 -70.1716 420.5 -71C420.5 -71.8284 421.172 -72.5 422 -72.5C422.828 -72.5 423.5 -71.8284 423.5 -71Z" fill="#D5D7DA"/>
<path d="M-36.5 -48C-36.5 -47.1716 -37.1716 -46.5 -38 -46.5C-38.8284 -46.5 -39.5 -47.1716 -39.5 -48C-39.5 -48.8284 -38.8284 -49.5 -38 -49.5C-37.1716 -49.5 -36.5 -48.8284 -36.5 -48Z" fill="#D5D7DA"/>
<path d="M-13.5 -48C-13.5 -47.1716 -14.1716 -46.5 -15 -46.5C-15.8284 -46.5 -16.5 -47.1716 -16.5 -48C-16.5 -48.8284 -15.8284 -49.5 -15 -49.5C-14.1716 -49.5 -13.5 -48.8284 -13.5 -48Z" fill="#D5D7DA"/>
<path d="M9.5 -48C9.5 -47.1716 8.82843 -46.5 8 -46.5C7.17157 -46.5 6.5 -47.1716 6.5 -48C6.5 -48.8284 7.17157 -49.5 8 -49.5C8.82843 -49.5 9.5 -48.8284 9.5 -48Z" fill="#D5D7DA"/>
<path d="M32.5 -48C32.5 -47.1716 31.8284 -46.5 31 -46.5C30.1716 -46.5 29.5 -47.1716 29.5 -48C29.5 -48.8284 30.1716 -49.5 31 -49.5C31.8284 -49.5 32.5 -48.8284 32.5 -48Z" fill="#D5D7DA"/>
<path d="M55.5 -48C55.5 -47.1716 54.8284 -46.5 54 -46.5C53.1716 -46.5 52.5 -47.1716 52.5 -48C52.5 -48.8284 53.1716 -49.5 54 -49.5C54.8284 -49.5 55.5 -48.8284 55.5 -48Z" fill="#D5D7DA"/>
<path d="M78.5 -48C78.5 -47.1716 77.8284 -46.5 77 -46.5C76.1716 -46.5 75.5 -47.1716 75.5 -48C75.5 -48.8284 76.1716 -49.5 77 -49.5C77.8284 -49.5 78.5 -48.8284 78.5 -48Z" fill="#D5D7DA"/>
<path d="M101.5 -48C101.5 -47.1716 100.828 -46.5 100 -46.5C99.1716 -46.5 98.5 -47.1716 98.5 -48C98.5 -48.8284 99.1716 -49.5 100 -49.5C100.828 -49.5 101.5 -48.8284 101.5 -48Z" fill="#D5D7DA"/>
<path d="M124.5 -48C124.5 -47.1716 123.828 -46.5 123 -46.5C122.172 -46.5 121.5 -47.1716 121.5 -48C121.5 -48.8284 122.172 -49.5 123 -49.5C123.828 -49.5 124.5 -48.8284 124.5 -48Z" fill="#D5D7DA"/>
<path d="M147.5 -48C147.5 -47.1716 146.828 -46.5 146 -46.5C145.172 -46.5 144.5 -47.1716 144.5 -48C144.5 -48.8284 145.172 -49.5 146 -49.5C146.828 -49.5 147.5 -48.8284 147.5 -48Z" fill="#D5D7DA"/>
<path d="M170.5 -48C170.5 -47.1716 169.828 -46.5 169 -46.5C168.172 -46.5 167.5 -47.1716 167.5 -48C167.5 -48.8284 168.172 -49.5 169 -49.5C169.828 -49.5 170.5 -48.8284 170.5 -48Z" fill="#D5D7DA"/>
<path d="M193.5 -48C193.5 -47.1716 192.828 -46.5 192 -46.5C191.172 -46.5 190.5 -47.1716 190.5 -48C190.5 -48.8284 191.172 -49.5 192 -49.5C192.828 -49.5 193.5 -48.8284 193.5 -48Z" fill="#D5D7DA"/>
<path d="M216.5 -48C216.5 -47.1716 215.828 -46.5 215 -46.5C214.172 -46.5 213.5 -47.1716 213.5 -48C213.5 -48.8284 214.172 -49.5 215 -49.5C215.828 -49.5 216.5 -48.8284 216.5 -48Z" fill="#D5D7DA"/>
<path d="M239.5 -48C239.5 -47.1716 238.828 -46.5 238 -46.5C237.172 -46.5 236.5 -47.1716 236.5 -48C236.5 -48.8284 237.172 -49.5 238 -49.5C238.828 -49.5 239.5 -48.8284 239.5 -48Z" fill="#D5D7DA"/>
<path d="M262.5 -48C262.5 -47.1716 261.828 -46.5 261 -46.5C260.172 -46.5 259.5 -47.1716 259.5 -48C259.5 -48.8284 260.172 -49.5 261 -49.5C261.828 -49.5 262.5 -48.8284 262.5 -48Z" fill="#D5D7DA"/>
<path d="M285.5 -48C285.5 -47.1716 284.828 -46.5 284 -46.5C283.172 -46.5 282.5 -47.1716 282.5 -48C282.5 -48.8284 283.172 -49.5 284 -49.5C284.828 -49.5 285.5 -48.8284 285.5 -48Z" fill="#D5D7DA"/>
<path d="M308.5 -48C308.5 -47.1716 307.828 -46.5 307 -46.5C306.172 -46.5 305.5 -47.1716 305.5 -48C305.5 -48.8284 306.172 -49.5 307 -49.5C307.828 -49.5 308.5 -48.8284 308.5 -48Z" fill="#D5D7DA"/>
<path d="M331.5 -48C331.5 -47.1716 330.828 -46.5 330 -46.5C329.172 -46.5 328.5 -47.1716 328.5 -48C328.5 -48.8284 329.172 -49.5 330 -49.5C330.828 -49.5 331.5 -48.8284 331.5 -48Z" fill="#D5D7DA"/>
<path d="M354.5 -48C354.5 -47.1716 353.828 -46.5 353 -46.5C352.172 -46.5 351.5 -47.1716 351.5 -48C351.5 -48.8284 352.172 -49.5 353 -49.5C353.828 -49.5 354.5 -48.8284 354.5 -48Z" fill="#D5D7DA"/>
<path d="M377.5 -48C377.5 -47.1716 376.828 -46.5 376 -46.5C375.172 -46.5 374.5 -47.1716 374.5 -48C374.5 -48.8284 375.172 -49.5 376 -49.5C376.828 -49.5 377.5 -48.8284 377.5 -48Z" fill="#D5D7DA"/>
<path d="M400.5 -48C400.5 -47.1716 399.828 -46.5 399 -46.5C398.172 -46.5 397.5 -47.1716 397.5 -48C397.5 -48.8284 398.172 -49.5 399 -49.5C399.828 -49.5 400.5 -48.8284 400.5 -48Z" fill="#D5D7DA"/>
<path d="M423.5 -48C423.5 -47.1716 422.828 -46.5 422 -46.5C421.172 -46.5 420.5 -47.1716 420.5 -48C420.5 -48.8284 421.172 -49.5 422 -49.5C422.828 -49.5 423.5 -48.8284 423.5 -48Z" fill="#D5D7DA"/>
<path d="M-36.5 -25C-36.5 -24.1716 -37.1716 -23.5 -38 -23.5C-38.8284 -23.5 -39.5 -24.1716 -39.5 -25C-39.5 -25.8284 -38.8284 -26.5 -38 -26.5C-37.1716 -26.5 -36.5 -25.8284 -36.5 -25Z" fill="#D5D7DA"/>
<path d="M-13.5 -25C-13.5 -24.1716 -14.1716 -23.5 -15 -23.5C-15.8284 -23.5 -16.5 -24.1716 -16.5 -25C-16.5 -25.8284 -15.8284 -26.5 -15 -26.5C-14.1716 -26.5 -13.5 -25.8284 -13.5 -25Z" fill="#D5D7DA"/>
<path d="M9.5 -25C9.5 -24.1716 8.82843 -23.5 8 -23.5C7.17157 -23.5 6.5 -24.1716 6.5 -25C6.5 -25.8284 7.17157 -26.5 8 -26.5C8.82843 -26.5 9.5 -25.8284 9.5 -25Z" fill="#D5D7DA"/>
<path d="M32.5 -25C32.5 -24.1716 31.8284 -23.5 31 -23.5C30.1716 -23.5 29.5 -24.1716 29.5 -25C29.5 -25.8284 30.1716 -26.5 31 -26.5C31.8284 -26.5 32.5 -25.8284 32.5 -25Z" fill="#D5D7DA"/>
<path d="M55.5 -25C55.5 -24.1716 54.8284 -23.5 54 -23.5C53.1716 -23.5 52.5 -24.1716 52.5 -25C52.5 -25.8284 53.1716 -26.5 54 -26.5C54.8284 -26.5 55.5 -25.8284 55.5 -25Z" fill="#D5D7DA"/>
<path d="M78.5 -25C78.5 -24.1716 77.8284 -23.5 77 -23.5C76.1716 -23.5 75.5 -24.1716 75.5 -25C75.5 -25.8284 76.1716 -26.5 77 -26.5C77.8284 -26.5 78.5 -25.8284 78.5 -25Z" fill="#D5D7DA"/>
<path d="M101.5 -25C101.5 -24.1716 100.828 -23.5 100 -23.5C99.1716 -23.5 98.5 -24.1716 98.5 -25C98.5 -25.8284 99.1716 -26.5 100 -26.5C100.828 -26.5 101.5 -25.8284 101.5 -25Z" fill="#D5D7DA"/>
<path d="M124.5 -25C124.5 -24.1716 123.828 -23.5 123 -23.5C122.172 -23.5 121.5 -24.1716 121.5 -25C121.5 -25.8284 122.172 -26.5 123 -26.5C123.828 -26.5 124.5 -25.8284 124.5 -25Z" fill="#D5D7DA"/>
<path d="M147.5 -25C147.5 -24.1716 146.828 -23.5 146 -23.5C145.172 -23.5 144.5 -24.1716 144.5 -25C144.5 -25.8284 145.172 -26.5 146 -26.5C146.828 -26.5 147.5 -25.8284 147.5 -25Z" fill="#D5D7DA"/>
<path d="M170.5 -25C170.5 -24.1716 169.828 -23.5 169 -23.5C168.172 -23.5 167.5 -24.1716 167.5 -25C167.5 -25.8284 168.172 -26.5 169 -26.5C169.828 -26.5 170.5 -25.8284 170.5 -25Z" fill="#D5D7DA"/>
<path d="M193.5 -25C193.5 -24.1716 192.828 -23.5 192 -23.5C191.172 -23.5 190.5 -24.1716 190.5 -25C190.5 -25.8284 191.172 -26.5 192 -26.5C192.828 -26.5 193.5 -25.8284 193.5 -25Z" fill="#D5D7DA"/>
<path d="M216.5 -25C216.5 -24.1716 215.828 -23.5 215 -23.5C214.172 -23.5 213.5 -24.1716 213.5 -25C213.5 -25.8284 214.172 -26.5 215 -26.5C215.828 -26.5 216.5 -25.8284 216.5 -25Z" fill="#D5D7DA"/>
<path d="M239.5 -25C239.5 -24.1716 238.828 -23.5 238 -23.5C237.172 -23.5 236.5 -24.1716 236.5 -25C236.5 -25.8284 237.172 -26.5 238 -26.5C238.828 -26.5 239.5 -25.8284 239.5 -25Z" fill="#D5D7DA"/>
<path d="M262.5 -25C262.5 -24.1716 261.828 -23.5 261 -23.5C260.172 -23.5 259.5 -24.1716 259.5 -25C259.5 -25.8284 260.172 -26.5 261 -26.5C261.828 -26.5 262.5 -25.8284 262.5 -25Z" fill="#D5D7DA"/>
<path d="M285.5 -25C285.5 -24.1716 284.828 -23.5 284 -23.5C283.172 -23.5 282.5 -24.1716 282.5 -25C282.5 -25.8284 283.172 -26.5 284 -26.5C284.828 -26.5 285.5 -25.8284 285.5 -25Z" fill="#D5D7DA"/>
<path d="M308.5 -25C308.5 -24.1716 307.828 -23.5 307 -23.5C306.172 -23.5 305.5 -24.1716 305.5 -25C305.5 -25.8284 306.172 -26.5 307 -26.5C307.828 -26.5 308.5 -25.8284 308.5 -25Z" fill="#D5D7DA"/>
<path d="M331.5 -25C331.5 -24.1716 330.828 -23.5 330 -23.5C329.172 -23.5 328.5 -24.1716 328.5 -25C328.5 -25.8284 329.172 -26.5 330 -26.5C330.828 -26.5 331.5 -25.8284 331.5 -25Z" fill="#D5D7DA"/>
<path d="M354.5 -25C354.5 -24.1716 353.828 -23.5 353 -23.5C352.172 -23.5 351.5 -24.1716 351.5 -25C351.5 -25.8284 352.172 -26.5 353 -26.5C353.828 -26.5 354.5 -25.8284 354.5 -25Z" fill="#D5D7DA"/>
<path d="M377.5 -25C377.5 -24.1716 376.828 -23.5 376 -23.5C375.172 -23.5 374.5 -24.1716 374.5 -25C374.5 -25.8284 375.172 -26.5 376 -26.5C376.828 -26.5 377.5 -25.8284 377.5 -25Z" fill="#D5D7DA"/>
<path d="M400.5 -25C400.5 -24.1716 399.828 -23.5 399 -23.5C398.172 -23.5 397.5 -24.1716 397.5 -25C397.5 -25.8284 398.172 -26.5 399 -26.5C399.828 -26.5 400.5 -25.8284 400.5 -25Z" fill="#D5D7DA"/>
<path d="M423.5 -25C423.5 -24.1716 422.828 -23.5 422 -23.5C421.172 -23.5 420.5 -24.1716 420.5 -25C420.5 -25.8284 421.172 -26.5 422 -26.5C422.828 -26.5 423.5 -25.8284 423.5 -25Z" fill="#D5D7DA"/>
<path d="M-36.5 -2C-36.5 -1.17157 -37.1716 -0.5 -38 -0.5C-38.8284 -0.5 -39.5 -1.17157 -39.5 -2C-39.5 -2.82843 -38.8284 -3.5 -38 -3.5C-37.1716 -3.5 -36.5 -2.82843 -36.5 -2Z" fill="#D5D7DA"/>
<path d="M-13.5 -2C-13.5 -1.17157 -14.1716 -0.5 -15 -0.5C-15.8284 -0.5 -16.5 -1.17157 -16.5 -2C-16.5 -2.82843 -15.8284 -3.5 -15 -3.5C-14.1716 -3.5 -13.5 -2.82843 -13.5 -2Z" fill="#D5D7DA"/>
<path d="M9.5 -2C9.5 -1.17157 8.82843 -0.5 8 -0.5C7.17157 -0.5 6.5 -1.17157 6.5 -2C6.5 -2.82843 7.17157 -3.5 8 -3.5C8.82843 -3.5 9.5 -2.82843 9.5 -2Z" fill="#D5D7DA"/>
<path d="M32.5 -2C32.5 -1.17157 31.8284 -0.5 31 -0.5C30.1716 -0.5 29.5 -1.17157 29.5 -2C29.5 -2.82843 30.1716 -3.5 31 -3.5C31.8284 -3.5 32.5 -2.82843 32.5 -2Z" fill="#D5D7DA"/>
<path d="M55.5 -2C55.5 -1.17157 54.8284 -0.5 54 -0.5C53.1716 -0.5 52.5 -1.17157 52.5 -2C52.5 -2.82843 53.1716 -3.5 54 -3.5C54.8284 -3.5 55.5 -2.82843 55.5 -2Z" fill="#D5D7DA"/>
<path d="M78.5 -2C78.5 -1.17157 77.8284 -0.5 77 -0.5C76.1716 -0.5 75.5 -1.17157 75.5 -2C75.5 -2.82843 76.1716 -3.5 77 -3.5C77.8284 -3.5 78.5 -2.82843 78.5 -2Z" fill="#D5D7DA"/>
<path d="M101.5 -2C101.5 -1.17157 100.828 -0.5 100 -0.5C99.1716 -0.5 98.5 -1.17157 98.5 -2C98.5 -2.82843 99.1716 -3.5 100 -3.5C100.828 -3.5 101.5 -2.82843 101.5 -2Z" fill="#D5D7DA"/>
<path d="M124.5 -2C124.5 -1.17157 123.828 -0.5 123 -0.5C122.172 -0.5 121.5 -1.17157 121.5 -2C121.5 -2.82843 122.172 -3.5 123 -3.5C123.828 -3.5 124.5 -2.82843 124.5 -2Z" fill="#D5D7DA"/>
<path d="M147.5 -2C147.5 -1.17157 146.828 -0.5 146 -0.5C145.172 -0.5 144.5 -1.17157 144.5 -2C144.5 -2.82843 145.172 -3.5 146 -3.5C146.828 -3.5 147.5 -2.82843 147.5 -2Z" fill="#D5D7DA"/>
<path d="M170.5 -2C170.5 -1.17157 169.828 -0.5 169 -0.5C168.172 -0.5 167.5 -1.17157 167.5 -2C167.5 -2.82843 168.172 -3.5 169 -3.5C169.828 -3.5 170.5 -2.82843 170.5 -2Z" fill="#D5D7DA"/>
<path d="M193.5 -2C193.5 -1.17157 192.828 -0.5 192 -0.5C191.172 -0.5 190.5 -1.17157 190.5 -2C190.5 -2.82843 191.172 -3.5 192 -3.5C192.828 -3.5 193.5 -2.82843 193.5 -2Z" fill="#D5D7DA"/>
<path d="M216.5 -2C216.5 -1.17157 215.828 -0.5 215 -0.5C214.172 -0.5 213.5 -1.17157 213.5 -2C213.5 -2.82843 214.172 -3.5 215 -3.5C215.828 -3.5 216.5 -2.82843 216.5 -2Z" fill="#D5D7DA"/>
<path d="M239.5 -2C239.5 -1.17157 238.828 -0.5 238 -0.5C237.172 -0.5 236.5 -1.17157 236.5 -2C236.5 -2.82843 237.172 -3.5 238 -3.5C238.828 -3.5 239.5 -2.82843 239.5 -2Z" fill="#D5D7DA"/>
<path d="M262.5 -2C262.5 -1.17157 261.828 -0.5 261 -0.5C260.172 -0.5 259.5 -1.17157 259.5 -2C259.5 -2.82843 260.172 -3.5 261 -3.5C261.828 -3.5 262.5 -2.82843 262.5 -2Z" fill="#D5D7DA"/>
<path d="M285.5 -2C285.5 -1.17157 284.828 -0.5 284 -0.5C283.172 -0.5 282.5 -1.17157 282.5 -2C282.5 -2.82843 283.172 -3.5 284 -3.5C284.828 -3.5 285.5 -2.82843 285.5 -2Z" fill="#D5D7DA"/>
<path d="M308.5 -2C308.5 -1.17157 307.828 -0.5 307 -0.5C306.172 -0.5 305.5 -1.17157 305.5 -2C305.5 -2.82843 306.172 -3.5 307 -3.5C307.828 -3.5 308.5 -2.82843 308.5 -2Z" fill="#D5D7DA"/>
<path d="M331.5 -2C331.5 -1.17157 330.828 -0.5 330 -0.5C329.172 -0.5 328.5 -1.17157 328.5 -2C328.5 -2.82843 329.172 -3.5 330 -3.5C330.828 -3.5 331.5 -2.82843 331.5 -2Z" fill="#D5D7DA"/>
<path d="M354.5 -2C354.5 -1.17157 353.828 -0.5 353 -0.5C352.172 -0.5 351.5 -1.17157 351.5 -2C351.5 -2.82843 352.172 -3.5 353 -3.5C353.828 -3.5 354.5 -2.82843 354.5 -2Z" fill="#D5D7DA"/>
<path d="M377.5 -2C377.5 -1.17157 376.828 -0.5 376 -0.5C375.172 -0.5 374.5 -1.17157 374.5 -2C374.5 -2.82843 375.172 -3.5 376 -3.5C376.828 -3.5 377.5 -2.82843 377.5 -2Z" fill="#D5D7DA"/>
<path d="M400.5 -2C400.5 -1.17157 399.828 -0.5 399 -0.5C398.172 -0.5 397.5 -1.17157 397.5 -2C397.5 -2.82843 398.172 -3.5 399 -3.5C399.828 -3.5 400.5 -2.82843 400.5 -2Z" fill="#D5D7DA"/>
<path d="M423.5 -2C423.5 -1.17157 422.828 -0.5 422 -0.5C421.172 -0.5 420.5 -1.17157 420.5 -2C420.5 -2.82843 421.172 -3.5 422 -3.5C422.828 -3.5 423.5 -2.82843 423.5 -2Z" fill="#D5D7DA"/>
<path d="M-36.5 21C-36.5 21.8284 -37.1716 22.5 -38 22.5C-38.8284 22.5 -39.5 21.8284 -39.5 21C-39.5 20.1716 -38.8284 19.5 -38 19.5C-37.1716 19.5 -36.5 20.1716 -36.5 21Z" fill="#D5D7DA"/>
<path d="M-13.5 21C-13.5 21.8284 -14.1716 22.5 -15 22.5C-15.8284 22.5 -16.5 21.8284 -16.5 21C-16.5 20.1716 -15.8284 19.5 -15 19.5C-14.1716 19.5 -13.5 20.1716 -13.5 21Z" fill="#D5D7DA"/>
<path d="M9.5 21C9.5 21.8284 8.82843 22.5 8 22.5C7.17157 22.5 6.5 21.8284 6.5 21C6.5 20.1716 7.17157 19.5 8 19.5C8.82843 19.5 9.5 20.1716 9.5 21Z" fill="#D5D7DA"/>
<path d="M32.5 21C32.5 21.8284 31.8284 22.5 31 22.5C30.1716 22.5 29.5 21.8284 29.5 21C29.5 20.1716 30.1716 19.5 31 19.5C31.8284 19.5 32.5 20.1716 32.5 21Z" fill="#D5D7DA"/>
<path d="M55.5 21C55.5 21.8284 54.8284 22.5 54 22.5C53.1716 22.5 52.5 21.8284 52.5 21C52.5 20.1716 53.1716 19.5 54 19.5C54.8284 19.5 55.5 20.1716 55.5 21Z" fill="#D5D7DA"/>
<path d="M78.5 21C78.5 21.8284 77.8284 22.5 77 22.5C76.1716 22.5 75.5 21.8284 75.5 21C75.5 20.1716 76.1716 19.5 77 19.5C77.8284 19.5 78.5 20.1716 78.5 21Z" fill="#D5D7DA"/>
<path d="M101.5 21C101.5 21.8284 100.828 22.5 100 22.5C99.1716 22.5 98.5 21.8284 98.5 21C98.5 20.1716 99.1716 19.5 100 19.5C100.828 19.5 101.5 20.1716 101.5 21Z" fill="#D5D7DA"/>
<path d="M124.5 21C124.5 21.8284 123.828 22.5 123 22.5C122.172 22.5 121.5 21.8284 121.5 21C121.5 20.1716 122.172 19.5 123 19.5C123.828 19.5 124.5 20.1716 124.5 21Z" fill="#D5D7DA"/>
<path d="M147.5 21C147.5 21.8284 146.828 22.5 146 22.5C145.172 22.5 144.5 21.8284 144.5 21C144.5 20.1716 145.172 19.5 146 19.5C146.828 19.5 147.5 20.1716 147.5 21Z" fill="#D5D7DA"/>
<path d="M170.5 21C170.5 21.8284 169.828 22.5 169 22.5C168.172 22.5 167.5 21.8284 167.5 21C167.5 20.1716 168.172 19.5 169 19.5C169.828 19.5 170.5 20.1716 170.5 21Z" fill="#D5D7DA"/>
<path d="M193.5 21C193.5 21.8284 192.828 22.5 192 22.5C191.172 22.5 190.5 21.8284 190.5 21C190.5 20.1716 191.172 19.5 192 19.5C192.828 19.5 193.5 20.1716 193.5 21Z" fill="#D5D7DA"/>
<path d="M216.5 21C216.5 21.8284 215.828 22.5 215 22.5C214.172 22.5 213.5 21.8284 213.5 21C213.5 20.1716 214.172 19.5 215 19.5C215.828 19.5 216.5 20.1716 216.5 21Z" fill="#D5D7DA"/>
<path d="M239.5 21C239.5 21.8284 238.828 22.5 238 22.5C237.172 22.5 236.5 21.8284 236.5 21C236.5 20.1716 237.172 19.5 238 19.5C238.828 19.5 239.5 20.1716 239.5 21Z" fill="#D5D7DA"/>
<path d="M262.5 21C262.5 21.8284 261.828 22.5 261 22.5C260.172 22.5 259.5 21.8284 259.5 21C259.5 20.1716 260.172 19.5 261 19.5C261.828 19.5 262.5 20.1716 262.5 21Z" fill="#D5D7DA"/>
<path d="M285.5 21C285.5 21.8284 284.828 22.5 284 22.5C283.172 22.5 282.5 21.8284 282.5 21C282.5 20.1716 283.172 19.5 284 19.5C284.828 19.5 285.5 20.1716 285.5 21Z" fill="#D5D7DA"/>
<path d="M308.5 21C308.5 21.8284 307.828 22.5 307 22.5C306.172 22.5 305.5 21.8284 305.5 21C305.5 20.1716 306.172 19.5 307 19.5C307.828 19.5 308.5 20.1716 308.5 21Z" fill="#D5D7DA"/>
<path d="M331.5 21C331.5 21.8284 330.828 22.5 330 22.5C329.172 22.5 328.5 21.8284 328.5 21C328.5 20.1716 329.172 19.5 330 19.5C330.828 19.5 331.5 20.1716 331.5 21Z" fill="#D5D7DA"/>
<path d="M354.5 21C354.5 21.8284 353.828 22.5 353 22.5C352.172 22.5 351.5 21.8284 351.5 21C351.5 20.1716 352.172 19.5 353 19.5C353.828 19.5 354.5 20.1716 354.5 21Z" fill="#D5D7DA"/>
<path d="M377.5 21C377.5 21.8284 376.828 22.5 376 22.5C375.172 22.5 374.5 21.8284 374.5 21C374.5 20.1716 375.172 19.5 376 19.5C376.828 19.5 377.5 20.1716 377.5 21Z" fill="#D5D7DA"/>
<path d="M400.5 21C400.5 21.8284 399.828 22.5 399 22.5C398.172 22.5 397.5 21.8284 397.5 21C397.5 20.1716 398.172 19.5 399 19.5C399.828 19.5 400.5 20.1716 400.5 21Z" fill="#D5D7DA"/>
<path d="M423.5 21C423.5 21.8284 422.828 22.5 422 22.5C421.172 22.5 420.5 21.8284 420.5 21C420.5 20.1716 421.172 19.5 422 19.5C422.828 19.5 423.5 20.1716 423.5 21Z" fill="#D5D7DA"/>
<path d="M-36.5 44C-36.5 44.8284 -37.1716 45.5 -38 45.5C-38.8284 45.5 -39.5 44.8284 -39.5 44C-39.5 43.1716 -38.8284 42.5 -38 42.5C-37.1716 42.5 -36.5 43.1716 -36.5 44Z" fill="#D5D7DA"/>
<path d="M-13.5 44C-13.5 44.8284 -14.1716 45.5 -15 45.5C-15.8284 45.5 -16.5 44.8284 -16.5 44C-16.5 43.1716 -15.8284 42.5 -15 42.5C-14.1716 42.5 -13.5 43.1716 -13.5 44Z" fill="#D5D7DA"/>
<path d="M9.5 44C9.5 44.8284 8.82843 45.5 8 45.5C7.17157 45.5 6.5 44.8284 6.5 44C6.5 43.1716 7.17157 42.5 8 42.5C8.82843 42.5 9.5 43.1716 9.5 44Z" fill="#D5D7DA"/>
<path d="M32.5 44C32.5 44.8284 31.8284 45.5 31 45.5C30.1716 45.5 29.5 44.8284 29.5 44C29.5 43.1716 30.1716 42.5 31 42.5C31.8284 42.5 32.5 43.1716 32.5 44Z" fill="#D5D7DA"/>
<path d="M55.5 44C55.5 44.8284 54.8284 45.5 54 45.5C53.1716 45.5 52.5 44.8284 52.5 44C52.5 43.1716 53.1716 42.5 54 42.5C54.8284 42.5 55.5 43.1716 55.5 44Z" fill="#D5D7DA"/>
<path d="M78.5 44C78.5 44.8284 77.8284 45.5 77 45.5C76.1716 45.5 75.5 44.8284 75.5 44C75.5 43.1716 76.1716 42.5 77 42.5C77.8284 42.5 78.5 43.1716 78.5 44Z" fill="#D5D7DA"/>
<path d="M101.5 44C101.5 44.8284 100.828 45.5 100 45.5C99.1716 45.5 98.5 44.8284 98.5 44C98.5 43.1716 99.1716 42.5 100 42.5C100.828 42.5 101.5 43.1716 101.5 44Z" fill="#D5D7DA"/>
<path d="M124.5 44C124.5 44.8284 123.828 45.5 123 45.5C122.172 45.5 121.5 44.8284 121.5 44C121.5 43.1716 122.172 42.5 123 42.5C123.828 42.5 124.5 43.1716 124.5 44Z" fill="#D5D7DA"/>
<path d="M147.5 44C147.5 44.8284 146.828 45.5 146 45.5C145.172 45.5 144.5 44.8284 144.5 44C144.5 43.1716 145.172 42.5 146 42.5C146.828 42.5 147.5 43.1716 147.5 44Z" fill="#D5D7DA"/>
<path d="M170.5 44C170.5 44.8284 169.828 45.5 169 45.5C168.172 45.5 167.5 44.8284 167.5 44C167.5 43.1716 168.172 42.5 169 42.5C169.828 42.5 170.5 43.1716 170.5 44Z" fill="#D5D7DA"/>
<path d="M193.5 44C193.5 44.8284 192.828 45.5 192 45.5C191.172 45.5 190.5 44.8284 190.5 44C190.5 43.1716 191.172 42.5 192 42.5C192.828 42.5 193.5 43.1716 193.5 44Z" fill="#D5D7DA"/>
<path d="M216.5 44C216.5 44.8284 215.828 45.5 215 45.5C214.172 45.5 213.5 44.8284 213.5 44C213.5 43.1716 214.172 42.5 215 42.5C215.828 42.5 216.5 43.1716 216.5 44Z" fill="#D5D7DA"/>
<path d="M239.5 44C239.5 44.8284 238.828 45.5 238 45.5C237.172 45.5 236.5 44.8284 236.5 44C236.5 43.1716 237.172 42.5 238 42.5C238.828 42.5 239.5 43.1716 239.5 44Z" fill="#D5D7DA"/>
<path d="M262.5 44C262.5 44.8284 261.828 45.5 261 45.5C260.172 45.5 259.5 44.8284 259.5 44C259.5 43.1716 260.172 42.5 261 42.5C261.828 42.5 262.5 43.1716 262.5 44Z" fill="#D5D7DA"/>
<path d="M285.5 44C285.5 44.8284 284.828 45.5 284 45.5C283.172 45.5 282.5 44.8284 282.5 44C282.5 43.1716 283.172 42.5 284 42.5C284.828 42.5 285.5 43.1716 285.5 44Z" fill="#D5D7DA"/>
<path d="M308.5 44C308.5 44.8284 307.828 45.5 307 45.5C306.172 45.5 305.5 44.8284 305.5 44C305.5 43.1716 306.172 42.5 307 42.5C307.828 42.5 308.5 43.1716 308.5 44Z" fill="#D5D7DA"/>
<path d="M331.5 44C331.5 44.8284 330.828 45.5 330 45.5C329.172 45.5 328.5 44.8284 328.5 44C328.5 43.1716 329.172 42.5 330 42.5C330.828 42.5 331.5 43.1716 331.5 44Z" fill="#D5D7DA"/>
<path d="M354.5 44C354.5 44.8284 353.828 45.5 353 45.5C352.172 45.5 351.5 44.8284 351.5 44C351.5 43.1716 352.172 42.5 353 42.5C353.828 42.5 354.5 43.1716 354.5 44Z" fill="#D5D7DA"/>
<path d="M377.5 44C377.5 44.8284 376.828 45.5 376 45.5C375.172 45.5 374.5 44.8284 374.5 44C374.5 43.1716 375.172 42.5 376 42.5C376.828 42.5 377.5 43.1716 377.5 44Z" fill="#D5D7DA"/>
<path d="M400.5 44C400.5 44.8284 399.828 45.5 399 45.5C398.172 45.5 397.5 44.8284 397.5 44C397.5 43.1716 398.172 42.5 399 42.5C399.828 42.5 400.5 43.1716 400.5 44Z" fill="#D5D7DA"/>
<path d="M423.5 44C423.5 44.8284 422.828 45.5 422 45.5C421.172 45.5 420.5 44.8284 420.5 44C420.5 43.1716 421.172 42.5 422 42.5C422.828 42.5 423.5 43.1716 423.5 44Z" fill="#D5D7DA"/>
<path d="M-36.5 67C-36.5 67.8284 -37.1716 68.5 -38 68.5C-38.8284 68.5 -39.5 67.8284 -39.5 67C-39.5 66.1716 -38.8284 65.5 -38 65.5C-37.1716 65.5 -36.5 66.1716 -36.5 67Z" fill="#D5D7DA"/>
<path d="M-13.5 67C-13.5 67.8284 -14.1716 68.5 -15 68.5C-15.8284 68.5 -16.5 67.8284 -16.5 67C-16.5 66.1716 -15.8284 65.5 -15 65.5C-14.1716 65.5 -13.5 66.1716 -13.5 67Z" fill="#D5D7DA"/>
<path d="M9.5 67C9.5 67.8284 8.82843 68.5 8 68.5C7.17157 68.5 6.5 67.8284 6.5 67C6.5 66.1716 7.17157 65.5 8 65.5C8.82843 65.5 9.5 66.1716 9.5 67Z" fill="#D5D7DA"/>
<path d="M32.5 67C32.5 67.8284 31.8284 68.5 31 68.5C30.1716 68.5 29.5 67.8284 29.5 67C29.5 66.1716 30.1716 65.5 31 65.5C31.8284 65.5 32.5 66.1716 32.5 67Z" fill="#D5D7DA"/>
<path d="M55.5 67C55.5 67.8284 54.8284 68.5 54 68.5C53.1716 68.5 52.5 67.8284 52.5 67C52.5 66.1716 53.1716 65.5 54 65.5C54.8284 65.5 55.5 66.1716 55.5 67Z" fill="#D5D7DA"/>
<path d="M78.5 67C78.5 67.8284 77.8284 68.5 77 68.5C76.1716 68.5 75.5 67.8284 75.5 67C75.5 66.1716 76.1716 65.5 77 65.5C77.8284 65.5 78.5 66.1716 78.5 67Z" fill="#D5D7DA"/>
<path d="M101.5 67C101.5 67.8284 100.828 68.5 100 68.5C99.1716 68.5 98.5 67.8284 98.5 67C98.5 66.1716 99.1716 65.5 100 65.5C100.828 65.5 101.5 66.1716 101.5 67Z" fill="#D5D7DA"/>
<path d="M124.5 67C124.5 67.8284 123.828 68.5 123 68.5C122.172 68.5 121.5 67.8284 121.5 67C121.5 66.1716 122.172 65.5 123 65.5C123.828 65.5 124.5 66.1716 124.5 67Z" fill="#D5D7DA"/>
<path d="M147.5 67C147.5 67.8284 146.828 68.5 146 68.5C145.172 68.5 144.5 67.8284 144.5 67C144.5 66.1716 145.172 65.5 146 65.5C146.828 65.5 147.5 66.1716 147.5 67Z" fill="#D5D7DA"/>
<path d="M170.5 67C170.5 67.8284 169.828 68.5 169 68.5C168.172 68.5 167.5 67.8284 167.5 67C167.5 66.1716 168.172 65.5 169 65.5C169.828 65.5 170.5 66.1716 170.5 67Z" fill="#D5D7DA"/>
<path d="M193.5 67C193.5 67.8284 192.828 68.5 192 68.5C191.172 68.5 190.5 67.8284 190.5 67C190.5 66.1716 191.172 65.5 192 65.5C192.828 65.5 193.5 66.1716 193.5 67Z" fill="#D5D7DA"/>
<path d="M216.5 67C216.5 67.8284 215.828 68.5 215 68.5C214.172 68.5 213.5 67.8284 213.5 67C213.5 66.1716 214.172 65.5 215 65.5C215.828 65.5 216.5 66.1716 216.5 67Z" fill="#D5D7DA"/>
<path d="M239.5 67C239.5 67.8284 238.828 68.5 238 68.5C237.172 68.5 236.5 67.8284 236.5 67C236.5 66.1716 237.172 65.5 238 65.5C238.828 65.5 239.5 66.1716 239.5 67Z" fill="#D5D7DA"/>
<path d="M262.5 67C262.5 67.8284 261.828 68.5 261 68.5C260.172 68.5 259.5 67.8284 259.5 67C259.5 66.1716 260.172 65.5 261 65.5C261.828 65.5 262.5 66.1716 262.5 67Z" fill="#D5D7DA"/>
<path d="M285.5 67C285.5 67.8284 284.828 68.5 284 68.5C283.172 68.5 282.5 67.8284 282.5 67C282.5 66.1716 283.172 65.5 284 65.5C284.828 65.5 285.5 66.1716 285.5 67Z" fill="#D5D7DA"/>
<path d="M308.5 67C308.5 67.8284 307.828 68.5 307 68.5C306.172 68.5 305.5 67.8284 305.5 67C305.5 66.1716 306.172 65.5 307 65.5C307.828 65.5 308.5 66.1716 308.5 67Z" fill="#D5D7DA"/>
<path d="M331.5 67C331.5 67.8284 330.828 68.5 330 68.5C329.172 68.5 328.5 67.8284 328.5 67C328.5 66.1716 329.172 65.5 330 65.5C330.828 65.5 331.5 66.1716 331.5 67Z" fill="#D5D7DA"/>
<path d="M354.5 67C354.5 67.8284 353.828 68.5 353 68.5C352.172 68.5 351.5 67.8284 351.5 67C351.5 66.1716 352.172 65.5 353 65.5C353.828 65.5 354.5 66.1716 354.5 67Z" fill="#D5D7DA"/>
<path d="M377.5 67C377.5 67.8284 376.828 68.5 376 68.5C375.172 68.5 374.5 67.8284 374.5 67C374.5 66.1716 375.172 65.5 376 65.5C376.828 65.5 377.5 66.1716 377.5 67Z" fill="#D5D7DA"/>
<path d="M400.5 67C400.5 67.8284 399.828 68.5 399 68.5C398.172 68.5 397.5 67.8284 397.5 67C397.5 66.1716 398.172 65.5 399 65.5C399.828 65.5 400.5 66.1716 400.5 67Z" fill="#D5D7DA"/>
<path d="M423.5 67C423.5 67.8284 422.828 68.5 422 68.5C421.172 68.5 420.5 67.8284 420.5 67C420.5 66.1716 421.172 65.5 422 65.5C422.828 65.5 423.5 66.1716 423.5 67Z" fill="#D5D7DA"/>
<path d="M-36.5 90C-36.5 90.8284 -37.1716 91.5 -38 91.5C-38.8284 91.5 -39.5 90.8284 -39.5 90C-39.5 89.1716 -38.8284 88.5 -38 88.5C-37.1716 88.5 -36.5 89.1716 -36.5 90Z" fill="#D5D7DA"/>
<path d="M-13.5 90C-13.5 90.8284 -14.1716 91.5 -15 91.5C-15.8284 91.5 -16.5 90.8284 -16.5 90C-16.5 89.1716 -15.8284 88.5 -15 88.5C-14.1716 88.5 -13.5 89.1716 -13.5 90Z" fill="#D5D7DA"/>
<path d="M9.5 90C9.5 90.8284 8.82843 91.5 8 91.5C7.17157 91.5 6.5 90.8284 6.5 90C6.5 89.1716 7.17157 88.5 8 88.5C8.82843 88.5 9.5 89.1716 9.5 90Z" fill="#D5D7DA"/>
<path d="M32.5 90C32.5 90.8284 31.8284 91.5 31 91.5C30.1716 91.5 29.5 90.8284 29.5 90C29.5 89.1716 30.1716 88.5 31 88.5C31.8284 88.5 32.5 89.1716 32.5 90Z" fill="#D5D7DA"/>
<path d="M55.5 90C55.5 90.8284 54.8284 91.5 54 91.5C53.1716 91.5 52.5 90.8284 52.5 90C52.5 89.1716 53.1716 88.5 54 88.5C54.8284 88.5 55.5 89.1716 55.5 90Z" fill="#D5D7DA"/>
<path d="M78.5 90C78.5 90.8284 77.8284 91.5 77 91.5C76.1716 91.5 75.5 90.8284 75.5 90C75.5 89.1716 76.1716 88.5 77 88.5C77.8284 88.5 78.5 89.1716 78.5 90Z" fill="#D5D7DA"/>
<path d="M101.5 90C101.5 90.8284 100.828 91.5 100 91.5C99.1716 91.5 98.5 90.8284 98.5 90C98.5 89.1716 99.1716 88.5 100 88.5C100.828 88.5 101.5 89.1716 101.5 90Z" fill="#D5D7DA"/>
<path d="M124.5 90C124.5 90.8284 123.828 91.5 123 91.5C122.172 91.5 121.5 90.8284 121.5 90C121.5 89.1716 122.172 88.5 123 88.5C123.828 88.5 124.5 89.1716 124.5 90Z" fill="#D5D7DA"/>
<path d="M147.5 90C147.5 90.8284 146.828 91.5 146 91.5C145.172 91.5 144.5 90.8284 144.5 90C144.5 89.1716 145.172 88.5 146 88.5C146.828 88.5 147.5 89.1716 147.5 90Z" fill="#D5D7DA"/>
<path d="M170.5 90C170.5 90.8284 169.828 91.5 169 91.5C168.172 91.5 167.5 90.8284 167.5 90C167.5 89.1716 168.172 88.5 169 88.5C169.828 88.5 170.5 89.1716 170.5 90Z" fill="#D5D7DA"/>
<path d="M193.5 90C193.5 90.8284 192.828 91.5 192 91.5C191.172 91.5 190.5 90.8284 190.5 90C190.5 89.1716 191.172 88.5 192 88.5C192.828 88.5 193.5 89.1716 193.5 90Z" fill="#D5D7DA"/>
<path d="M216.5 90C216.5 90.8284 215.828 91.5 215 91.5C214.172 91.5 213.5 90.8284 213.5 90C213.5 89.1716 214.172 88.5 215 88.5C215.828 88.5 216.5 89.1716 216.5 90Z" fill="#D5D7DA"/>
<path d="M239.5 90C239.5 90.8284 238.828 91.5 238 91.5C237.172 91.5 236.5 90.8284 236.5 90C236.5 89.1716 237.172 88.5 238 88.5C238.828 88.5 239.5 89.1716 239.5 90Z" fill="#D5D7DA"/>
<path d="M262.5 90C262.5 90.8284 261.828 91.5 261 91.5C260.172 91.5 259.5 90.8284 259.5 90C259.5 89.1716 260.172 88.5 261 88.5C261.828 88.5 262.5 89.1716 262.5 90Z" fill="#D5D7DA"/>
<path d="M285.5 90C285.5 90.8284 284.828 91.5 284 91.5C283.172 91.5 282.5 90.8284 282.5 90C282.5 89.1716 283.172 88.5 284 88.5C284.828 88.5 285.5 89.1716 285.5 90Z" fill="#D5D7DA"/>
<path d="M308.5 90C308.5 90.8284 307.828 91.5 307 91.5C306.172 91.5 305.5 90.8284 305.5 90C305.5 89.1716 306.172 88.5 307 88.5C307.828 88.5 308.5 89.1716 308.5 90Z" fill="#D5D7DA"/>
<path d="M331.5 90C331.5 90.8284 330.828 91.5 330 91.5C329.172 91.5 328.5 90.8284 328.5 90C328.5 89.1716 329.172 88.5 330 88.5C330.828 88.5 331.5 89.1716 331.5 90Z" fill="#D5D7DA"/>
<path d="M354.5 90C354.5 90.8284 353.828 91.5 353 91.5C352.172 91.5 351.5 90.8284 351.5 90C351.5 89.1716 352.172 88.5 353 88.5C353.828 88.5 354.5 89.1716 354.5 90Z" fill="#D5D7DA"/>
<path d="M377.5 90C377.5 90.8284 376.828 91.5 376 91.5C375.172 91.5 374.5 90.8284 374.5 90C374.5 89.1716 375.172 88.5 376 88.5C376.828 88.5 377.5 89.1716 377.5 90Z" fill="#D5D7DA"/>
<path d="M400.5 90C400.5 90.8284 399.828 91.5 399 91.5C398.172 91.5 397.5 90.8284 397.5 90C397.5 89.1716 398.172 88.5 399 88.5C399.828 88.5 400.5 89.1716 400.5 90Z" fill="#D5D7DA"/>
<path d="M423.5 90C423.5 90.8284 422.828 91.5 422 91.5C421.172 91.5 420.5 90.8284 420.5 90C420.5 89.1716 421.172 88.5 422 88.5C422.828 88.5 423.5 89.1716 423.5 90Z" fill="#D5D7DA"/>
<path d="M-36.5 113C-36.5 113.828 -37.1716 114.5 -38 114.5C-38.8284 114.5 -39.5 113.828 -39.5 113C-39.5 112.172 -38.8284 111.5 -38 111.5C-37.1716 111.5 -36.5 112.172 -36.5 113Z" fill="#D5D7DA"/>
<path d="M-13.5 113C-13.5 113.828 -14.1716 114.5 -15 114.5C-15.8284 114.5 -16.5 113.828 -16.5 113C-16.5 112.172 -15.8284 111.5 -15 111.5C-14.1716 111.5 -13.5 112.172 -13.5 113Z" fill="#D5D7DA"/>
<path d="M9.5 113C9.5 113.828 8.82843 114.5 8 114.5C7.17157 114.5 6.5 113.828 6.5 113C6.5 112.172 7.17157 111.5 8 111.5C8.82843 111.5 9.5 112.172 9.5 113Z" fill="#D5D7DA"/>
<path d="M32.5 113C32.5 113.828 31.8284 114.5 31 114.5C30.1716 114.5 29.5 113.828 29.5 113C29.5 112.172 30.1716 111.5 31 111.5C31.8284 111.5 32.5 112.172 32.5 113Z" fill="#D5D7DA"/>
<path d="M55.5 113C55.5 113.828 54.8284 114.5 54 114.5C53.1716 114.5 52.5 113.828 52.5 113C52.5 112.172 53.1716 111.5 54 111.5C54.8284 111.5 55.5 112.172 55.5 113Z" fill="#D5D7DA"/>
<path d="M78.5 113C78.5 113.828 77.8284 114.5 77 114.5C76.1716 114.5 75.5 113.828 75.5 113C75.5 112.172 76.1716 111.5 77 111.5C77.8284 111.5 78.5 112.172 78.5 113Z" fill="#D5D7DA"/>
<path d="M101.5 113C101.5 113.828 100.828 114.5 100 114.5C99.1716 114.5 98.5 113.828 98.5 113C98.5 112.172 99.1716 111.5 100 111.5C100.828 111.5 101.5 112.172 101.5 113Z" fill="#D5D7DA"/>
<path d="M124.5 113C124.5 113.828 123.828 114.5 123 114.5C122.172 114.5 121.5 113.828 121.5 113C121.5 112.172 122.172 111.5 123 111.5C123.828 111.5 124.5 112.172 124.5 113Z" fill="#D5D7DA"/>
<path d="M147.5 113C147.5 113.828 146.828 114.5 146 114.5C145.172 114.5 144.5 113.828 144.5 113C144.5 112.172 145.172 111.5 146 111.5C146.828 111.5 147.5 112.172 147.5 113Z" fill="#D5D7DA"/>
<path d="M170.5 113C170.5 113.828 169.828 114.5 169 114.5C168.172 114.5 167.5 113.828 167.5 113C167.5 112.172 168.172 111.5 169 111.5C169.828 111.5 170.5 112.172 170.5 113Z" fill="#D5D7DA"/>
<path d="M193.5 113C193.5 113.828 192.828 114.5 192 114.5C191.172 114.5 190.5 113.828 190.5 113C190.5 112.172 191.172 111.5 192 111.5C192.828 111.5 193.5 112.172 193.5 113Z" fill="#D5D7DA"/>
<path d="M216.5 113C216.5 113.828 215.828 114.5 215 114.5C214.172 114.5 213.5 113.828 213.5 113C213.5 112.172 214.172 111.5 215 111.5C215.828 111.5 216.5 112.172 216.5 113Z" fill="#D5D7DA"/>
<path d="M239.5 113C239.5 113.828 238.828 114.5 238 114.5C237.172 114.5 236.5 113.828 236.5 113C236.5 112.172 237.172 111.5 238 111.5C238.828 111.5 239.5 112.172 239.5 113Z" fill="#D5D7DA"/>
<path d="M262.5 113C262.5 113.828 261.828 114.5 261 114.5C260.172 114.5 259.5 113.828 259.5 113C259.5 112.172 260.172 111.5 261 111.5C261.828 111.5 262.5 112.172 262.5 113Z" fill="#D5D7DA"/>
<path d="M285.5 113C285.5 113.828 284.828 114.5 284 114.5C283.172 114.5 282.5 113.828 282.5 113C282.5 112.172 283.172 111.5 284 111.5C284.828 111.5 285.5 112.172 285.5 113Z" fill="#D5D7DA"/>
<path d="M308.5 113C308.5 113.828 307.828 114.5 307 114.5C306.172 114.5 305.5 113.828 305.5 113C305.5 112.172 306.172 111.5 307 111.5C307.828 111.5 308.5 112.172 308.5 113Z" fill="#D5D7DA"/>
<path d="M331.5 113C331.5 113.828 330.828 114.5 330 114.5C329.172 114.5 328.5 113.828 328.5 113C328.5 112.172 329.172 111.5 330 111.5C330.828 111.5 331.5 112.172 331.5 113Z" fill="#D5D7DA"/>
<path d="M354.5 113C354.5 113.828 353.828 114.5 353 114.5C352.172 114.5 351.5 113.828 351.5 113C351.5 112.172 352.172 111.5 353 111.5C353.828 111.5 354.5 112.172 354.5 113Z" fill="#D5D7DA"/>
<path d="M377.5 113C377.5 113.828 376.828 114.5 376 114.5C375.172 114.5 374.5 113.828 374.5 113C374.5 112.172 375.172 111.5 376 111.5C376.828 111.5 377.5 112.172 377.5 113Z" fill="#D5D7DA"/>
<path d="M400.5 113C400.5 113.828 399.828 114.5 399 114.5C398.172 114.5 397.5 113.828 397.5 113C397.5 112.172 398.172 111.5 399 111.5C399.828 111.5 400.5 112.172 400.5 113Z" fill="#D5D7DA"/>
<path d="M423.5 113C423.5 113.828 422.828 114.5 422 114.5C421.172 114.5 420.5 113.828 420.5 113C420.5 112.172 421.172 111.5 422 111.5C422.828 111.5 423.5 112.172 423.5 113Z" fill="#D5D7DA"/>
<path d="M-36.5 136C-36.5 136.828 -37.1716 137.5 -38 137.5C-38.8284 137.5 -39.5 136.828 -39.5 136C-39.5 135.172 -38.8284 134.5 -38 134.5C-37.1716 134.5 -36.5 135.172 -36.5 136Z" fill="#D5D7DA"/>
<path d="M-13.5 136C-13.5 136.828 -14.1716 137.5 -15 137.5C-15.8284 137.5 -16.5 136.828 -16.5 136C-16.5 135.172 -15.8284 134.5 -15 134.5C-14.1716 134.5 -13.5 135.172 -13.5 136Z" fill="#D5D7DA"/>
<path d="M9.5 136C9.5 136.828 8.82843 137.5 8 137.5C7.17157 137.5 6.5 136.828 6.5 136C6.5 135.172 7.17157 134.5 8 134.5C8.82843 134.5 9.5 135.172 9.5 136Z" fill="#D5D7DA"/>
<path d="M32.5 136C32.5 136.828 31.8284 137.5 31 137.5C30.1716 137.5 29.5 136.828 29.5 136C29.5 135.172 30.1716 134.5 31 134.5C31.8284 134.5 32.5 135.172 32.5 136Z" fill="#D5D7DA"/>
<path d="M55.5 136C55.5 136.828 54.8284 137.5 54 137.5C53.1716 137.5 52.5 136.828 52.5 136C52.5 135.172 53.1716 134.5 54 134.5C54.8284 134.5 55.5 135.172 55.5 136Z" fill="#D5D7DA"/>
<path d="M78.5 136C78.5 136.828 77.8284 137.5 77 137.5C76.1716 137.5 75.5 136.828 75.5 136C75.5 135.172 76.1716 134.5 77 134.5C77.8284 134.5 78.5 135.172 78.5 136Z" fill="#D5D7DA"/>
<path d="M101.5 136C101.5 136.828 100.828 137.5 100 137.5C99.1716 137.5 98.5 136.828 98.5 136C98.5 135.172 99.1716 134.5 100 134.5C100.828 134.5 101.5 135.172 101.5 136Z" fill="#D5D7DA"/>
<path d="M124.5 136C124.5 136.828 123.828 137.5 123 137.5C122.172 137.5 121.5 136.828 121.5 136C121.5 135.172 122.172 134.5 123 134.5C123.828 134.5 124.5 135.172 124.5 136Z" fill="#D5D7DA"/>
<path d="M147.5 136C147.5 136.828 146.828 137.5 146 137.5C145.172 137.5 144.5 136.828 144.5 136C144.5 135.172 145.172 134.5 146 134.5C146.828 134.5 147.5 135.172 147.5 136Z" fill="#D5D7DA"/>
<path d="M170.5 136C170.5 136.828 169.828 137.5 169 137.5C168.172 137.5 167.5 136.828 167.5 136C167.5 135.172 168.172 134.5 169 134.5C169.828 134.5 170.5 135.172 170.5 136Z" fill="#D5D7DA"/>
<path d="M193.5 136C193.5 136.828 192.828 137.5 192 137.5C191.172 137.5 190.5 136.828 190.5 136C190.5 135.172 191.172 134.5 192 134.5C192.828 134.5 193.5 135.172 193.5 136Z" fill="#D5D7DA"/>
<path d="M216.5 136C216.5 136.828 215.828 137.5 215 137.5C214.172 137.5 213.5 136.828 213.5 136C213.5 135.172 214.172 134.5 215 134.5C215.828 134.5 216.5 135.172 216.5 136Z" fill="#D5D7DA"/>
<path d="M239.5 136C239.5 136.828 238.828 137.5 238 137.5C237.172 137.5 236.5 136.828 236.5 136C236.5 135.172 237.172 134.5 238 134.5C238.828 134.5 239.5 135.172 239.5 136Z" fill="#D5D7DA"/>
<path d="M262.5 136C262.5 136.828 261.828 137.5 261 137.5C260.172 137.5 259.5 136.828 259.5 136C259.5 135.172 260.172 134.5 261 134.5C261.828 134.5 262.5 135.172 262.5 136Z" fill="#D5D7DA"/>
<path d="M285.5 136C285.5 136.828 284.828 137.5 284 137.5C283.172 137.5 282.5 136.828 282.5 136C282.5 135.172 283.172 134.5 284 134.5C284.828 134.5 285.5 135.172 285.5 136Z" fill="#D5D7DA"/>
<path d="M308.5 136C308.5 136.828 307.828 137.5 307 137.5C306.172 137.5 305.5 136.828 305.5 136C305.5 135.172 306.172 134.5 307 134.5C307.828 134.5 308.5 135.172 308.5 136Z" fill="#D5D7DA"/>
<path d="M331.5 136C331.5 136.828 330.828 137.5 330 137.5C329.172 137.5 328.5 136.828 328.5 136C328.5 135.172 329.172 134.5 330 134.5C330.828 134.5 331.5 135.172 331.5 136Z" fill="#D5D7DA"/>
<path d="M354.5 136C354.5 136.828 353.828 137.5 353 137.5C352.172 137.5 351.5 136.828 351.5 136C351.5 135.172 352.172 134.5 353 134.5C353.828 134.5 354.5 135.172 354.5 136Z" fill="#D5D7DA"/>
<path d="M377.5 136C377.5 136.828 376.828 137.5 376 137.5C375.172 137.5 374.5 136.828 374.5 136C374.5 135.172 375.172 134.5 376 134.5C376.828 134.5 377.5 135.172 377.5 136Z" fill="#D5D7DA"/>
<path d="M400.5 136C400.5 136.828 399.828 137.5 399 137.5C398.172 137.5 397.5 136.828 397.5 136C397.5 135.172 398.172 134.5 399 134.5C399.828 134.5 400.5 135.172 400.5 136Z" fill="#D5D7DA"/>
<path d="M423.5 136C423.5 136.828 422.828 137.5 422 137.5C421.172 137.5 420.5 136.828 420.5 136C420.5 135.172 421.172 134.5 422 134.5C422.828 134.5 423.5 135.172 423.5 136Z" fill="#D5D7DA"/>
<path d="M-36.5 159C-36.5 159.828 -37.1716 160.5 -38 160.5C-38.8284 160.5 -39.5 159.828 -39.5 159C-39.5 158.172 -38.8284 157.5 -38 157.5C-37.1716 157.5 -36.5 158.172 -36.5 159Z" fill="#D5D7DA"/>
<path d="M-13.5 159C-13.5 159.828 -14.1716 160.5 -15 160.5C-15.8284 160.5 -16.5 159.828 -16.5 159C-16.5 158.172 -15.8284 157.5 -15 157.5C-14.1716 157.5 -13.5 158.172 -13.5 159Z" fill="#D5D7DA"/>
<path d="M9.5 159C9.5 159.828 8.82843 160.5 8 160.5C7.17157 160.5 6.5 159.828 6.5 159C6.5 158.172 7.17157 157.5 8 157.5C8.82843 157.5 9.5 158.172 9.5 159Z" fill="#D5D7DA"/>
<path d="M32.5 159C32.5 159.828 31.8284 160.5 31 160.5C30.1716 160.5 29.5 159.828 29.5 159C29.5 158.172 30.1716 157.5 31 157.5C31.8284 157.5 32.5 158.172 32.5 159Z" fill="#D5D7DA"/>
<path d="M55.5 159C55.5 159.828 54.8284 160.5 54 160.5C53.1716 160.5 52.5 159.828 52.5 159C52.5 158.172 53.1716 157.5 54 157.5C54.8284 157.5 55.5 158.172 55.5 159Z" fill="#D5D7DA"/>
<path d="M78.5 159C78.5 159.828 77.8284 160.5 77 160.5C76.1716 160.5 75.5 159.828 75.5 159C75.5 158.172 76.1716 157.5 77 157.5C77.8284 157.5 78.5 158.172 78.5 159Z" fill="#D5D7DA"/>
<path d="M101.5 159C101.5 159.828 100.828 160.5 100 160.5C99.1716 160.5 98.5 159.828 98.5 159C98.5 158.172 99.1716 157.5 100 157.5C100.828 157.5 101.5 158.172 101.5 159Z" fill="#D5D7DA"/>
<path d="M124.5 159C124.5 159.828 123.828 160.5 123 160.5C122.172 160.5 121.5 159.828 121.5 159C121.5 158.172 122.172 157.5 123 157.5C123.828 157.5 124.5 158.172 124.5 159Z" fill="#D5D7DA"/>
<path d="M147.5 159C147.5 159.828 146.828 160.5 146 160.5C145.172 160.5 144.5 159.828 144.5 159C144.5 158.172 145.172 157.5 146 157.5C146.828 157.5 147.5 158.172 147.5 159Z" fill="#D5D7DA"/>
<path d="M170.5 159C170.5 159.828 169.828 160.5 169 160.5C168.172 160.5 167.5 159.828 167.5 159C167.5 158.172 168.172 157.5 169 157.5C169.828 157.5 170.5 158.172 170.5 159Z" fill="#D5D7DA"/>
<path d="M193.5 159C193.5 159.828 192.828 160.5 192 160.5C191.172 160.5 190.5 159.828 190.5 159C190.5 158.172 191.172 157.5 192 157.5C192.828 157.5 193.5 158.172 193.5 159Z" fill="#D5D7DA"/>
<path d="M216.5 159C216.5 159.828 215.828 160.5 215 160.5C214.172 160.5 213.5 159.828 213.5 159C213.5 158.172 214.172 157.5 215 157.5C215.828 157.5 216.5 158.172 216.5 159Z" fill="#D5D7DA"/>
<path d="M239.5 159C239.5 159.828 238.828 160.5 238 160.5C237.172 160.5 236.5 159.828 236.5 159C236.5 158.172 237.172 157.5 238 157.5C238.828 157.5 239.5 158.172 239.5 159Z" fill="#D5D7DA"/>
<path d="M262.5 159C262.5 159.828 261.828 160.5 261 160.5C260.172 160.5 259.5 159.828 259.5 159C259.5 158.172 260.172 157.5 261 157.5C261.828 157.5 262.5 158.172 262.5 159Z" fill="#D5D7DA"/>
<path d="M285.5 159C285.5 159.828 284.828 160.5 284 160.5C283.172 160.5 282.5 159.828 282.5 159C282.5 158.172 283.172 157.5 284 157.5C284.828 157.5 285.5 158.172 285.5 159Z" fill="#D5D7DA"/>
<path d="M308.5 159C308.5 159.828 307.828 160.5 307 160.5C306.172 160.5 305.5 159.828 305.5 159C305.5 158.172 306.172 157.5 307 157.5C307.828 157.5 308.5 158.172 308.5 159Z" fill="#D5D7DA"/>
<path d="M331.5 159C331.5 159.828 330.828 160.5 330 160.5C329.172 160.5 328.5 159.828 328.5 159C328.5 158.172 329.172 157.5 330 157.5C330.828 157.5 331.5 158.172 331.5 159Z" fill="#D5D7DA"/>
<path d="M354.5 159C354.5 159.828 353.828 160.5 353 160.5C352.172 160.5 351.5 159.828 351.5 159C351.5 158.172 352.172 157.5 353 157.5C353.828 157.5 354.5 158.172 354.5 159Z" fill="#D5D7DA"/>
<path d="M377.5 159C377.5 159.828 376.828 160.5 376 160.5C375.172 160.5 374.5 159.828 374.5 159C374.5 158.172 375.172 157.5 376 157.5C376.828 157.5 377.5 158.172 377.5 159Z" fill="#D5D7DA"/>
<path d="M400.5 159C400.5 159.828 399.828 160.5 399 160.5C398.172 160.5 397.5 159.828 397.5 159C397.5 158.172 398.172 157.5 399 157.5C399.828 157.5 400.5 158.172 400.5 159Z" fill="#D5D7DA"/>
<path d="M423.5 159C423.5 159.828 422.828 160.5 422 160.5C421.172 160.5 420.5 159.828 420.5 159C420.5 158.172 421.172 157.5 422 157.5C422.828 157.5 423.5 158.172 423.5 159Z" fill="#D5D7DA"/>
<path d="M-36.5 182C-36.5 182.828 -37.1716 183.5 -38 183.5C-38.8284 183.5 -39.5 182.828 -39.5 182C-39.5 181.172 -38.8284 180.5 -38 180.5C-37.1716 180.5 -36.5 181.172 -36.5 182Z" fill="#D5D7DA"/>
<path d="M-13.5 182C-13.5 182.828 -14.1716 183.5 -15 183.5C-15.8284 183.5 -16.5 182.828 -16.5 182C-16.5 181.172 -15.8284 180.5 -15 180.5C-14.1716 180.5 -13.5 181.172 -13.5 182Z" fill="#D5D7DA"/>
<path d="M9.5 182C9.5 182.828 8.82843 183.5 8 183.5C7.17157 183.5 6.5 182.828 6.5 182C6.5 181.172 7.17157 180.5 8 180.5C8.82843 180.5 9.5 181.172 9.5 182Z" fill="#D5D7DA"/>
<path d="M32.5 182C32.5 182.828 31.8284 183.5 31 183.5C30.1716 183.5 29.5 182.828 29.5 182C29.5 181.172 30.1716 180.5 31 180.5C31.8284 180.5 32.5 181.172 32.5 182Z" fill="#D5D7DA"/>
<path d="M55.5 182C55.5 182.828 54.8284 183.5 54 183.5C53.1716 183.5 52.5 182.828 52.5 182C52.5 181.172 53.1716 180.5 54 180.5C54.8284 180.5 55.5 181.172 55.5 182Z" fill="#D5D7DA"/>
<path d="M78.5 182C78.5 182.828 77.8284 183.5 77 183.5C76.1716 183.5 75.5 182.828 75.5 182C75.5 181.172 76.1716 180.5 77 180.5C77.8284 180.5 78.5 181.172 78.5 182Z" fill="#D5D7DA"/>
<path d="M101.5 182C101.5 182.828 100.828 183.5 100 183.5C99.1716 183.5 98.5 182.828 98.5 182C98.5 181.172 99.1716 180.5 100 180.5C100.828 180.5 101.5 181.172 101.5 182Z" fill="#D5D7DA"/>
<path d="M124.5 182C124.5 182.828 123.828 183.5 123 183.5C122.172 183.5 121.5 182.828 121.5 182C121.5 181.172 122.172 180.5 123 180.5C123.828 180.5 124.5 181.172 124.5 182Z" fill="#D5D7DA"/>
<path d="M147.5 182C147.5 182.828 146.828 183.5 146 183.5C145.172 183.5 144.5 182.828 144.5 182C144.5 181.172 145.172 180.5 146 180.5C146.828 180.5 147.5 181.172 147.5 182Z" fill="#D5D7DA"/>
<path d="M170.5 182C170.5 182.828 169.828 183.5 169 183.5C168.172 183.5 167.5 182.828 167.5 182C167.5 181.172 168.172 180.5 169 180.5C169.828 180.5 170.5 181.172 170.5 182Z" fill="#D5D7DA"/>
<path d="M193.5 182C193.5 182.828 192.828 183.5 192 183.5C191.172 183.5 190.5 182.828 190.5 182C190.5 181.172 191.172 180.5 192 180.5C192.828 180.5 193.5 181.172 193.5 182Z" fill="#D5D7DA"/>
<path d="M216.5 182C216.5 182.828 215.828 183.5 215 183.5C214.172 183.5 213.5 182.828 213.5 182C213.5 181.172 214.172 180.5 215 180.5C215.828 180.5 216.5 181.172 216.5 182Z" fill="#D5D7DA"/>
<path d="M239.5 182C239.5 182.828 238.828 183.5 238 183.5C237.172 183.5 236.5 182.828 236.5 182C236.5 181.172 237.172 180.5 238 180.5C238.828 180.5 239.5 181.172 239.5 182Z" fill="#D5D7DA"/>
<path d="M262.5 182C262.5 182.828 261.828 183.5 261 183.5C260.172 183.5 259.5 182.828 259.5 182C259.5 181.172 260.172 180.5 261 180.5C261.828 180.5 262.5 181.172 262.5 182Z" fill="#D5D7DA"/>
<path d="M285.5 182C285.5 182.828 284.828 183.5 284 183.5C283.172 183.5 282.5 182.828 282.5 182C282.5 181.172 283.172 180.5 284 180.5C284.828 180.5 285.5 181.172 285.5 182Z" fill="#D5D7DA"/>
<path d="M308.5 182C308.5 182.828 307.828 183.5 307 183.5C306.172 183.5 305.5 182.828 305.5 182C305.5 181.172 306.172 180.5 307 180.5C307.828 180.5 308.5 181.172 308.5 182Z" fill="#D5D7DA"/>
<path d="M331.5 182C331.5 182.828 330.828 183.5 330 183.5C329.172 183.5 328.5 182.828 328.5 182C328.5 181.172 329.172 180.5 330 180.5C330.828 180.5 331.5 181.172 331.5 182Z" fill="#D5D7DA"/>
<path d="M354.5 182C354.5 182.828 353.828 183.5 353 183.5C352.172 183.5 351.5 182.828 351.5 182C351.5 181.172 352.172 180.5 353 180.5C353.828 180.5 354.5 181.172 354.5 182Z" fill="#D5D7DA"/>
<path d="M377.5 182C377.5 182.828 376.828 183.5 376 183.5C375.172 183.5 374.5 182.828 374.5 182C374.5 181.172 375.172 180.5 376 180.5C376.828 180.5 377.5 181.172 377.5 182Z" fill="#D5D7DA"/>
<path d="M400.5 182C400.5 182.828 399.828 183.5 399 183.5C398.172 183.5 397.5 182.828 397.5 182C397.5 181.172 398.172 180.5 399 180.5C399.828 180.5 400.5 181.172 400.5 182Z" fill="#D5D7DA"/>
<path d="M423.5 182C423.5 182.828 422.828 183.5 422 183.5C421.172 183.5 420.5 182.828 420.5 182C420.5 181.172 421.172 180.5 422 180.5C422.828 180.5 423.5 181.172 423.5 182Z" fill="#D5D7DA"/>
<path d="M-36.5 205C-36.5 205.828 -37.1716 206.5 -38 206.5C-38.8284 206.5 -39.5 205.828 -39.5 205C-39.5 204.172 -38.8284 203.5 -38 203.5C-37.1716 203.5 -36.5 204.172 -36.5 205Z" fill="#D5D7DA"/>
<path d="M-13.5 205C-13.5 205.828 -14.1716 206.5 -15 206.5C-15.8284 206.5 -16.5 205.828 -16.5 205C-16.5 204.172 -15.8284 203.5 -15 203.5C-14.1716 203.5 -13.5 204.172 -13.5 205Z" fill="#D5D7DA"/>
<path d="M9.5 205C9.5 205.828 8.82843 206.5 8 206.5C7.17157 206.5 6.5 205.828 6.5 205C6.5 204.172 7.17157 203.5 8 203.5C8.82843 203.5 9.5 204.172 9.5 205Z" fill="#D5D7DA"/>
<path d="M32.5 205C32.5 205.828 31.8284 206.5 31 206.5C30.1716 206.5 29.5 205.828 29.5 205C29.5 204.172 30.1716 203.5 31 203.5C31.8284 203.5 32.5 204.172 32.5 205Z" fill="#D5D7DA"/>
<path d="M55.5 205C55.5 205.828 54.8284 206.5 54 206.5C53.1716 206.5 52.5 205.828 52.5 205C52.5 204.172 53.1716 203.5 54 203.5C54.8284 203.5 55.5 204.172 55.5 205Z" fill="#D5D7DA"/>
<path d="M78.5 205C78.5 205.828 77.8284 206.5 77 206.5C76.1716 206.5 75.5 205.828 75.5 205C75.5 204.172 76.1716 203.5 77 203.5C77.8284 203.5 78.5 204.172 78.5 205Z" fill="#D5D7DA"/>
<path d="M101.5 205C101.5 205.828 100.828 206.5 100 206.5C99.1716 206.5 98.5 205.828 98.5 205C98.5 204.172 99.1716 203.5 100 203.5C100.828 203.5 101.5 204.172 101.5 205Z" fill="#D5D7DA"/>
<path d="M124.5 205C124.5 205.828 123.828 206.5 123 206.5C122.172 206.5 121.5 205.828 121.5 205C121.5 204.172 122.172 203.5 123 203.5C123.828 203.5 124.5 204.172 124.5 205Z" fill="#D5D7DA"/>
<path d="M147.5 205C147.5 205.828 146.828 206.5 146 206.5C145.172 206.5 144.5 205.828 144.5 205C144.5 204.172 145.172 203.5 146 203.5C146.828 203.5 147.5 204.172 147.5 205Z" fill="#D5D7DA"/>
<path d="M170.5 205C170.5 205.828 169.828 206.5 169 206.5C168.172 206.5 167.5 205.828 167.5 205C167.5 204.172 168.172 203.5 169 203.5C169.828 203.5 170.5 204.172 170.5 205Z" fill="#D5D7DA"/>
<path d="M193.5 205C193.5 205.828 192.828 206.5 192 206.5C191.172 206.5 190.5 205.828 190.5 205C190.5 204.172 191.172 203.5 192 203.5C192.828 203.5 193.5 204.172 193.5 205Z" fill="#D5D7DA"/>
<path d="M216.5 205C216.5 205.828 215.828 206.5 215 206.5C214.172 206.5 213.5 205.828 213.5 205C213.5 204.172 214.172 203.5 215 203.5C215.828 203.5 216.5 204.172 216.5 205Z" fill="#D5D7DA"/>
<path d="M239.5 205C239.5 205.828 238.828 206.5 238 206.5C237.172 206.5 236.5 205.828 236.5 205C236.5 204.172 237.172 203.5 238 203.5C238.828 203.5 239.5 204.172 239.5 205Z" fill="#D5D7DA"/>
<path d="M262.5 205C262.5 205.828 261.828 206.5 261 206.5C260.172 206.5 259.5 205.828 259.5 205C259.5 204.172 260.172 203.5 261 203.5C261.828 203.5 262.5 204.172 262.5 205Z" fill="#D5D7DA"/>
<path d="M285.5 205C285.5 205.828 284.828 206.5 284 206.5C283.172 206.5 282.5 205.828 282.5 205C282.5 204.172 283.172 203.5 284 203.5C284.828 203.5 285.5 204.172 285.5 205Z" fill="#D5D7DA"/>
<path d="M308.5 205C308.5 205.828 307.828 206.5 307 206.5C306.172 206.5 305.5 205.828 305.5 205C305.5 204.172 306.172 203.5 307 203.5C307.828 203.5 308.5 204.172 308.5 205Z" fill="#D5D7DA"/>
<path d="M331.5 205C331.5 205.828 330.828 206.5 330 206.5C329.172 206.5 328.5 205.828 328.5 205C328.5 204.172 329.172 203.5 330 203.5C330.828 203.5 331.5 204.172 331.5 205Z" fill="#D5D7DA"/>
<path d="M354.5 205C354.5 205.828 353.828 206.5 353 206.5C352.172 206.5 351.5 205.828 351.5 205C351.5 204.172 352.172 203.5 353 203.5C353.828 203.5 354.5 204.172 354.5 205Z" fill="#D5D7DA"/>
<path d="M377.5 205C377.5 205.828 376.828 206.5 376 206.5C375.172 206.5 374.5 205.828 374.5 205C374.5 204.172 375.172 203.5 376 203.5C376.828 203.5 377.5 204.172 377.5 205Z" fill="#D5D7DA"/>
<path d="M400.5 205C400.5 205.828 399.828 206.5 399 206.5C398.172 206.5 397.5 205.828 397.5 205C397.5 204.172 398.172 203.5 399 203.5C399.828 203.5 400.5 204.172 400.5 205Z" fill="#D5D7DA"/>
<path d="M423.5 205C423.5 205.828 422.828 206.5 422 206.5C421.172 206.5 420.5 205.828 420.5 205C420.5 204.172 421.172 203.5 422 203.5C422.828 203.5 423.5 204.172 423.5 205Z" fill="#D5D7DA"/>
<path d="M-36.5 228C-36.5 228.828 -37.1716 229.5 -38 229.5C-38.8284 229.5 -39.5 228.828 -39.5 228C-39.5 227.172 -38.8284 226.5 -38 226.5C-37.1716 226.5 -36.5 227.172 -36.5 228Z" fill="#D5D7DA"/>
<path d="M-13.5 228C-13.5 228.828 -14.1716 229.5 -15 229.5C-15.8284 229.5 -16.5 228.828 -16.5 228C-16.5 227.172 -15.8284 226.5 -15 226.5C-14.1716 226.5 -13.5 227.172 -13.5 228Z" fill="#D5D7DA"/>
<path d="M9.5 228C9.5 228.828 8.82843 229.5 8 229.5C7.17157 229.5 6.5 228.828 6.5 228C6.5 227.172 7.17157 226.5 8 226.5C8.82843 226.5 9.5 227.172 9.5 228Z" fill="#D5D7DA"/>
<path d="M32.5 228C32.5 228.828 31.8284 229.5 31 229.5C30.1716 229.5 29.5 228.828 29.5 228C29.5 227.172 30.1716 226.5 31 226.5C31.8284 226.5 32.5 227.172 32.5 228Z" fill="#D5D7DA"/>
<path d="M55.5 228C55.5 228.828 54.8284 229.5 54 229.5C53.1716 229.5 52.5 228.828 52.5 228C52.5 227.172 53.1716 226.5 54 226.5C54.8284 226.5 55.5 227.172 55.5 228Z" fill="#D5D7DA"/>
<path d="M78.5 228C78.5 228.828 77.8284 229.5 77 229.5C76.1716 229.5 75.5 228.828 75.5 228C75.5 227.172 76.1716 226.5 77 226.5C77.8284 226.5 78.5 227.172 78.5 228Z" fill="#D5D7DA"/>
<path d="M101.5 228C101.5 228.828 100.828 229.5 100 229.5C99.1716 229.5 98.5 228.828 98.5 228C98.5 227.172 99.1716 226.5 100 226.5C100.828 226.5 101.5 227.172 101.5 228Z" fill="#D5D7DA"/>
<path d="M124.5 228C124.5 228.828 123.828 229.5 123 229.5C122.172 229.5 121.5 228.828 121.5 228C121.5 227.172 122.172 226.5 123 226.5C123.828 226.5 124.5 227.172 124.5 228Z" fill="#D5D7DA"/>
<path d="M147.5 228C147.5 228.828 146.828 229.5 146 229.5C145.172 229.5 144.5 228.828 144.5 228C144.5 227.172 145.172 226.5 146 226.5C146.828 226.5 147.5 227.172 147.5 228Z" fill="#D5D7DA"/>
<path d="M170.5 228C170.5 228.828 169.828 229.5 169 229.5C168.172 229.5 167.5 228.828 167.5 228C167.5 227.172 168.172 226.5 169 226.5C169.828 226.5 170.5 227.172 170.5 228Z" fill="#D5D7DA"/>
<path d="M193.5 228C193.5 228.828 192.828 229.5 192 229.5C191.172 229.5 190.5 228.828 190.5 228C190.5 227.172 191.172 226.5 192 226.5C192.828 226.5 193.5 227.172 193.5 228Z" fill="#D5D7DA"/>
<path d="M216.5 228C216.5 228.828 215.828 229.5 215 229.5C214.172 229.5 213.5 228.828 213.5 228C213.5 227.172 214.172 226.5 215 226.5C215.828 226.5 216.5 227.172 216.5 228Z" fill="#D5D7DA"/>
<path d="M239.5 228C239.5 228.828 238.828 229.5 238 229.5C237.172 229.5 236.5 228.828 236.5 228C236.5 227.172 237.172 226.5 238 226.5C238.828 226.5 239.5 227.172 239.5 228Z" fill="#D5D7DA"/>
<path d="M262.5 228C262.5 228.828 261.828 229.5 261 229.5C260.172 229.5 259.5 228.828 259.5 228C259.5 227.172 260.172 226.5 261 226.5C261.828 226.5 262.5 227.172 262.5 228Z" fill="#D5D7DA"/>
<path d="M285.5 228C285.5 228.828 284.828 229.5 284 229.5C283.172 229.5 282.5 228.828 282.5 228C282.5 227.172 283.172 226.5 284 226.5C284.828 226.5 285.5 227.172 285.5 228Z" fill="#D5D7DA"/>
<path d="M308.5 228C308.5 228.828 307.828 229.5 307 229.5C306.172 229.5 305.5 228.828 305.5 228C305.5 227.172 306.172 226.5 307 226.5C307.828 226.5 308.5 227.172 308.5 228Z" fill="#D5D7DA"/>
<path d="M331.5 228C331.5 228.828 330.828 229.5 330 229.5C329.172 229.5 328.5 228.828 328.5 228C328.5 227.172 329.172 226.5 330 226.5C330.828 226.5 331.5 227.172 331.5 228Z" fill="#D5D7DA"/>
<path d="M354.5 228C354.5 228.828 353.828 229.5 353 229.5C352.172 229.5 351.5 228.828 351.5 228C351.5 227.172 352.172 226.5 353 226.5C353.828 226.5 354.5 227.172 354.5 228Z" fill="#D5D7DA"/>
<path d="M377.5 228C377.5 228.828 376.828 229.5 376 229.5C375.172 229.5 374.5 228.828 374.5 228C374.5 227.172 375.172 226.5 376 226.5C376.828 226.5 377.5 227.172 377.5 228Z" fill="#D5D7DA"/>
<path d="M400.5 228C400.5 228.828 399.828 229.5 399 229.5C398.172 229.5 397.5 228.828 397.5 228C397.5 227.172 398.172 226.5 399 226.5C399.828 226.5 400.5 227.172 400.5 228Z" fill="#D5D7DA"/>
<path d="M423.5 228C423.5 228.828 422.828 229.5 422 229.5C421.172 229.5 420.5 228.828 420.5 228C420.5 227.172 421.172 226.5 422 226.5C422.828 226.5 423.5 227.172 423.5 228Z" fill="#D5D7DA"/>
<path d="M-36.5 251C-36.5 251.828 -37.1716 252.5 -38 252.5C-38.8284 252.5 -39.5 251.828 -39.5 251C-39.5 250.172 -38.8284 249.5 -38 249.5C-37.1716 249.5 -36.5 250.172 -36.5 251Z" fill="#D5D7DA"/>
<path d="M-13.5 251C-13.5 251.828 -14.1716 252.5 -15 252.5C-15.8284 252.5 -16.5 251.828 -16.5 251C-16.5 250.172 -15.8284 249.5 -15 249.5C-14.1716 249.5 -13.5 250.172 -13.5 251Z" fill="#D5D7DA"/>
<path d="M9.5 251C9.5 251.828 8.82843 252.5 8 252.5C7.17157 252.5 6.5 251.828 6.5 251C6.5 250.172 7.17157 249.5 8 249.5C8.82843 249.5 9.5 250.172 9.5 251Z" fill="#D5D7DA"/>
<path d="M32.5 251C32.5 251.828 31.8284 252.5 31 252.5C30.1716 252.5 29.5 251.828 29.5 251C29.5 250.172 30.1716 249.5 31 249.5C31.8284 249.5 32.5 250.172 32.5 251Z" fill="#D5D7DA"/>
<path d="M55.5 251C55.5 251.828 54.8284 252.5 54 252.5C53.1716 252.5 52.5 251.828 52.5 251C52.5 250.172 53.1716 249.5 54 249.5C54.8284 249.5 55.5 250.172 55.5 251Z" fill="#D5D7DA"/>
<path d="M78.5 251C78.5 251.828 77.8284 252.5 77 252.5C76.1716 252.5 75.5 251.828 75.5 251C75.5 250.172 76.1716 249.5 77 249.5C77.8284 249.5 78.5 250.172 78.5 251Z" fill="#D5D7DA"/>
<path d="M101.5 251C101.5 251.828 100.828 252.5 100 252.5C99.1716 252.5 98.5 251.828 98.5 251C98.5 250.172 99.1716 249.5 100 249.5C100.828 249.5 101.5 250.172 101.5 251Z" fill="#D5D7DA"/>
<path d="M124.5 251C124.5 251.828 123.828 252.5 123 252.5C122.172 252.5 121.5 251.828 121.5 251C121.5 250.172 122.172 249.5 123 249.5C123.828 249.5 124.5 250.172 124.5 251Z" fill="#D5D7DA"/>
<path d="M147.5 251C147.5 251.828 146.828 252.5 146 252.5C145.172 252.5 144.5 251.828 144.5 251C144.5 250.172 145.172 249.5 146 249.5C146.828 249.5 147.5 250.172 147.5 251Z" fill="#D5D7DA"/>
<path d="M170.5 251C170.5 251.828 169.828 252.5 169 252.5C168.172 252.5 167.5 251.828 167.5 251C167.5 250.172 168.172 249.5 169 249.5C169.828 249.5 170.5 250.172 170.5 251Z" fill="#D5D7DA"/>
<path d="M193.5 251C193.5 251.828 192.828 252.5 192 252.5C191.172 252.5 190.5 251.828 190.5 251C190.5 250.172 191.172 249.5 192 249.5C192.828 249.5 193.5 250.172 193.5 251Z" fill="#D5D7DA"/>
<path d="M216.5 251C216.5 251.828 215.828 252.5 215 252.5C214.172 252.5 213.5 251.828 213.5 251C213.5 250.172 214.172 249.5 215 249.5C215.828 249.5 216.5 250.172 216.5 251Z" fill="#D5D7DA"/>
<path d="M239.5 251C239.5 251.828 238.828 252.5 238 252.5C237.172 252.5 236.5 251.828 236.5 251C236.5 250.172 237.172 249.5 238 249.5C238.828 249.5 239.5 250.172 239.5 251Z" fill="#D5D7DA"/>
<path d="M262.5 251C262.5 251.828 261.828 252.5 261 252.5C260.172 252.5 259.5 251.828 259.5 251C259.5 250.172 260.172 249.5 261 249.5C261.828 249.5 262.5 250.172 262.5 251Z" fill="#D5D7DA"/>
<path d="M285.5 251C285.5 251.828 284.828 252.5 284 252.5C283.172 252.5 282.5 251.828 282.5 251C282.5 250.172 283.172 249.5 284 249.5C284.828 249.5 285.5 250.172 285.5 251Z" fill="#D5D7DA"/>
<path d="M308.5 251C308.5 251.828 307.828 252.5 307 252.5C306.172 252.5 305.5 251.828 305.5 251C305.5 250.172 306.172 249.5 307 249.5C307.828 249.5 308.5 250.172 308.5 251Z" fill="#D5D7DA"/>
<path d="M331.5 251C331.5 251.828 330.828 252.5 330 252.5C329.172 252.5 328.5 251.828 328.5 251C328.5 250.172 329.172 249.5 330 249.5C330.828 249.5 331.5 250.172 331.5 251Z" fill="#D5D7DA"/>
<path d="M354.5 251C354.5 251.828 353.828 252.5 353 252.5C352.172 252.5 351.5 251.828 351.5 251C351.5 250.172 352.172 249.5 353 249.5C353.828 249.5 354.5 250.172 354.5 251Z" fill="#D5D7DA"/>
<path d="M377.5 251C377.5 251.828 376.828 252.5 376 252.5C375.172 252.5 374.5 251.828 374.5 251C374.5 250.172 375.172 249.5 376 249.5C376.828 249.5 377.5 250.172 377.5 251Z" fill="#D5D7DA"/>
<path d="M400.5 251C400.5 251.828 399.828 252.5 399 252.5C398.172 252.5 397.5 251.828 397.5 251C397.5 250.172 398.172 249.5 399 249.5C399.828 249.5 400.5 250.172 400.5 251Z" fill="#D5D7DA"/>
<path d="M423.5 251C423.5 251.828 422.828 252.5 422 252.5C421.172 252.5 420.5 251.828 420.5 251C420.5 250.172 421.172 249.5 422 249.5C422.828 249.5 423.5 250.172 423.5 251Z" fill="#D5D7DA"/>
<path d="M-36.5 274C-36.5 274.828 -37.1716 275.5 -38 275.5C-38.8284 275.5 -39.5 274.828 -39.5 274C-39.5 273.172 -38.8284 272.5 -38 272.5C-37.1716 272.5 -36.5 273.172 -36.5 274Z" fill="#D5D7DA"/>
<path d="M-13.5 274C-13.5 274.828 -14.1716 275.5 -15 275.5C-15.8284 275.5 -16.5 274.828 -16.5 274C-16.5 273.172 -15.8284 272.5 -15 272.5C-14.1716 272.5 -13.5 273.172 -13.5 274Z" fill="#D5D7DA"/>
<path d="M9.5 274C9.5 274.828 8.82843 275.5 8 275.5C7.17157 275.5 6.5 274.828 6.5 274C6.5 273.172 7.17157 272.5 8 272.5C8.82843 272.5 9.5 273.172 9.5 274Z" fill="#D5D7DA"/>
<path d="M32.5 274C32.5 274.828 31.8284 275.5 31 275.5C30.1716 275.5 29.5 274.828 29.5 274C29.5 273.172 30.1716 272.5 31 272.5C31.8284 272.5 32.5 273.172 32.5 274Z" fill="#D5D7DA"/>
<path d="M55.5 274C55.5 274.828 54.8284 275.5 54 275.5C53.1716 275.5 52.5 274.828 52.5 274C52.5 273.172 53.1716 272.5 54 272.5C54.8284 272.5 55.5 273.172 55.5 274Z" fill="#D5D7DA"/>
<path d="M78.5 274C78.5 274.828 77.8284 275.5 77 275.5C76.1716 275.5 75.5 274.828 75.5 274C75.5 273.172 76.1716 272.5 77 272.5C77.8284 272.5 78.5 273.172 78.5 274Z" fill="#D5D7DA"/>
<path d="M101.5 274C101.5 274.828 100.828 275.5 100 275.5C99.1716 275.5 98.5 274.828 98.5 274C98.5 273.172 99.1716 272.5 100 272.5C100.828 272.5 101.5 273.172 101.5 274Z" fill="#D5D7DA"/>
<path d="M124.5 274C124.5 274.828 123.828 275.5 123 275.5C122.172 275.5 121.5 274.828 121.5 274C121.5 273.172 122.172 272.5 123 272.5C123.828 272.5 124.5 273.172 124.5 274Z" fill="#D5D7DA"/>
<path d="M147.5 274C147.5 274.828 146.828 275.5 146 275.5C145.172 275.5 144.5 274.828 144.5 274C144.5 273.172 145.172 272.5 146 272.5C146.828 272.5 147.5 273.172 147.5 274Z" fill="#D5D7DA"/>
<path d="M170.5 274C170.5 274.828 169.828 275.5 169 275.5C168.172 275.5 167.5 274.828 167.5 274C167.5 273.172 168.172 272.5 169 272.5C169.828 272.5 170.5 273.172 170.5 274Z" fill="#D5D7DA"/>
<path d="M193.5 274C193.5 274.828 192.828 275.5 192 275.5C191.172 275.5 190.5 274.828 190.5 274C190.5 273.172 191.172 272.5 192 272.5C192.828 272.5 193.5 273.172 193.5 274Z" fill="#D5D7DA"/>
<path d="M216.5 274C216.5 274.828 215.828 275.5 215 275.5C214.172 275.5 213.5 274.828 213.5 274C213.5 273.172 214.172 272.5 215 272.5C215.828 272.5 216.5 273.172 216.5 274Z" fill="#D5D7DA"/>
<path d="M239.5 274C239.5 274.828 238.828 275.5 238 275.5C237.172 275.5 236.5 274.828 236.5 274C236.5 273.172 237.172 272.5 238 272.5C238.828 272.5 239.5 273.172 239.5 274Z" fill="#D5D7DA"/>
<path d="M262.5 274C262.5 274.828 261.828 275.5 261 275.5C260.172 275.5 259.5 274.828 259.5 274C259.5 273.172 260.172 272.5 261 272.5C261.828 272.5 262.5 273.172 262.5 274Z" fill="#D5D7DA"/>
<path d="M285.5 274C285.5 274.828 284.828 275.5 284 275.5C283.172 275.5 282.5 274.828 282.5 274C282.5 273.172 283.172 272.5 284 272.5C284.828 272.5 285.5 273.172 285.5 274Z" fill="#D5D7DA"/>
<path d="M308.5 274C308.5 274.828 307.828 275.5 307 275.5C306.172 275.5 305.5 274.828 305.5 274C305.5 273.172 306.172 272.5 307 272.5C307.828 272.5 308.5 273.172 308.5 274Z" fill="#D5D7DA"/>
<path d="M331.5 274C331.5 274.828 330.828 275.5 330 275.5C329.172 275.5 328.5 274.828 328.5 274C328.5 273.172 329.172 272.5 330 272.5C330.828 272.5 331.5 273.172 331.5 274Z" fill="#D5D7DA"/>
<path d="M354.5 274C354.5 274.828 353.828 275.5 353 275.5C352.172 275.5 351.5 274.828 351.5 274C351.5 273.172 352.172 272.5 353 272.5C353.828 272.5 354.5 273.172 354.5 274Z" fill="#D5D7DA"/>
<path d="M377.5 274C377.5 274.828 376.828 275.5 376 275.5C375.172 275.5 374.5 274.828 374.5 274C374.5 273.172 375.172 272.5 376 272.5C376.828 272.5 377.5 273.172 377.5 274Z" fill="#D5D7DA"/>
<path d="M400.5 274C400.5 274.828 399.828 275.5 399 275.5C398.172 275.5 397.5 274.828 397.5 274C397.5 273.172 398.172 272.5 399 272.5C399.828 272.5 400.5 273.172 400.5 274Z" fill="#D5D7DA"/>
<path d="M423.5 274C423.5 274.828 422.828 275.5 422 275.5C421.172 275.5 420.5 274.828 420.5 274C420.5 273.172 421.172 272.5 422 272.5C422.828 272.5 423.5 273.172 423.5 274Z" fill="#D5D7DA"/>
<path d="M-36.5 297C-36.5 297.828 -37.1716 298.5 -38 298.5C-38.8284 298.5 -39.5 297.828 -39.5 297C-39.5 296.172 -38.8284 295.5 -38 295.5C-37.1716 295.5 -36.5 296.172 -36.5 297Z" fill="#D5D7DA"/>
<path d="M-13.5 297C-13.5 297.828 -14.1716 298.5 -15 298.5C-15.8284 298.5 -16.5 297.828 -16.5 297C-16.5 296.172 -15.8284 295.5 -15 295.5C-14.1716 295.5 -13.5 296.172 -13.5 297Z" fill="#D5D7DA"/>
<path d="M9.5 297C9.5 297.828 8.82843 298.5 8 298.5C7.17157 298.5 6.5 297.828 6.5 297C6.5 296.172 7.17157 295.5 8 295.5C8.82843 295.5 9.5 296.172 9.5 297Z" fill="#D5D7DA"/>
<path d="M32.5 297C32.5 297.828 31.8284 298.5 31 298.5C30.1716 298.5 29.5 297.828 29.5 297C29.5 296.172 30.1716 295.5 31 295.5C31.8284 295.5 32.5 296.172 32.5 297Z" fill="#D5D7DA"/>
<path d="M55.5 297C55.5 297.828 54.8284 298.5 54 298.5C53.1716 298.5 52.5 297.828 52.5 297C52.5 296.172 53.1716 295.5 54 295.5C54.8284 295.5 55.5 296.172 55.5 297Z" fill="#D5D7DA"/>
<path d="M78.5 297C78.5 297.828 77.8284 298.5 77 298.5C76.1716 298.5 75.5 297.828 75.5 297C75.5 296.172 76.1716 295.5 77 295.5C77.8284 295.5 78.5 296.172 78.5 297Z" fill="#D5D7DA"/>
<path d="M101.5 297C101.5 297.828 100.828 298.5 100 298.5C99.1716 298.5 98.5 297.828 98.5 297C98.5 296.172 99.1716 295.5 100 295.5C100.828 295.5 101.5 296.172 101.5 297Z" fill="#D5D7DA"/>
<path d="M124.5 297C124.5 297.828 123.828 298.5 123 298.5C122.172 298.5 121.5 297.828 121.5 297C121.5 296.172 122.172 295.5 123 295.5C123.828 295.5 124.5 296.172 124.5 297Z" fill="#D5D7DA"/>
<path d="M147.5 297C147.5 297.828 146.828 298.5 146 298.5C145.172 298.5 144.5 297.828 144.5 297C144.5 296.172 145.172 295.5 146 295.5C146.828 295.5 147.5 296.172 147.5 297Z" fill="#D5D7DA"/>
<path d="M170.5 297C170.5 297.828 169.828 298.5 169 298.5C168.172 298.5 167.5 297.828 167.5 297C167.5 296.172 168.172 295.5 169 295.5C169.828 295.5 170.5 296.172 170.5 297Z" fill="#D5D7DA"/>
<path d="M193.5 297C193.5 297.828 192.828 298.5 192 298.5C191.172 298.5 190.5 297.828 190.5 297C190.5 296.172 191.172 295.5 192 295.5C192.828 295.5 193.5 296.172 193.5 297Z" fill="#D5D7DA"/>
<path d="M216.5 297C216.5 297.828 215.828 298.5 215 298.5C214.172 298.5 213.5 297.828 213.5 297C213.5 296.172 214.172 295.5 215 295.5C215.828 295.5 216.5 296.172 216.5 297Z" fill="#D5D7DA"/>
<path d="M239.5 297C239.5 297.828 238.828 298.5 238 298.5C237.172 298.5 236.5 297.828 236.5 297C236.5 296.172 237.172 295.5 238 295.5C238.828 295.5 239.5 296.172 239.5 297Z" fill="#D5D7DA"/>
<path d="M262.5 297C262.5 297.828 261.828 298.5 261 298.5C260.172 298.5 259.5 297.828 259.5 297C259.5 296.172 260.172 295.5 261 295.5C261.828 295.5 262.5 296.172 262.5 297Z" fill="#D5D7DA"/>
<path d="M285.5 297C285.5 297.828 284.828 298.5 284 298.5C283.172 298.5 282.5 297.828 282.5 297C282.5 296.172 283.172 295.5 284 295.5C284.828 295.5 285.5 296.172 285.5 297Z" fill="#D5D7DA"/>
<path d="M308.5 297C308.5 297.828 307.828 298.5 307 298.5C306.172 298.5 305.5 297.828 305.5 297C305.5 296.172 306.172 295.5 307 295.5C307.828 295.5 308.5 296.172 308.5 297Z" fill="#D5D7DA"/>
<path d="M331.5 297C331.5 297.828 330.828 298.5 330 298.5C329.172 298.5 328.5 297.828 328.5 297C328.5 296.172 329.172 295.5 330 295.5C330.828 295.5 331.5 296.172 331.5 297Z" fill="#D5D7DA"/>
<path d="M354.5 297C354.5 297.828 353.828 298.5 353 298.5C352.172 298.5 351.5 297.828 351.5 297C351.5 296.172 352.172 295.5 353 295.5C353.828 295.5 354.5 296.172 354.5 297Z" fill="#D5D7DA"/>
<path d="M377.5 297C377.5 297.828 376.828 298.5 376 298.5C375.172 298.5 374.5 297.828 374.5 297C374.5 296.172 375.172 295.5 376 295.5C376.828 295.5 377.5 296.172 377.5 297Z" fill="#D5D7DA"/>
<path d="M400.5 297C400.5 297.828 399.828 298.5 399 298.5C398.172 298.5 397.5 297.828 397.5 297C397.5 296.172 398.172 295.5 399 295.5C399.828 295.5 400.5 296.172 400.5 297Z" fill="#D5D7DA"/>
<path d="M423.5 297C423.5 297.828 422.828 298.5 422 298.5C421.172 298.5 420.5 297.828 420.5 297C420.5 296.172 421.172 295.5 422 295.5C422.828 295.5 423.5 296.172 423.5 297Z" fill="#D5D7DA"/>
<path d="M-36.5 320C-36.5 320.828 -37.1716 321.5 -38 321.5C-38.8284 321.5 -39.5 320.828 -39.5 320C-39.5 319.172 -38.8284 318.5 -38 318.5C-37.1716 318.5 -36.5 319.172 -36.5 320Z" fill="#D5D7DA"/>
<path d="M-13.5 320C-13.5 320.828 -14.1716 321.5 -15 321.5C-15.8284 321.5 -16.5 320.828 -16.5 320C-16.5 319.172 -15.8284 318.5 -15 318.5C-14.1716 318.5 -13.5 319.172 -13.5 320Z" fill="#D5D7DA"/>
<path d="M9.5 320C9.5 320.828 8.82843 321.5 8 321.5C7.17157 321.5 6.5 320.828 6.5 320C6.5 319.172 7.17157 318.5 8 318.5C8.82843 318.5 9.5 319.172 9.5 320Z" fill="#D5D7DA"/>
<path d="M32.5 320C32.5 320.828 31.8284 321.5 31 321.5C30.1716 321.5 29.5 320.828 29.5 320C29.5 319.172 30.1716 318.5 31 318.5C31.8284 318.5 32.5 319.172 32.5 320Z" fill="#D5D7DA"/>
<path d="M55.5 320C55.5 320.828 54.8284 321.5 54 321.5C53.1716 321.5 52.5 320.828 52.5 320C52.5 319.172 53.1716 318.5 54 318.5C54.8284 318.5 55.5 319.172 55.5 320Z" fill="#D5D7DA"/>
<path d="M78.5 320C78.5 320.828 77.8284 321.5 77 321.5C76.1716 321.5 75.5 320.828 75.5 320C75.5 319.172 76.1716 318.5 77 318.5C77.8284 318.5 78.5 319.172 78.5 320Z" fill="#D5D7DA"/>
<path d="M101.5 320C101.5 320.828 100.828 321.5 100 321.5C99.1716 321.5 98.5 320.828 98.5 320C98.5 319.172 99.1716 318.5 100 318.5C100.828 318.5 101.5 319.172 101.5 320Z" fill="#D5D7DA"/>
<path d="M124.5 320C124.5 320.828 123.828 321.5 123 321.5C122.172 321.5 121.5 320.828 121.5 320C121.5 319.172 122.172 318.5 123 318.5C123.828 318.5 124.5 319.172 124.5 320Z" fill="#D5D7DA"/>
<path d="M147.5 320C147.5 320.828 146.828 321.5 146 321.5C145.172 321.5 144.5 320.828 144.5 320C144.5 319.172 145.172 318.5 146 318.5C146.828 318.5 147.5 319.172 147.5 320Z" fill="#D5D7DA"/>
<path d="M170.5 320C170.5 320.828 169.828 321.5 169 321.5C168.172 321.5 167.5 320.828 167.5 320C167.5 319.172 168.172 318.5 169 318.5C169.828 318.5 170.5 319.172 170.5 320Z" fill="#D5D7DA"/>
<path d="M193.5 320C193.5 320.828 192.828 321.5 192 321.5C191.172 321.5 190.5 320.828 190.5 320C190.5 319.172 191.172 318.5 192 318.5C192.828 318.5 193.5 319.172 193.5 320Z" fill="#D5D7DA"/>
<path d="M216.5 320C216.5 320.828 215.828 321.5 215 321.5C214.172 321.5 213.5 320.828 213.5 320C213.5 319.172 214.172 318.5 215 318.5C215.828 318.5 216.5 319.172 216.5 320Z" fill="#D5D7DA"/>
<path d="M239.5 320C239.5 320.828 238.828 321.5 238 321.5C237.172 321.5 236.5 320.828 236.5 320C236.5 319.172 237.172 318.5 238 318.5C238.828 318.5 239.5 319.172 239.5 320Z" fill="#D5D7DA"/>
<path d="M262.5 320C262.5 320.828 261.828 321.5 261 321.5C260.172 321.5 259.5 320.828 259.5 320C259.5 319.172 260.172 318.5 261 318.5C261.828 318.5 262.5 319.172 262.5 320Z" fill="#D5D7DA"/>
<path d="M285.5 320C285.5 320.828 284.828 321.5 284 321.5C283.172 321.5 282.5 320.828 282.5 320C282.5 319.172 283.172 318.5 284 318.5C284.828 318.5 285.5 319.172 285.5 320Z" fill="#D5D7DA"/>
<path d="M308.5 320C308.5 320.828 307.828 321.5 307 321.5C306.172 321.5 305.5 320.828 305.5 320C305.5 319.172 306.172 318.5 307 318.5C307.828 318.5 308.5 319.172 308.5 320Z" fill="#D5D7DA"/>
<path d="M331.5 320C331.5 320.828 330.828 321.5 330 321.5C329.172 321.5 328.5 320.828 328.5 320C328.5 319.172 329.172 318.5 330 318.5C330.828 318.5 331.5 319.172 331.5 320Z" fill="#D5D7DA"/>
<path d="M354.5 320C354.5 320.828 353.828 321.5 353 321.5C352.172 321.5 351.5 320.828 351.5 320C351.5 319.172 352.172 318.5 353 318.5C353.828 318.5 354.5 319.172 354.5 320Z" fill="#D5D7DA"/>
<path d="M377.5 320C377.5 320.828 376.828 321.5 376 321.5C375.172 321.5 374.5 320.828 374.5 320C374.5 319.172 375.172 318.5 376 318.5C376.828 318.5 377.5 319.172 377.5 320Z" fill="#D5D7DA"/>
<path d="M400.5 320C400.5 320.828 399.828 321.5 399 321.5C398.172 321.5 397.5 320.828 397.5 320C397.5 319.172 398.172 318.5 399 318.5C399.828 318.5 400.5 319.172 400.5 320Z" fill="#D5D7DA"/>
<path d="M423.5 320C423.5 320.828 422.828 321.5 422 321.5C421.172 321.5 420.5 320.828 420.5 320C420.5 319.172 421.172 318.5 422 318.5C422.828 318.5 423.5 319.172 423.5 320Z" fill="#D5D7DA"/>
</g>
<path d="M274.604 290.606C269.722 295.775 264.372 297.807 258.572 297.976C252.608 298.15 246.125 296.355 239.133 293.81C236.198 292.742 233.197 291.552 230.119 290.331C229.537 290.1 228.952 289.868 228.365 289.636C224.678 288.177 220.889 286.704 217.022 285.39C209.29 282.762 201.195 280.751 192.858 280.751C186.278 280.751 179.838 281.299 173.612 281.881C172.933 281.944 172.257 282.008 171.583 282.071C166.067 282.592 160.733 283.095 155.575 283.23C144.175 283.528 133.798 282.02 124.609 275.009V73.8894C124.609 68.3483 129.069 63.835 134.626 63.835H243.499L274.604 95.048V290.606Z" fill="url(#paint2_linear_2720_2603)" stroke="#DFDFDF" stroke-width="2"/>
<path d="M204.858 103.989H146.029C144.661 103.989 143.488 102.145 143.488 99.9944C143.488 97.8436 144.661 96 146.029 96H204.858C206.227 96 207.399 97.8436 207.399 99.9944C207.399 102.145 206.227 103.989 204.858 103.989Z" fill="#E8EAF1"/>
<path d="M160.543 122.629H145.207C144.282 122.629 143.488 120.786 143.488 118.635C143.488 116.484 144.282 114.641 145.207 114.641H160.41C161.336 114.641 162.129 116.484 162.129 118.635C162.129 120.786 161.336 122.629 160.543 122.629Z" fill="#E8EAF1"/>
<path d="M253.377 226.484H180.459H172.422H148.116C147.136 226.484 146.156 228.149 146.156 230.479C146.156 232.476 146.94 234.473 148.116 234.473H172.422H180.459H253.377C254.357 234.473 255.337 232.809 255.337 230.479C255.141 228.149 254.357 226.484 253.377 226.484Z" fill="#E8EAF1"/>
<path d="M253.374 205.181H226.275H217.045H148.12C147.138 205.181 146.156 206.845 146.156 209.175C146.156 211.172 146.942 213.17 148.12 213.17H217.045H226.275H253.374C254.356 213.17 255.337 211.505 255.337 209.175C255.141 206.845 254.356 205.181 253.374 205.181Z" fill="#E8EAF1"/>
<path d="M256.171 186.54H248.957H241.743H148.16C147.158 186.54 146.156 188.204 146.156 190.534C146.156 192.532 146.958 194.529 148.16 194.529H241.743H249.759H255.971C256.973 194.529 257.975 192.865 257.975 190.534C258.175 188.537 257.173 186.54 256.171 186.54Z" fill="#E8EAF1"/>
<path d="M256.014 165.236H232.771H227.01H148.143C147.15 165.236 146.156 166.901 146.156 169.231C146.156 171.228 146.951 173.225 148.143 173.225H227.01H232.771H255.815C257.206 173.225 258 171.561 258 169.231C258 167.234 257.206 165.236 256.014 165.236Z" fill="#E8EAF1"/>
<path d="M243.918 64.1602V84.2214C243.918 90.7045 249.174 95.96 255.657 95.96H275.608" fill="#DFDFDF"/>
<path d="M243.918 64.1602V84.2214C243.918 90.7045 249.174 95.96 255.657 95.96H275.608" stroke="#DFDFDF" stroke-width="2" stroke-miterlimit="10"/>
<path d="M132.077 194.087L123.538 209.954L115 194.087V117.857V106.821C115 105.269 116.265 104 117.811 104H129.266C130.812 104 132.077 105.269 132.077 106.821V194.087Z" fill="#444CE7"/>
<path d="M132.077 194.087L123.538 209.954L115 194.087V117.857V106.821C115 105.269 116.265 104 117.811 104H129.266C130.812 104 132.077 105.269 132.077 106.821V194.087Z" fill="url(#paint3_linear_2720_2603)" fill-opacity="0.9"/>
<path d="M132.077 117.116H115" stroke="white" stroke-width="2" stroke-miterlimit="10" stroke-linejoin="round"/>
<path d="M132.077 194.087H115" stroke="white" stroke-width="2" stroke-miterlimit="10" stroke-linejoin="round"/>
</g>
<defs>
<linearGradient id="paint0_linear_2720_2603" x1="191.667" y1="0" x2="191.667" y2="260" gradientUnits="userSpaceOnUse">
<stop stop-color="#F8FAFC"/>
<stop offset="1" stop-color="white"/>
</linearGradient>
<radialGradient id="paint1_radial_2720_2603" cx="0" cy="0" r="1" gradientUnits="userSpaceOnUse" gradientTransform="translate(240 240) rotate(90) scale(240 240)">
<stop/>
<stop offset="1" stop-opacity="0"/>
</radialGradient>
<linearGradient id="paint2_linear_2720_2603" x1="199.607" y1="62.835" x2="199.607" y2="298.988" gradientUnits="userSpaceOnUse">
<stop stop-color="#EEF2F6"/>
<stop offset="0.336538" stop-color="white"/>
</linearGradient>
<linearGradient id="paint3_linear_2720_2603" x1="123.538" y1="104" x2="123.538" y2="209.954" gradientUnits="userSpaceOnUse">
<stop stop-color="white" stop-opacity="0"/>
<stop offset="1" stop-color="white"/>
</linearGradient>
<clipPath id="clip0_2720_2603">
<path d="M0 0H383.333V260H0V0Z" fill="white"/>
</clipPath>
</defs>
</svg>
