<svg width="16" height="17" viewBox="0 0 16 17" fill="none" xmlns="http://www.w3.org/2000/svg">
<path d="M0 8.75C0 4.33172 3.58172 0.75 8 0.75C12.4183 0.75 16 4.33172 16 8.75C16 13.1683 12.4183 16.75 8 16.75C3.58172 16.75 0 13.1683 0 8.75Z" fill="#F9F5FF"/>
<path fill-rule="evenodd" clip-rule="evenodd" d="M11.3986 5.67661L6.62531 10.2833L5.35865 8.92994C5.12531 8.70994 4.75865 8.69661 4.49198 8.88328C4.23198 9.07661 4.15865 9.41661 4.31865 9.68994L5.81865 12.1299C5.96531 12.3566 6.21865 12.4966 6.50531 12.4966C6.77865 12.4966 7.03865 12.3566 7.18531 12.1299C7.42531 11.8166 12.0053 6.35661 12.0053 6.35661C12.6053 5.74328 11.8786 5.20328 11.3986 5.66994V5.67661Z" fill="#7F56D9"/>
</svg>
